<svg xmlns="http://www.w3.org/2000/svg" width="250" height="440" viewBox="0 0 250 440" class="letter-canvas" style="width: 100%; height: 100%;"><circle cx="150" cy="60" r="30.85644286731247" fill="none" stroke="black" stroke-width="1"/><circle cx="150.00001525878906" cy="66.89654541015625" r="30.85644286731247" fill="none" stroke="black" stroke-width="1"/><circle cx="150.00001525878906" cy="73.79310607910156" r="30.85644286731247" fill="none" stroke="black" stroke-width="1"/><circle cx="150.00001525878906" cy="80.68965148925781" r="30.85644286731247" fill="none" stroke="black" stroke-width="1"/><circle cx="150" cy="87.58621215820312" r="30.85644286731247" fill="none" stroke="black" stroke-width="1"/><circle cx="150" cy="94.48275756835938" r="30.85644286731247" fill="none" stroke="black" stroke-width="1"/><circle cx="150" cy="101.37930297851562" r="30.85644286731247" fill="none" stroke="black" stroke-width="1"/><circle cx="150" cy="108.27586364746094" r="30.85644286731247" fill="none" stroke="black" stroke-width="1"/><circle cx="150" cy="115.17240905761719" r="30.85644286731247" fill="none" stroke="black" stroke-width="1"/><circle cx="150" cy="122.0689697265625" r="30.85644286731247" fill="none" stroke="black" stroke-width="1"/><circle cx="150" cy="128.96551513671875" r="30.85644286731247" fill="none" stroke="black" stroke-width="1"/><circle cx="150" cy="135.862060546875" r="30.85644286731247" fill="none" stroke="black" stroke-width="1"/><circle cx="150" cy="142.7586212158203" r="30.85644286731247" fill="none" stroke="black" stroke-width="1"/><circle cx="150" cy="149.65518188476562" r="30.85644286731247" fill="none" stroke="black" stroke-width="1"/><circle cx="150" cy="156.55172729492188" r="30.85644286731247" fill="none" stroke="black" stroke-width="1"/><circle cx="150" cy="163.44827270507812" r="30.85644286731247" fill="none" stroke="black" stroke-width="1"/><circle cx="150" cy="170.34481811523438" r="30.85644286731247" fill="none" stroke="black" stroke-width="1"/><circle cx="150" cy="177.2413787841797" r="30.85644286731247" fill="none" stroke="black" stroke-width="1"/><circle cx="150" cy="184.137939453125" r="30.85644286731247" fill="none" stroke="black" stroke-width="1"/><circle cx="150" cy="191.03448486328125" r="30.85644286731247" fill="none" stroke="black" stroke-width="1"/><circle cx="150" cy="197.9310302734375" r="30.85644286731247" fill="none" stroke="black" stroke-width="1"/><circle cx="150" cy="204.8275909423828" r="30.85644286731247" fill="none" stroke="black" stroke-width="1"/><circle cx="150" cy="211.72413635253906" r="30.85644286731247" fill="none" stroke="black" stroke-width="1"/><circle cx="150" cy="218.62069702148438" r="30.85644286731247" fill="none" stroke="black" stroke-width="1"/><circle cx="150" cy="225.51724243164062" r="30.85644286731247" fill="none" stroke="black" stroke-width="1"/><circle cx="150" cy="232.41378784179688" r="30.85644286731247" fill="none" stroke="black" stroke-width="1"/><circle cx="150" cy="239.3103485107422" r="30.85644286731247" fill="none" stroke="black" stroke-width="1"/><circle cx="150" cy="246.20689392089844" r="30.85644286731247" fill="none" stroke="black" stroke-width="1"/><circle cx="150" cy="253.10345458984375" r="30.85644286731247" fill="none" stroke="black" stroke-width="1"/><circle cx="150" cy="50" r="30.85644286731247" fill="none" stroke="black" stroke-width="1"/><circle cx="156.976806640625" cy="50.239681243896484" r="30.85644286731247" fill="none" stroke="black" stroke-width="1"/><circle cx="163.92030334472656" cy="50.961204528808594" r="30.85644286731247" fill="none" stroke="black" stroke-width="1"/><circle cx="170.7965087890625" cy="52.165489196777344" r="30.85644286731247" fill="none" stroke="black" stroke-width="1"/><circle cx="177.57125854492188" cy="53.84927749633789" r="30.85644286731247" fill="none" stroke="black" stroke-width="1"/><circle cx="184.21087646484375" cy="56.005126953125" r="30.85644286731247" fill="none" stroke="black" stroke-width="1"/><circle cx="190.6825714111328" cy="58.62226104736328" r="30.85644286731247" fill="none" stroke="black" stroke-width="1"/><circle cx="196.95472717285156" cy="61.686954498291016" r="30.85644286731247" fill="none" stroke="black" stroke-width="1"/><circle cx="202.9971923828125" cy="65.18286895751953" r="30.85644286731247" fill="none" stroke="black" stroke-width="1"/><circle cx="208.7811737060547" cy="69.09161376953125" r="30.85644286731247" fill="none" stroke="black" stroke-width="1"/><circle cx="214.2793731689453" cy="73.39307403564453" r="30.85644286731247" fill="none" stroke="black" stroke-width="1"/><circle cx="219.46568298339844" cy="78.06585693359375" r="30.85644286731247" fill="none" stroke="black" stroke-width="1"/><circle cx="224.3155059814453" cy="83.08699035644531" r="30.85644286731247" fill="none" stroke="black" stroke-width="1"/><circle cx="228.80543518066406" cy="88.43238067626953" r="30.85644286731247" fill="none" stroke="black" stroke-width="1"/><circle cx="232.91322326660156" cy="94.07675170898438" r="30.85644286731247" fill="none" stroke="black" stroke-width="1"/><circle cx="236.6179656982422" cy="99.99349212646484" r="30.85644286731247" fill="none" stroke="black" stroke-width="1"/><circle cx="239.90042114257812" cy="106.15451049804688" r="30.85644286731247" fill="none" stroke="black" stroke-width="1"/><circle cx="242.7432403564453" cy="112.53031158447266" r="30.85644286731247" fill="none" stroke="black" stroke-width="1"/><circle cx="245.13136291503906" cy="119.09000396728516" r="30.85644286731247" fill="none" stroke="black" stroke-width="1"/><circle cx="247.0521697998047" cy="125.8013916015625" r="30.85644286731247" fill="none" stroke="black" stroke-width="1"/><circle cx="248.49691772460938" cy="132.63108825683594" r="30.85644286731247" fill="none" stroke="black" stroke-width="1"/><circle cx="249.4599609375" cy="139.5452117919922" r="30.85644286731247" fill="none" stroke="black" stroke-width="1"/><circle cx="249.94015502929688" cy="146.50955200195312" r="30.85644286731247" fill="none" stroke="black" stroke-width="1"/><circle cx="249.94015502929688" cy="153.49046325683594" r="30.85644286731247" fill="none" stroke="black" stroke-width="1"/><circle cx="249.4599609375" cy="160.45481872558594" r="30.85644286731247" fill="none" stroke="black" stroke-width="1"/><circle cx="248.49691772460938" cy="167.3689422607422" r="30.85644286731247" fill="none" stroke="black" stroke-width="1"/><circle cx="247.05213928222656" cy="174.19866943359375" r="30.85644286731247" fill="none" stroke="black" stroke-width="1"/><circle cx="245.13133239746094" cy="180.91006469726562" r="30.85644286731247" fill="none" stroke="black" stroke-width="1"/><circle cx="242.74322509765625" cy="187.4697265625" r="30.85644286731247" fill="none" stroke="black" stroke-width="1"/><circle cx="239.90040588378906" cy="193.84552001953125" r="30.85644286731247" fill="none" stroke="black" stroke-width="1"/><circle cx="236.61795043945312" cy="200.00653076171875" r="30.85644286731247" fill="none" stroke="black" stroke-width="1"/><circle cx="232.9132080078125" cy="205.9232635498047" r="30.85644286731247" fill="none" stroke="black" stroke-width="1"/><circle cx="228.80540466308594" cy="211.567626953125" r="30.85644286731247" fill="none" stroke="black" stroke-width="1"/><circle cx="224.31549072265625" cy="216.9130401611328" r="30.85644286731247" fill="none" stroke="black" stroke-width="1"/><circle cx="219.4656524658203" cy="221.93417358398438" r="30.85644286731247" fill="none" stroke="black" stroke-width="1"/><circle cx="214.2793426513672" cy="226.60693359375" r="30.85644286731247" fill="none" stroke="black" stroke-width="1"/><circle cx="208.7811279296875" cy="230.9084014892578" r="30.85644286731247" fill="none" stroke="black" stroke-width="1"/><circle cx="202.99713134765625" cy="234.817138671875" r="30.85644286731247" fill="none" stroke="black" stroke-width="1"/><circle cx="196.95472717285156" cy="238.3130645751953" r="30.85644286731247" fill="none" stroke="black" stroke-width="1"/><circle cx="190.6825408935547" cy="241.37774658203125" r="30.85644286731247" fill="none" stroke="black" stroke-width="1"/><circle cx="184.2108154296875" cy="243.99488830566406" r="30.85644286731247" fill="none" stroke="black" stroke-width="1"/><circle cx="177.57118225097656" cy="246.1507568359375" r="30.85644286731247" fill="none" stroke="black" stroke-width="1"/><circle cx="170.7964630126953" cy="247.83453369140625" r="30.85644286731247" fill="none" stroke="black" stroke-width="1"/><circle cx="163.92025756835938" cy="249.03880310058594" r="30.85644286731247" fill="none" stroke="black" stroke-width="1"/><circle cx="156.97679138183594" cy="249.7602996826172" r="30.85644286731247" fill="none" stroke="black" stroke-width="1"/></svg>