<?xml version="1.0" encoding="UTF-8"?>
<svg id="Ebene_1" data-name="Ebene 1" xmlns="http://www.w3.org/2000/svg" viewBox="0 0 627.15 496.06">
  <defs>
    <style>
      .cls-1 {
        fill: #fff;
      }
    </style>
  </defs>
  <path class="cls-1" d="M418.06,96.12h36.5c.25,0,2.39-1.88,2.1-3.05-.6-2.44-4.51-4.44-5.67-7.37-1.87-4.72-.13-9.42-1.13-13.85-.71-3.13-4.24-4.58-4.76-8.28-1.17-8.28,4.76-10.97-3.04-19.9-1.61-1.85-5.27-2.44-4.99-5.5l12.02-.48c1.83-3.8,5.04-8.27,2.97-12.51,3.71,1.67,18.95-2.72,19.01-6.47,0-.53-3.93-8.59-4.55-9.49-9.21-13.21-23.25-9.73-36.34-4.93l.79,6.78c-5.94.87-2.43,5.66-3.32,7.12-.71,1.16-3.22,1.29-4.29,2.28s-1.54,3.4-3.3,4.19c-2.83,1.27-7.74-.43-10,1.99-.26.28-2.97,6.67-3.01,7.09-.62,6.29,7.91,3.65,8.92,4.52.25.21.37,3.01,1.2,4.29,1,1.55,3.44,2.39,4.9,4.11,7.32,8.64,1.52,9.35,2.04,16.87.32,4.6,3.7,6.69,4.89,10.19,1.48,4.34-.75,8.42.83,12.79-.57,3.34-8.71,5.17-11.65,5.72l-.12,3.88ZM170.05,2.24l-17.99,2.42c-2.28,1.55.27,4.67-.4,5.57-1.21,1.62-7.6.48-8.48,3.62-.76,2.69,3.2,8.97,6.91,7.34-3.76,5.71-8.17,11-6.93,18.42.75,4.51,3.27,3.99,5.47,6.52,6.98,8.02,1.89,9.54,2.55,17.39.49,5.82,3.23,6.01,4.65,9.38,2.25,5.35-1.74,15.23,3.73,20.26,7.96,7.32,29.86,3.94,39.56,1.51,4.52-1.13,12.57-2.88,13.79-8.24.29-1.27-.76-2.64-.59-3.67.2-1.18,2.31-1.93,2.75-4.13.56-2.79-.36-6.53.02-9.48,5.55,3.18,5.5,10.79,8.54,15.94,8.56,14.53,27.14,12.77,41.48,9.58,2.69-.6,8.49-1.92,10.41-3.59,3.04-2.64,2.12-5.92,2.83-9.16.81-3.75,3.57-6.54-.23-11.3-10.6-3.92-10.89,5.78-18.98,8.08-3.47.99-8.73,1.62-11.98-.13-2.21-1.2-11.37-12.28-12.29-14.69-2.15-5.64,1.38-9.69-.03-14.97-.94-3.52-7.14-7.54-7.52-9.36-1.05-5.13,7.15-6.97,10.99-6.15,3.48.74,14.16,15.23,18.81,18.22,12.38,7.95,18.28-5.76,6.04-10.59,8.16-21.61-11.45-19.98-26.48-17.74-8.71,1.3-13.33,2.84-20.24,7.76-1.21.86-3.34.82-4.34,1.66-1.31,1.1-2.67,6.01-3.06,7.93.32,3.36,9.37,5.96,7.8,12.75-.15.66-1.62,3.87-2.76,3.77,1.1-9.52-6.54-11.91-9.86-17.63-2.48-4.27-1.68-9.63-5.78-13.21-6.49-5.66-20.39-2.57-28.36-2.15,1.06-2.47,4.83-2.5,5.06-5.54.15-2.01-3.63-10.15-4.61-12.42-.52-1.21-.35-2.68-.5-3.97ZM334.96,2.31c-1.2-1.06-18.39,1.81-19.67,3.1-.99,1-.77,3.7-1.7,4.79-1.28,1.49-4.82.55-5.47,2.58-.2,4.46,3.66,5.95,6.47,8.4,1.37,2.94-5.96.82-8.03.92-11.2.56-21.36,2.07-29.97,9.08-1.12.91-3.32.97-4.02,1.98-.54.77-1.65,7.25-1.36,8.3.52,1.87,3.49,2.74,4.86,4.21,6.57,7.06.45,9.58.26,16.26-.16,5.71,3.43,6.9,4.97,10.49s2.19,8.36,3.94,12.05c5.45,11.45,13.03,13.32,25.21,12.53,11.42-.74,23.95-1.02,35.85-3.14,1.58-.28,5.14-.72,5.7-2.33,1.53-6.49-7.77-4.09-9.46-8.42-.46-1.17.39-8.68-.71-12.22-.87-2.81-3.3-3.98-3.74-6.27-.69-3.59,1-6.67,1.07-9.96.2-10.22-8.53-12.37-9.1-16.04-.93-5.94,2.88-11.31,6.49-15.5,1.34-1.56,4.32-2,4.37-4.59.04-2-2.31-2.49-2.59-3.96-.19-.98.78-2.4.56-3.66-.43-2.57-4.27-5.18-3.92-8.59ZM125.97,25.31c-11.35-5.12-24.15-4.86-36.24-2.99-2.77.43-16.04,3.35-17.6,4.39-1.3.88-4.76,7.35-4.38,9.23,1.21,5.84,3.98,5.91,6.88,9.18,4.61,5.19,8.04,11.27,16.45,10.05l-7.26,2.23c-3.9,2.6-6.14,3.43-6.19,8.64-.03,3.24,1.96,4.28,2.39,6.67.66,3.63-.51,7.9.28,11.71.33,1.62,4.09,9.75,5.38,10.61,1.94,1.29,7.46,2.22,9.89,2.18,5.06-.09,17.4-4.56,20.89-3.84,1.07.22,1.89,2.02,3.37,2.51,6.11,2,16.34.07,22.46-2.02,12.39-4.25,5.87-16.82-5.18-14.76-.46-2.71-.54-6.49-1.52-8.97-.8-2.03-2.87-3.21-3.31-4.68-1.26-4.24.85-7.99.86-11.78.03-8.91-8.56-11.6-9.1-15.04l1.9-13.31ZM365.07,59.15h39.5c4.03-5.76.76-11.2-3.1-15.89-1.04-1.27-3.13-1.71-3.88-3.11-1.64-3.05-.77-8.68-2.64-12.35-5.35-10.49-32.36-5.62-40.9-1.15-2.8,1.47-5.58,5.45-8.79,7.21-2.57,9.57-.1,7.32,4.25,12.36,6.87,7.96-.03,10.53,1,17.98.54,3.91,3.5,5.48,4.76,8.24,5.3,11.66,5.22,23.2,21.31,24.67,6.78.62,29.87-2.33,32.26-9.71.51-1.58.1-3.54.68-5.32.78-2.43,5.17-8.38.6-11.5s-10.64,6.36-15.22,7.88c-8.64,2.88-13.64,1.36-19.85-4.79-1.4-1.39-11.31-13.32-9.97-14.52ZM530.06,24.18c-14.34-.54-30.12-3.21-44.37-1.87-6.64.63-20.33,3.5-22.41,10.57-2.88,9.77,10.41,16.35,13.69,24.92.26,1.92-6.14,2.68-3.7,10.64,1,3.28,3.92,7.31,4.43,12.34.48,4.71-2.72,12.52-2.22,14.38,1.54,5.76,10.58,5.51,12.33,7.22s2.61,7.46,7.02,9.47c3.8,1.73,17.17,2.41,21.78,2.3,3.04-.07,9.78-.75,12.71-1.28,2.54-.46,6.43-1.78,4.13-4.83l-11.38-6.91,16.05-8.45c5.25-3.87-2.24-16.45-6.11-19l-20.94-9.05c2.3-1.79,5.9-1.36,8.34-2.69,1.17-.64,1.42-2.13,1.97-2.46,4.64-2.82,8.36-2.14,6.48-10.61-1.42-6.4-9.9-6.93-7.8-14.71,8.18,1.76,8.98-3.33,10.01-9.99ZM134.8,135.31c-.57.16-8.96,6.26-9.21,6.77-4.92,10.08,10.7,14.98,18.28,11.28,1.74-.85,7.04-9.69,7.19-11.9.54-7.66-11.06-7.65-16.26-6.15ZM32.8,142.85c.74-1.72.6-3.75-1.28-4.64-7.4,1.58-15.07,1.55-22.43,3.37-3.32.82-13.5,4.1-6.93,7.94,1.75,1.02,4.88,1.24,6.94,1.57-1.8,2.99-.06,6.09-.3,8.36-.27,2.57-3.48,5.47-2.55,8.89.66,2.42,6.81,7.29,7.3,8.67.44,1.22-.7,3.06-.54,4.54.71,6.79,8.8,8.79,9.08,10.02-.39,2.3-2.77,3.14-3.55,5.43-.88,2.6-.3,5.49-1.67,8.32-.88,1.8-3.25,3-3.64,4.44-.68,2.5,1.88,6.27.73,9.15l-11.77,3.22c-.75,2.28.79,5.44,2.92,6.38,1.8.79,31.61,1.11,34.48.53,3.51-.71,1.85-3.99,2.99-4.02l1.64,3.87,70.41.19,4.43-2.06c2.11,9.72,24.06,6.29,28.59,1.07,1.13-1.3,1.39-3.05,2.48-4.51.67-.9,2.79-1.22,3.46-2.54,1.27-2.52.03-7.01.75-10.24.19-.87,3.96-12.03,4.28-12.71,1.08-2.25,4.82-3.03,4.51-6.49-.34-3.81-8.2-4.52-9.66-9.52-.77-2.62.82-4.33-.11-6.72-1.01-2.59-5.5-4.84-6.12-7.02-1.23-4.26,4.55-10.35-1.19-12.74s-20.3.65-26.97-.52c1.35,4.14-3.89,9.9-2.54,12.95,1.14,2.58,5.45,4.05,7.46,5.61,1.75,1.36,7.35,5.27,8.04,5.96,2.9,2.89,4.22,10.83,11.03,11.47.51,2.22-2.17,2.74-2.79,4.69-.57,1.81-.08,4.23-.65,6.34-1.22,4.54-3.93,7.46-3.56,11.94-2.31-.58-8.26-.53-10.34.15-1.38.45-1.85,2.73-3.28,3.71-2.2,1.51-4.94,1.19-5.85,4.12-10.16-3.9-4.6-11.02-2.01-17.97.65-1.74.2-3.72.72-5.28.96-2.91,5.88-3.85,4.64-8.02-.97-3.27-9.61-4.57-9.74-10.14-.03-1.47,1.21-2.94.74-4.83-.63-2.5-6.57-4.9-6.84-9.27-.24-3.86,4.07-7.09-.02-11.41,5.16.13,6.29-13.48,2.98-15.49-3.88-2.36-18.33-.64-21.53,2.43-4.13,3.96-2.28,13.54,3.27,14.82l8.28,1.2c-6.71,1-16.7,2.37-22.39,6.11s5.69,8.15,7.4,9.4c1.34.97,1.67,2.92,2.68,3.55,1.17.72,3.94.69,4.21,1.03.34.4-.11,3.87.64,5.86,1.62,4.31,9.13,5.9,8.5,9.49-.11.62-2.51.99-3.33,2.75-1.1,2.36-.58,5.61-1.64,8.36-.81,2.11-3.12,3.56-3.69,5.39-.83,2.68,1.51,6,.48,8.89-3.05.87-11.97,3.87-13.87.38-.6-2.61-1.58-5.9-.98-8.55.18-.79,1.75-.72,2.27-1.94,1.5-3.53,1.16-6.81,2.17-9.79s4.9-4.2,4.59-7.4c-.33-3.52-8.3-6.4-9.58-9.57-.71-1.75,1.04-3.85.38-6.25-.5-1.84-5.23-4.88-6.3-7.77-1.92-5.2-.59-9.16-7.18-12.81-4.8-2.66-18.72-3.04-23.65-.92-2.17.94-3.36,5.93-7.7,4.78-1.25-.9.2-13.13,1.06-15.22.28-.69,1.53-.79,1.63-1ZM156.09,229.03h112.49c1.72,0,1.55-3.58,1.07-5.05-1.16-3.54-4.27-2.95-5.32-4.2-3.85-4.53.68-11.5,2.26-15.73.72-1.91.18-4.09,1.01-5.98.93-2.13,4.86-2.95,4.53-6.46-.41-4.33-9.72-5.81-9.94-10.99-.06-1.45,1.23-2.92.76-4.83-.5-2.02-6.65-5.77-6.8-9.19-.08-1.79,1.71-4.04,1.89-6.15.35-3.95-.7-8.28.28-12.62.89-3.95,3.78-5.1,3.75-8.72-5.83-.26-30.59,1.17-32.84,6.65-.29.7-.42,2.73-.06,3.25l7.91,2.11c-1.32,2.78.09,6.09-.21,8.23-.39,2.75-2.88,5.58-2.13,8.54.91,3.6,6.15,7.31,6.81,9.13.41,1.13-.62,2.92-.45,4.45.59,5.29,10.01,10.19,9.97,11.1-5.16,2.24-3.15,4.81-4.47,8.51-.97,2.72-5.17,9.05-5.28,9.6-.32,1.69,2.22,7.12.18,8.49-10.03,2.94-16.83,3.09-23.83-5.2-1.34-1.59-11.18-15.41-11.57-16.42-1.1-2.84,9.15-1.83,9.04-4.98-.21-6.06-8.13-4.4-9.9-9.16-1.53-4.14,6.53-1.95,6.49-6.84l-5.66-9.47c5.15-2.83,22.23-4.59,13.5-12.01h-31.5l-.06,6.38,4.06,2.6c-6.64-.35-4.95,6.25-2.44,9.99.81,1.2,3.03.34,2.43,2.5l-4.98,2.52c1.17-5.68-6.66-7.43-6.99-12.56-.16-2.53,1.71-4.63,1.92-7.07.3-3.58-.62-7.7.29-11.62.8-3.46,3.23-5.38,3.76-8.71-1.5-.29-2.59-.85-4.22-.77-4.3.21-14.31,2.18-18.81,3.22-2.51.58-8.88,1.84-9.82,4.19-2.34,5.86,5.51,2.16,7.43,5.33-.9,2.78.31,6.29.1,8.37-.31,3.1-3.3,5.47-2.29,8.64.88,2.78,6.47,7.28,7.07,8.92.56,1.52-1.31,4.03.05,7.03s8.2,6.06,8.53,8.51c.38,1.93-1.95,1.5-2.87,3.14-1.52,2.72-1.21,7.7-2.9,11.09-.69,1.4-2.56,1.43-2.86,3.17-.44,2.57,1.41,5.63.45,8.45-1.13,3.29-9.17,1.82-10.44,3.56l.57,7.07ZM354.57,229.03h35c1.72,0,1.55-3.58,1.08-5.05-1.63-5.01-7.95-1.4-6.62-11.48.1-.75,4.23-13.66,4.56-14.42.93-2.12,4.86-2.95,4.53-6.46-.39-4.11-7.93-4.99-9.56-9.62-.87-2.45.92-4.06.38-6.2-.41-1.62-6.4-6.35-7.34-8.75-1.02-2.6.11-5.1-1.46-7.54-3.8-5.91-16.35-6.72-22.59-5.44-3.2.66-1.72,3.24-3.18,4.05-2.95,1.62-9.34,1.73-12.7,3.9-4.69-9.38-21.3-11.32-29.93-7.75-2.06.85-.46,5.06-7.21,4.9-2.32-.05-1.61-2.65-3.42-3.58-4.98-2.55-4.78,1.35-6.7,2.29-2.95,1.46-9.68,1.6-13.36,2.67-3.24.94-6.23,3.28-9.89,3.61-2.07,8.26,7.89,7.35,9.68,9.17,1.31,1.34.84,5.53,6.26,4.75-3.41,6.78,4.3,10.3,8.99,13.5.41,1.76-2.87,3.08-3.49,4.5-.75,1.72-.23,3.68-.82,5.18-2.56,6.46-6.11,9.94-4.83,17.66-6.09,1.92-15.01,1.11-8.88,9.64,1.49.88,31.4,1.06,34.49.47,1.97-.38,2.76-1.66,4.02-2.96l2.97,3.06,35.57-.53c3.15-9.67-7.55-4.74-6.09-16.08.11-.89,4.13-13.44,4.56-14.43.92-2.12,4.85-2.93,4.54-6.46-.37-4.1-11.09-5.55-10.05-11.53l8.54-2.96v-3.08s-4.54-1.95-4.54-1.95c5.06-2.05,11.32-.47,14.05,4.43,1.51,2.71.49,4.85,1.49,7.51,1.33,3.54,8.23,6.65,8.45,7.57-.15,2.06-2.5,2.91-3.25,4.71-.95,2.26-.48,4.6-1.25,6.75-.81,2.26-4.18,7.16-4.26,7.61-.34,1.79,1.81,5.8.62,8.24-2.7,1.36-10.04,1.22-11.39,4.08-.62,1.31,1.75,5.67,3.03,6.04ZM469.27,197.24c.22-.39,2.58-.96,3.7-2.83,3.74-6.23-6.54-7.11-8.43-11.39-1.09-2.46.9-4.61-.34-7.51s-4.45-3.18-6.03-7.04-.35-6.93-3.6-10.39c-5.34-5.69-18.92-6.1-25.96-3.96-2.84.86-2.35,2.61-4.15,3.85-5.12,3.54-5.81-3.4-9.89-2.98-2.33.24-1.9,2.57-3.26,3.07-3.5,1.27-22.85,3.01-24.14,6.64-2.58,7.28,7.53,6.84,9.91,8.89,1.57,1.35.58,5.24,6,4.48-3.26,5.86,3.88,11.22,8.99,13,.58,2.79-3.06,2.57-3.81,4.66-.52,1.44-.02,3.51-.67,5.33-2.21,6.22-7.03,10.92-3.51,17.96-2.61.65-11.03,1.12-11.9,3.65-.76,2.23.1,5.42,2.59,6.16,2.87.84,28.93.78,32.85.25,2.94-.39,3.22-1.55,5.43-3.05l2.49,3.02,34.87-.18c5.79-5.65-4.75-6.72-5.4-12.3-.78-6.7,2.21-8.29,3.8-13.29.63-1.99-.26-4.76.46-6.04ZM568.07,156.08c-.35-3.8-3.09-3.32-6.09-2.57-4.05,1-3.58,3.38-6.19,4.81-3.59,1.97-14.48,1.19-15.61,5.4s4.46,2.82,6.86,3.86,3.48,5.12,4.99,7.05c.75.96,2.72,1.26,2.91,1.59.6,1.04-.91,3.33-.69,5.12.73,6.13,9.57,9.23,9.81,10.22.48,2.29-3.38,2.97-3.78,3.69-.3.53-1.63,8.55-2.49,11.01-.51,1.47-2.15,2.23-2.55,3.52-.68,2.21,1.1,7.43.34,9.22-.17.41-5.14,6.02-5.85,6.69-1.46,1.39-5.93.84-4.59,5.71l1.58,1.46,32.3-.9c1.67-6.42-6.14-5.14-6.95-9.94,6.64,2.58,31.49,1.96,36.33-1.92.92-.74.62-2.15,1.28-2.96,1.85-2.25,3.35-5.64,3.6-5.9.67-.69,3.42-.34,5.24-2.26,2.95-3.12,3.63-7.71,5.09-10.9,1.09-2.39,5.01-3.97,2.98-8.05-.99-1.99-7.66-4.46-9.97-9.06-3.28-6.54-6.41-11.61-11.59-17.4-9.74-10.88-23.86-13.97-36.95-7.52ZM541.27,211.26c.76-1.11,5.11-1.84,7.22-7.28-.68-4.2,4.03-9,3.42-12.19-.7-3.68-5.9-5.26-8.25-7.84s-2.84-5.94-4.59-8.4c-1.31-1.85-9.27-10.37-11.07-11.92-4.08-3.52-19.28-8.88-24.46-8.65-1.17.05-17.27,4.78-19.48,5.6-.95.35-8.28,4.05-8.55,4.45-1.71,2.47.9,11.95,5.55,11.05-1.73,2.64-6.01,2.63-4.59,7,1.72,5.28,5.73,5.49,9.58,8.48-9.9,4.38-10.18,18.14-3.96,25.96,7.91,9.94,25.48,14.7,37.44,10.49,2.79-.98,2.39-2.72,4.21-3.79,3.1-1.82,10.86-1.71,13.63-4.11,1.87-1.63,3.14-7.72,3.9-8.84ZM304.93,314.82c3.76-6.02-10.54-24.41-15.93-27.26-3.28-1.74-7.33-.77-10.45-2.54-3.21-4.23,5.96-13.22-2.99-14.99s-6.75,1.31-10.04,4.91c-5,5.47-2.86,1.25-7,9-1.35,2.53-5.9,3.43-6.17,7.57.93,2.68,5.18,2.55,6.1,4.74,1.29,3.1-1.28,5.44.16,8.69.27.6,5.96,7.96,6.56,8.46,1.97,1.63,6.55,2.43,6.79,2.71.35.43.13,3.79.89,5.61.9,2.16,4.6,4.19,4.83,5.7.08.5-.25,6.52-.48,7.09-1.99,5.02-10.33,7.43-11.67,11.37-2.14,6.32,2.62,11.36,8.51,12.61,8.39,1.78,25.39-2.09,27.85-11.29,2.06-7.69-9.21-2.66-12.79-2.27,1.27-2.03,4.06-2.59,5.98-4.5.88-.87,3.93-4.97,4.02-5.99.04-.45-.69-8.62-.87-9.04-1.27-3.09-6.58-4.17-5.14-9.43l11.86-1.15ZM92.59,353.93c4.54.75,10.73-.55,15.5,0-.26,2.61-5.14.49-5.05,3.48.05,1.77,3.99,10.28,5.26,10.85l35.64.52c4.61-8.61-5.67-10.89-9.83-16.28-.22-6.37,10.39-10.48,13.41-15.66,1.17-2,1.63-10.99.27-12.6-1.04-1.23-3.79-1.55-4.5-4-.75-2.59.03-6.12-.65-9.34-.3-1.46-5.41-12.9-6.35-14.63-2.16-3.95-6.76-4.98-8.63-9.37-5.39-4.06-16.19,7.87-2.56,8.08l-1.5,3.98c-5.36-1.76-7.92-7.66-11.13-9.86-5.5-3.78-18.36-4.66-23.42.53l.47,3.42,5.57,2.44c.47,3.48-5.54,5.71-5.96,7.11-.55,1.85,2.01,3.29,1.95,5.74-.11,4.57-5.33,7.52-5.1,12.11s5.71,3.57,3.03,11.92c-1.33,4.15-6.9,7.52-6.81,12.09.07,3.9,6.83,8.87,10.39,9.47ZM170.8,287.29c-3.5-2.9-8.97.59-11.62,3.28l.94,2.88,5.96,2.01c-1.85,3.96-6.08,5.19-9.92,6.61,2.2,3.73-1.3,8.15-1.12,10.34.39,4.78,8.38,3.7,9.59,5.5.72,1.07.26,3.41.98,5.01s3.65,2.7,4.26,4.73c2.95,9.82-7.45,11.79-11.8,17.77-1.28,1.76-1.89,5.09-2.62,5.61-1.86,1.31-8.58.84-9.92,2.85-.83,1.24-.83,3.68.5,4.6,1.53,1.05,35.94.89,36.9-.69v-4.72s-5.86-2.66-5.86-2.66c-.72-3.68,11.94-9.36,13.56-14.4,1.75-5.46,2.23-11.31-2.56-15.04,1.21-1.18,7.13,5.87,8.67,6.82,4.9,3.03,14.42,4.33,15.83-2.83,3.61,2,3.06,5.55,4.63,8.36,3.99,7.14,12.69,6.81,17.85,12.12-3.8,5-10.14,4.08-14.93.95-5.13-3.35-5.55-9.99-13.55-4.45-4.61,3.19-5.82,7.48-7.51,12.54,0,3.91,9.19,2.18,12.38,2.58,4.37.55,17.55,4.81,19.69,4.44,2.56-.44,3.72-2.42,5.74-3.26,3.07-1.27,11.2-3.48,13.12-4.87,2.24-1.62,8.75-9.67,8.81-12.78-.46-4.35-17.24-9.47-21.66-13.21-1.34-1.13-8.13-8.88-8.13-9.93,3.18-8.05,16,3.78,19.59,7.46,4.05,4.15,6.45,12.38,13.46,11.04l.61-10.01c-.92-3.11-4.22-3.46-4.94-5.21-1.2-2.9-.46-6.99-1.35-10.57-.55-2.24-5.75-12.97-7.34-13.68-2.84-1.26-10.05,1.27-13.98-1.51l.03-4.49c-7.56-2.4-20.29-8-27.4-2.39-5.38,4.25,1.09,5.36,2.92,6.84,4.34,3.49-1.89,5.54-2.44,7.75-.38,1.52,1.56,3.54,1.96,5.74.15.82.64,5.66-1.04,5.54-.01-7.6-17.54-26.55-23.75-27.76-5.38-1.05-9.3,1.21-9.75,6.78-2.1-1.05-3.53-4.63-4.8-5.68ZM365.57,286.98h-25.5c-1.31,6.51,2.47,6.32,5.05,9.44,1.71,2.07,2.95,4.69,4.55,6.46,2.14,2.36,6.68,4.59,8.29,7.71,1.82,3.53,1.02,8.23,2.38,11.61,1.66,4.1,7.54,4.93,4.22,12.74-.73,1.72-8.76,8.14-10.78,9.21-3.57,1.89-13.1,5.53-14.7.31,7.26-4.87,10.77-8.59,8.98-17.98-.63-3.28-5.03-4.71-5.77-7.22-.83-2.83.27-6.46-.42-9.58-.16-.74-5.79-12.75-6.33-13.66-1.2-2.02-8.97-9.32-11.17-9.82-3.18-.72-22.43-1.15-22.97,2.23-.71,4.48,3.44,5.27,5.22,7.51s3.05,5.03,4.93,7.06c2.37,2.57,6.92,4.67,8.4,7.6,1.84,3.64.75,7.93,2.39,11.6,1.06,2.38,3.94,3.53,4.52,5.46,3.77,12.54-15.23,12.02-9.55,23.55,2.62,5.32,15.94,9.9,21.33,9.83,1.96-.02,6.71-4.3,9.86-4.16.56.03.46,1.86,1.23,2.06,3.67.94,14.66-2.82,19.09-3.75,6.93-1.45,20.51-.5,6.26-8.75,7.1-6.1,14.05-9.72,10.78-20.78-.63-2.13-4.48-3.81-5.35-6.64s-.22-5.99-.88-9.11c-.36-1.68-4.21-10.8-5.14-12.86-1.72-3.83-7.05-5.97-8.92-10.06ZM403.57,286.98h-27.5c-1.29,6.42,3.92,7.93,7.44,13.05,6.25,9.1,11.8,18.8,18.02,27.96s1.48,10.43,1.45,18.45c0,1.78,1.5,11.9,2.23,12.35,7.14,1.25,10.34-.29,15.35-4.87,1.72-1.56,2.33-3.73,4.56-5.44,4.76-3.64,21.95-8.85,24.41-12.58.29-4.94,5.03-6.78,2.4-11.32-.87-1.5-3.42-3.03-3.67-4.27-.42-2.06,2.62-5.13,2.88-7.86.55-5.81-4.83-8.96-1.58-14.51,1.74,5.58,5.97,9.32,8.92,14.08,1.54,2.49,2.16,5.18,3.56,7.44,3.2,5.17,10.27,11.75,10.08,17.92-.09,2.99-2.12,5.59-2.14,9.03-.01,2.21,1.41,11.03,3.07,12,10.45,6.14,19.09-15.07,29.5-15.51l.94,15.07c8.58,3.08,12.95.52,19.02-5.13.96-.9.96-2.72,2.27-3.98,4.81-4.66,18.95-7.22,23.25-12.46.34-.42,3.6-8.47,3.62-8.95.16-3.67-3.97-5.34-4.45-7.21s1.49-4.67,1.78-6.88c.58-4.47-3.34-16.12-6.37-19.45-.77-.85-7.52-6.86-8.04-6.95-3.87.62-20.46-1.24-22.03.99-.49.7-.42,2.1-.49,3.01-1.69-.23-1.87-2.81-2.99-3.5-3.08-1.89-30.75.11-36.67.12-3.92.01-28.32-1.69-29.33-.63l-.49,4c-1.67-.43-2.27-3.99-2.5-3.99h-24c-1.51,6.1,3.43,6.41,5.86,9.64,2.95,3.94,1.85,9.28,7.07,13.92,1.47,1.31,4.39,1.43,4.95,3.05.9,2.57-.83,5.76-.22,8.19s3.1,3.69,3.12,5.45c.06,4.85-3.33,8.41-7.77,9.72.25-9.11-10.99-16.2-12.6-22.99-.52-2.21.63-3.78.21-6.03-.11-.58-3.72-9.82-4.2-10.89-1.73-3.83-7.05-5.96-8.92-10.06ZM316.93,433.02c-.96-1.6-28.45-1.91-30.37-.17-5.94,5.4,9.07,22.16,11.42,27.6,1.07,2.48.91,4.93,1.86,7.13,1.49,3.45,8.43,7.81,3.99,13-3.54,4.13-9.29-2.13-12.29-2.69-1.74-.32-7.29-.39-8.83.12-1.32.43-1.38,2.32-2.33,2.88-2.13,1.28-5.46.85-6.58,4.25-2.27,5.46,15.15,12.06,19.67,10.75.99-.29.4-2.67,2.18-3.98,4.81-3.57,15.81-4.44,21.15-7.85,2.62-1.67,2.99-3.59,4.92-5.07,3.66-2.81,9.5-2.34,10.04-8.77.1-1.23-1.12-3.78-.66-4.32.65-.75,6.77-1.18,9.04-6.46,1.89-4.38-.25-5.72.16-7.96.22-1.2,2.42-2.38,3.01-3.87.85-2.14.63-4.61,1.43-6.49,1.11-2.62,7.19-2.79,6.23-6.56-1.12-4.39-17.67-2.88-21.48-1.77-1.69,1.33-1.09,9.08-2.43,12.57-.91,2.37-3.21,4.02-3.6,6.47-.51,3.23,3.49,5.54-1.88,9.01l-13.49-20.47,8.94-2.54-.09-4.8ZM345.07,487.84h59.49c2.89,0,9.44-10.5,8.5-13.99-9.27.07-15.71,4.56-25.52,3.99-1.13-.07-2.74.66-2.47-.98,9.16-.22,6.54-7.09,8.45-10.05.62-.96,10.96-4.4,13.05-8.97,1.36-2.98-.94-5.56-.05-6.95.48-.75,2.47-1.35,3.42-2.65,1.37-1.87,1.91-4.07,3.14-5.85,3.46-5.02,11.23-9.81-1.46-10.55-12.36-.72-31.94-1.04-44.08,0-4.59.4-7.86,2.62-8.52,7.48-.82,6.08-1.3,20.29,8.07,16.54l-.59-3.99c6.11-4.38,10.48-8,18.57-5.5-5.39,2.36-2.54,9.25-3.89,11.03-2.64,3.5-9.77,5.71-13.68,7.41l.15,7.05c-1.42,2.26-11.66,3.86-13.58,5.51-1.06.91-.57,2.74-1.64,3.56-2.51,1.94-9.04,1.09-7.35,6.91ZM249.08,434.87h-37.5l-1.52,2.47,19.53,23.51.5,2.99-4.94,1.08c4.03,10.79-11.93,9.4-18.41,12.88-1.16.62-.27,2.46-1.24,3.13-1.33.92-4.49.43-5.98,1.84-2.82,3.77,3.21,3.94,6.02,4.11l64.54-.04-.54-5.97-12.42-17.41c.81-2.33,5.92-3.7,6.69-4.87,1.16-1.76.02-5.39.77-6.69.88-1.55,4-2.77,5.54-4.49,1.71-1.9,2.21-3.63,3.52-5.48.64-.9,2.41-1.25,2.92-2.08,1.37-2.22.43-4.99-1.99-4.99h-23.5c-.91,3.34,2.48,9.95-.68,12.06-3.97,2.65-7.23-1.39-7.23-5.41.72-2.45,7.32-2.17,5.92-6.65Z"/>
  <path d="M32.8,142.85c-.09.22-1.34.31-1.63,1-.86,2.09-2.32,14.32-1.06,15.22,4.34,1.15,5.53-3.84,7.7-4.78,4.93-2.12,18.85-1.74,23.65.92,6.59,3.65,5.26,7.61,7.18,12.81,1.07,2.88,5.8,5.93,6.3,7.77.66,2.4-1.09,4.5-.38,6.25,1.28,3.17,9.25,6.05,9.58,9.57.3,3.19-3.59,4.44-4.59,7.4s-.67,6.26-2.17,9.79c-.52,1.22-2.09,1.15-2.27,1.94-.6,2.65.39,5.94.98,8.55,1.9,3.49,10.82.49,13.87-.38,1.03-2.89-1.31-6.21-.48-8.89.57-1.84,2.87-3.28,3.69-5.39,1.06-2.75.54-6.01,1.64-8.36.82-1.76,3.22-2.12,3.33-2.75.63-3.59-6.88-5.18-8.5-9.49-.75-1.99-.31-5.46-.64-5.86-.28-.33-3.05-.3-4.21-1.03-1.02-.63-1.34-2.58-2.68-3.55-1.71-1.25-13.29-5.52-7.4-9.4s15.68-5.12,22.39-6.11l-8.28-1.2c-5.55-1.28-7.39-10.87-3.27-14.82,3.2-3.07,17.65-4.79,21.53-2.43,3.31,2.02,2.18,15.62-2.98,15.49,4.09,4.32-.22,7.55.02,11.41.27,4.38,6.21,6.77,6.84,9.27.47,1.89-.77,3.35-.74,4.83.13,5.57,8.77,6.87,9.74,10.14,1.24,4.17-3.68,5.11-4.64,8.02-.52,1.55-.07,3.54-.72,5.28-2.59,6.96-8.16,14.08,2.01,17.97.91-2.94,3.66-2.61,5.85-4.12,1.43-.98,1.9-3.26,3.28-3.71,2.07-.68,8.03-.73,10.34-.15-.37-4.48,2.34-7.4,3.56-11.94.57-2.12.08-4.53.65-6.34.61-1.95,3.3-2.47,2.79-4.69-6.81-.64-8.13-8.58-11.03-11.47-.69-.68-6.29-4.6-8.04-5.96-2.01-1.56-6.31-3.03-7.46-5.61-1.35-3.05,3.89-8.81,2.54-12.95,6.67,1.16,21.39-1.81,26.97.52s-.04,8.48,1.19,12.74c.63,2.18,5.12,4.43,6.12,7.02.93,2.39-.66,4.1.11,6.72,1.46,5,9.31,5.7,9.66,9.52.31,3.46-3.43,4.24-4.51,6.49-.33.68-4.09,11.84-4.28,12.71-.72,3.24.53,7.72-.75,10.24-.66,1.32-2.78,1.64-3.46,2.54-1.1,1.46-1.35,3.21-2.48,4.51-4.53,5.22-26.48,8.64-28.59-1.07l-4.43,2.06-70.41-.19-1.64-3.87c-1.14.03.52,3.31-2.99,4.02-2.88.58-32.69.26-34.48-.53-2.13-.94-3.68-4.1-2.92-6.38l11.77-3.22c1.14-2.88-1.41-6.65-.73-9.15.39-1.44,2.76-2.63,3.64-4.44,1.38-2.83.79-5.72,1.67-8.32.78-2.29,3.16-3.13,3.55-5.43-.28-1.23-8.37-3.23-9.08-10.02-.16-1.49.98-3.32.54-4.54-.5-1.38-6.65-6.25-7.3-8.67-.93-3.42,2.29-6.32,2.55-8.89.23-2.27-1.51-5.37.3-8.36-2.06-.33-5.2-.54-6.94-1.57-6.57-3.85,3.61-7.12,6.93-7.94,7.36-1.82,15.03-1.8,22.43-3.37,1.88.89,2.02,2.92,1.28,4.64ZM95.82,143.28c-2.37.51-5.04,2.63-4.79,5.28,6.56,11.18,16.1-7.69,4.79-5.28ZM20.89,154.32c-1.1-1.52-4.42-1.28-5.26.72-.39.92.69,3.53.42,5.39-1.06,7.34-3.4,5.35,2.07,12.17.8,1,2.79,1.2,3.03,2.17.6,2.43-1.31,5.47-.57,7.27,1.69,4.1,11.55,6.08,9.38,12.33-5.69,3.59-3.91,6.33-5.53,11.5s-7.74,9.54,2.68,9.17c-2.97-7.12.76-5.13,2.47-8.01,1.82-3.06,1.73-8.57,2.71-11.29.76-2.09,4.39-1.87,3.82-4.66-3.76-.35-9.7-6-10-9.6-.15-1.79,1.07-3.88.85-4.83-.13-.56-5.4-4.27-6.41-7.55-1.37-4.44,2.98-11.14.35-14.78ZM76.09,191.07c-3.63-.76-8.05-4.99-9.26-8.34-.92-2.56.64-4.01.13-5.95-.37-1.4-5.17-5.63-6.3-7.78-1-1.9-.05-3.97-2-6-3.88-4.04-13.57-.97-18.56-.93l8.28,1.2c2.44.55,12.36,10.78,13.25,12.82,1.03,2.33-1.29,4.17-.07,6.92,1.53,3.44,8.57,4.92,9.39,7.73,1.22,4.16-3.33,4.97-4.35,7.31-1.62,3.73-1.14,10.21-5.23,13.44l.93,2.35,4.78,1.18c-1.46-4.98,1.83-6.25,3.21-9.29,2.3-5.05.67-9.88,5.78-13.22v-1.46ZM63.1,191.07c-2.97-.29-6.96-3.62-8.45-6.05-1.9-3.1-.96-4.71-1.77-7.22-.89-2.74-13.11-11.18-14.75-9.72l-1.06,4.41c.08,1.1,3.82.62,2.93,3.94-.83,3.1-6.34,2.71-5.77,5,1.49,5.91,10.41,6.28,9.93,11.09-.28,2.77-3.99,3.8-4.82,6.28s-3.82,10.9-4.16,12.82c-1.62,9.23,2.37,6.76,6.43,12.41,2.06-4.93,8.08-3,12.37-5.11,1.2-2.77-1.5-6.96-.78-9.23.42-1.31,2.38-1.33,2.95-2.34,3.06-5.38.88-11.9,6.95-14.8v-1.48ZM101.99,180.17l-5.89.38c1.06,4.91,11.27,7.81,10.75,11.83-.46,3.51-3.91,3.85-4.74,5.43-.99,1.87-1.11,6.21-1.95,8.79-.98,3.04-3.74,4.94-3.05,8.43h5.98c-2.28-5.78,3-7.25,4.52-12.97.65-2.44.07-4.53.47-6.31.24-1.08,3.36-1.6,4.01-3.22.68-1.7-7.82-4.99-8.45-7.52l-1.64-4.85ZM155.09,191.07l-3.99-1.01c1.78,4.02-3.86,7.02-4.02,7.7-.66,2.8.05,8.01-.97,11.29,4.13-2.44,3.87-9.49,5.53-12.95.61-1.27,4.57-3.58,3.45-5.03ZM125.09,222.04c1.44,6.85,11.57,6.36,13.97.49-.12-2.81-11.7-1.13-13.97-.49Z"/>
  <path d="M403.57,286.98c1.87,4.1,7.19,6.23,8.92,10.06.48,1.06,4.1,10.31,4.2,10.89.42,2.25-.74,3.82-.21,6.03,1.61,6.79,12.85,13.88,12.6,22.99,4.45-1.31,7.83-4.87,7.77-9.72-.02-1.76-2.53-3.07-3.12-5.45s1.12-5.61.22-8.19c-.57-1.62-3.48-1.74-4.95-3.05-5.22-4.64-4.11-9.98-7.07-13.92-2.42-3.23-7.37-3.54-5.86-9.64h24c.24,0,.83,3.56,2.5,3.99l.49-4c1.02-1.06,25.42.64,29.33.63,5.92-.02,33.59-2.01,36.67-.12,1.12.69,1.3,3.26,2.99,3.5.07-.91,0-2.32.49-3.01,1.57-2.24,18.16-.37,22.03-.99.52.1,7.27,6.11,8.04,6.95,3.03,3.33,6.96,14.98,6.37,19.45-.29,2.21-2.27,5.02-1.78,6.88s4.62,3.53,4.45,7.21c-.02.48-3.27,8.53-3.62,8.95-4.3,5.25-18.44,7.81-23.25,12.46-1.3,1.26-1.3,3.09-2.27,3.98-6.07,5.65-10.44,8.21-19.02,5.13l-.94-15.07c-10.41.44-19.05,21.65-29.5,15.51-1.66-.98-3.08-9.8-3.07-12,.02-3.44,2.05-6.04,2.14-9.03.19-6.17-6.89-12.76-10.08-17.92-1.4-2.26-2.02-4.95-3.56-7.44-2.95-4.77-7.17-8.5-8.92-14.08-3.25,5.55,2.13,8.7,1.58,14.51-.26,2.73-3.3,5.79-2.88,7.86.25,1.24,2.8,2.76,3.67,4.27,2.63,4.54-2.11,6.38-2.4,11.32-2.46,3.73-19.65,8.93-24.41,12.58-2.23,1.71-2.84,3.87-4.56,5.44-5.02,4.57-8.21,6.12-15.35,4.87-.72-.46-2.23-10.57-2.23-12.35.02-8.02,4.92-9.05-1.45-18.45s-11.76-18.86-18.02-27.96c-3.52-5.12-8.73-6.63-7.44-13.05h27.5ZM396.89,303.19c-.55-.36-2.69-.67-2.82.27,4.48,4.66,6.26,11.03,9.56,16.43,2.68,4.39,7.55,7.37,8.99,14.03,1.24,5.75-5.04,13.16-.05,17.99.55-2.73,9.44-7.82,9.43-8.46,0-.32-1.49-1.2-1.65-2.14-.25-1.44.98-3.25.56-5.62-1.05-5.82-5.94-9.28-8.67-13.4-1.54-2.33-3.16-7.82-4.69-9.3s-4.08-1.38-6-2.99c-1.52-1.28-3.96-6.34-4.65-6.8ZM479.07,351.93c5.44-6.94,11.09-6.85,8.72-17.22-1.22-5.33-5.92-8.51-8.38-12.61-4.31-7.2-7.56-21.41-18.35-19.12,4.66,4.48,6.18,10.85,9.35,16.12,2.73,4.53,7.62,7.98,9.18,13.82,1.71,6.43-3.51,12.53-.52,19.01ZM506.06,302.97h-14c1.89,3.33,9.09,4.77,10.9,7.58,2.04,3.17.67,7.55,1.83,10.08,1.02,2.23,4.08,3.6,4.3,5.86.26,2.62-3.23,6.12-2.04,9.45h6.01c.41,6.54-5.08,10.01-1.99,16.99l10.99-9.97-2.95-1.62c4.75-9.69-2.71-13.18-6.26-19.68-1.5-2.74-5.9-18.14-6.79-18.69ZM537.85,303.18c-1.06-.61-5.47-.49-6.79.28l9.98,7.5c.72-.91-2.45-7.35-3.19-7.78ZM528.06,336.95c3.8-1.6,7.75-5.86,6.79-10.27-.29-1.32-2.18-2.57-2.61-4.42-.58-2.56.49-6.36-.68-8.31-.88-1.45-8.18-3.53-9.5-6.98,1.5,5.7-4.16,3.93-3.99,6.42.46,6.6,5.7,8.11,7.71,12.33,1.33,2.79,2.2,8.04,2.27,11.23ZM496.9,316.11c-.32-.53-10.12-5.08-11.19-5.32-.85-.19-2.36-1.33-2.65.69-.81,5.65,13.12,16.38,13.01,23.46,2.12,1.61,4.77-6.45,4.79-7.69.04-2.27-3.05-3.02-3.61-4.99s.31-5.06-.35-6.15Z"/>
  <path d="M156.09,229.03l-.57-7.07c1.28-1.74,9.31-.27,10.44-3.56.97-2.82-.89-5.88-.45-8.45.3-1.73,2.16-1.77,2.86-3.17,1.69-3.4,1.38-8.37,2.9-11.09.92-1.64,3.25-1.21,2.87-3.14-.33-2.45-7.21-5.6-8.53-8.51s.5-5.52-.05-7.03c-.6-1.64-6.19-6.14-7.07-8.92-1-3.18,1.98-5.54,2.29-8.64.21-2.08-1-5.59-.1-8.37-1.92-3.16-9.77.54-7.43-5.33.94-2.35,7.31-3.61,9.82-4.19,4.51-1.04,14.52-3.01,18.81-3.22,1.63-.08,2.72.48,4.22.77-.54,3.33-2.96,5.25-3.76,8.71-.91,3.92,0,8.04-.29,11.62-.2,2.44-2.08,4.54-1.92,7.07.33,5.12,8.16,6.88,6.99,12.56l4.98-2.52c.6-2.16-1.62-1.29-2.43-2.5-2.51-3.74-4.2-10.34,2.44-9.99l-4.06-2.6.06-6.38h31.5c8.73,7.41-8.35,9.18-13.5,12.01l5.66,9.47c.04,4.88-8.02,2.7-6.49,6.84,1.76,4.76,9.69,3.1,9.9,9.16.11,3.15-10.14,2.14-9.04,4.98.39,1.01,10.23,14.83,11.57,16.42,7.01,8.28,13.8,8.14,23.83,5.2,2.04-1.38-.51-6.8-.18-8.49.1-.54,4.31-6.88,5.28-9.6,1.31-3.7-.69-6.26,4.47-8.51.04-.9-9.38-5.81-9.97-11.1-.17-1.53.86-3.32.45-4.45-.66-1.82-5.9-5.53-6.81-9.13-.75-2.96,1.73-5.79,2.13-8.54.31-2.14-1.11-5.45.21-8.23l-7.91-2.11c-.36-.52-.22-2.55.06-3.25,2.26-5.49,27.01-6.92,32.84-6.65.03,3.62-2.86,4.77-3.75,8.72-.98,4.35.06,8.67-.28,12.62-.18,2.12-1.97,4.36-1.89,6.15.15,3.42,6.3,7.17,6.8,9.19.47,1.92-.82,3.38-.76,4.83.22,5.18,9.53,6.67,9.94,10.99.33,3.51-3.6,4.34-4.53,6.46-.83,1.9-.3,4.07-1.01,5.98-1.58,4.23-6.11,11.19-2.26,15.73,1.06,1.24,4.17.65,5.32,4.2.48,1.47.65,5.05-1.07,5.05h-112.49ZM175.08,148.09c-1.17-1.33-6.63,5.82-6.83,6.69-.32,1.42.88,3.03.62,4.56-.37,2.22-2.91,6.45-2.58,8.08.49,2.44,6.26,6.15,6.66,7.3.88,2.61-1.19,4.95.22,7.65,2.18,4.16,8.6,5.38,9.51,8.64,1.19,4.26-4.12,5.27-4.94,7.26-1.47,3.54-2.25,11.66-3.66,15.75h5c-.48-4.66,3.05-8.26,4.69-12.8,1.25-3.47-.56-6.75,4.31-8.69v-1.47c-3.64-.91-9.77-5.75-9.97-9.56-.08-1.61,1.25-3.49.88-4.8-.61-2.15-7.86-4.3-6.71-11.88.62-4.1,1.61-8.73,2.53-12.52.35-1.42.4-2.78.27-4.22ZM249.87,154.31c-.36-.5-2.66-1.22-3.35-1.2-4.14.13-1.35,4.34-1.47,6.42-.3,5.32-5.33,4.77.18,11.9,1.04,1.34,3.26,2.03,3.69,3.3.82,2.4-.57,5.52.68,8.32,1.91,4.29,13.03,5.58,7.96,12-.99,1.26-3.06,1.84-3.27,2.21-.63,1.12,0,3.84-.69,5.81-.87,2.52-5.43,9.37-3.31,10.8l4.78,1.17c-1.03-5.32,2.76-8.14,4.52-12.98.7-1.93.18-4.09,1.01-5.98.68-1.55,3.55-2.34,3.48-4.5-.24-1-9.09-4.1-9.81-10.23-.2-1.65,1.05-3.42.71-4.63-.16-.57-5.84-4.96-6.7-8.4-1.07-4.3,4.43-10.05,1.58-14ZM198.8,200.35c-1.05-.85-7.17-2.88-7.71-2.29l.07,2.91c7.79.77,8.37,13.87,16.93,13.06-3.38-3.12-6.09-11.1-9.29-13.68ZM187.08,221.03c19.99.73,6.5-3.61,2.98-12.99-5.45,2.5-1.68,8.64-2.98,12.99Z"/>
  <path d="M354.57,229.03c-1.28-.37-3.64-4.74-3.03-6.04,1.35-2.86,8.69-2.72,11.39-4.08,1.18-2.45-.97-6.45-.62-8.24.09-.45,3.46-5.35,4.26-7.61s.3-4.49,1.25-6.75c.75-1.8,3.1-2.65,3.25-4.71-.22-.92-7.13-4.02-8.45-7.57-1-2.67.02-4.81-1.49-7.51-2.73-4.9-8.99-6.48-14.05-4.43l4.53,1.95v3.08s-8.54,2.96-8.54,2.96c-1.04,5.98,9.69,7.44,10.05,11.53.32,3.53-3.61,4.34-4.54,6.46-.43.99-4.45,13.54-4.56,14.43-1.45,11.35,9.24,6.42,6.09,16.08l-35.57.53-2.97-3.06c-1.26,1.3-2.05,2.58-4.02,2.96-3.09.59-33,.41-34.49-.47-6.13-8.52,2.79-7.72,8.88-9.64-1.29-7.72,2.27-11.2,4.83-17.66.59-1.5.07-3.46.82-5.18.61-1.41,3.9-2.73,3.49-4.5-4.69-3.2-12.4-6.72-8.99-13.5-5.41.78-4.94-3.4-6.26-4.75-1.79-1.82-11.75-.91-9.68-9.17,3.65-.33,6.65-2.67,9.89-3.61,3.68-1.07,10.41-1.22,13.36-2.67,1.92-.95,1.72-4.84,6.7-2.29,1.81.93,1.1,3.53,3.42,3.58,6.75.16,5.15-4.05,7.21-4.9,8.63-3.56,25.25-1.63,29.93,7.75,3.36-2.16,9.75-2.27,12.7-3.9,1.46-.8-.02-3.39,3.18-4.05,6.24-1.28,18.79-.47,22.59,5.44,1.57,2.44.44,4.94,1.46,7.54.94,2.4,6.93,7.12,7.34,8.75.54,2.14-1.25,3.75-.38,6.2,1.64,4.63,9.17,5.52,9.56,9.62.33,3.51-3.6,4.34-4.53,6.46-.33.76-4.46,13.67-4.56,14.42-1.33,10.08,4.99,6.47,6.62,11.48.48,1.47.65,5.05-1.08,5.05h-35ZM345.06,191.07c-4-1.19-9.37-5.36-9.98-9.62-.22-1.51.87-3.29.45-4.45s-4.96-4.99-5.89-7.01c-1.1-2.38-.24-5.57-2.62-7.38-4.8-3.64-13.45.03-18.94-.54l13.06,3.42c1.17,3.32,7.41,7.32,8.44,9.58,1.34,2.95-.81,5.05-.04,6.95,1.17,2.88,8.67,6.07,9.38,8.74,1.42,5.27-3.79,5.38-4.65,7.98-.51,1.55-.08,3.61-.66,5.33-.71,2.08-4.41,9.86-3.53,10.95h5.98c-2.25-5.19,1.07-5.29,2.23-8.27,1.76-4.53,1.53-12.7,6.77-13.73v-1.96ZM375.91,176.26c-.38-.66-4.46-3.81-5.91-6.61-1.14-2.2-.6-5.16-2.34-6.65-3.34-2.86-10.65-1.25-14.59-.41,0,.63,4.17.6,5.76,1.25,1.44.59,11.96,12.01,12.11,12.88.33,1.9-2.47,2.46-.75,5.67,2.74,5.13,11.02,5.22,9.43,11.64-5.79,3.37-3.48,4.58-5.02,9.05-.87,2.52-5.43,9.37-3.31,10.8l4.78,1.17c-1.09-5.31,3.26-8.97,4.73-13.77.57-1.86-.07-3.93.44-5.56.58-1.87,3.96-1.78,3.85-4.15-3.4-1.95-9.76-5.74-9.99-10.05-.09-1.68,1.5-4.07.82-5.26ZM322.96,218.92c-2.25-8.43,1.02-10.65,3.81-17.68.59-1.5.07-3.46.82-5.18.61-1.41,3.9-2.73,3.49-4.5-3.58-2.31-8.28-5.03-9.55-9.49-.41-1.46.57-2.85-.17-4.71-1.11-2.78-12.96-10.68-15.28-9.29-.25.15.95,3.28-2,4.98l3.58.92c2.18,9.23-12.24,2.14-1.06,12.05,3.73,3.3,9.1,3.21,4.3,9.39-4.12,5.3-3.34,4.85-5.28,11.66-1.25,4.38-4.14,6.53-1.53,12.2.68,1.48,6.03,2.23,6.49,5.76.8-6.1,8.02-3.98,12.39-6.12ZM296.07,215.03c-2.58-5.4.58-5.79,2.05-9.45,2.07-5.16,2.17-9.6,5.96-14.01-1.72-1.88-4.16-2.16-6.01-4.01-3.42-3.43-2.13-9.08-8.99-7.49-.53,6,9.7,7.66,10.05,11.54.32,3.53-3.61,4.34-4.54,6.46-.75,1.72-.23,3.67-.82,5.18-1.64,4.16-5,7.72-3.69,11.8h5.99Z"/>
  <path d="M170.8,287.29c1.27,1.05,2.7,4.64,4.8,5.68.45-5.56,4.37-7.83,9.75-6.78,6.22,1.21,23.74,20.16,23.75,27.76,1.69.12,1.2-4.72,1.04-5.54-.4-2.19-2.34-4.22-1.96-5.74.55-2.21,6.79-4.25,2.44-7.75-1.83-1.47-8.31-2.58-2.92-6.84,7.11-5.61,19.84-.01,27.4,2.39l-.03,4.49c3.93,2.78,11.14.25,13.98,1.51,1.59.71,6.79,11.44,7.34,13.68.89,3.58.15,7.68,1.35,10.57.72,1.75,4.03,2.11,4.94,5.21l-.61,10.01c-7.01,1.35-9.41-6.89-13.46-11.04-3.59-3.68-16.42-15.52-19.59-7.46,0,1.04,6.79,8.79,8.13,9.93,4.43,3.74,21.21,8.86,21.66,13.21-.06,3.12-6.57,11.17-8.81,12.78-1.93,1.39-10.05,3.6-13.12,4.87-2.02.84-3.18,2.82-5.74,3.26-2.14.37-15.33-3.89-19.69-4.44-3.19-.41-12.39,1.32-12.38-2.58,1.69-5.06,2.9-9.35,7.51-12.54,7.99-5.54,8.42,1.1,13.55,4.45,4.79,3.13,11.13,4.05,14.93-.95-5.16-5.3-13.86-4.98-17.85-12.12-1.57-2.81-1.02-6.36-4.63-8.36-1.4,7.15-10.92,5.86-15.83,2.83-1.53-.95-7.46-8-8.67-6.82,4.79,3.72,4.31,9.58,2.56,15.04-1.62,5.04-14.28,10.72-13.56,14.4l5.87,2.66v4.72c-.97,1.58-35.38,1.74-36.91.69-1.33-.92-1.33-3.36-.5-4.6,1.34-2.01,8.06-1.54,9.92-2.85.73-.52,1.35-3.85,2.62-5.61,4.34-5.98,14.75-7.96,11.8-17.77-.61-2.03-3.51-3.07-4.26-4.73s-.26-3.94-.98-5.01c-1.22-1.8-9.21-.72-9.59-5.5-.18-2.19,3.32-6.61,1.12-10.34,3.84-1.42,8.07-2.64,9.92-6.61l-5.96-2.01-.94-2.88c2.65-2.69,8.12-6.18,11.62-3.28ZM185.09,312.95c5.46-.92,8.94,2.03,13.54,4.02,7.5-.09-3.49-17.32-9.54-14.01-.15,2.02.4,4.39-.19,6.32-.75,2.49-3.5,1.74-3.81,3.67ZM222.98,303.08l-3.89-.1c3.66,6.8-3.33,10.89-1.59,17.06.67,2.37,2.9,2.27,4.07,3.9,1.08,1.5,1.17,3.64,2.1,4.92,2.34,3.23,6.32,6.47,10.42,7.07-3.79-5.69-13.14-13.36-12.91-20.39.13-3.91,3.63-8.47,1.8-12.47ZM247.91,308.13c-.85-.53-3.3.03-4.87-.61-2.82-1.15-5.26-4.06-8.96-3.54l13.51,9.97c2.79,1.16,1.05-5.38.32-5.83ZM180.42,324.61c-2.82-3.11-3.04-4.91-8.33-5.65-.03,3.67,4.6,3.7,5.6,6.97.28.93-.5,9.21-.81,10.32-.93,3.26-8.94,7.56-10.8,10.68,5.68,1.32,4.47-1.49,6.93-3.53,2.03-1.69,7.89-5.3,8.96-7.05.78-1.27,1.92-7.77,1.72-8.95-.26-1.56-2.4-1.82-3.28-2.78ZM250.08,340.96l-13.99-4c1.46,2.72,5.61,1.45,6.57,4.9,1.16,4.14-.28,5.91-2.58,9.06,1.19,1.07,10.97-8.62,10-9.97Z"/>
  <path d="M530.06,24.18c-1.03,6.66-1.83,11.75-10.01,9.99-2.1,7.78,6.38,8.31,7.8,14.71,1.88,8.47-1.84,7.8-6.48,10.61-.55.33-.8,1.83-1.97,2.46-2.44,1.33-6.04.9-8.34,2.69l20.94,9.05c3.87,2.55,11.35,15.13,6.11,19l-16.05,8.45,11.38,6.91c2.31,3.06-1.59,4.38-4.13,4.83-2.94.53-9.68,1.21-12.71,1.28-4.61.11-17.98-.57-21.78-2.3-4.41-2.01-5.25-7.73-7.02-9.47s-10.79-1.46-12.33-7.22c-.5-1.86,2.7-9.67,2.22-14.38-.51-5.03-3.42-9.05-4.43-12.34-2.44-7.97,3.97-8.73,3.7-10.64-3.28-8.57-16.57-15.15-13.69-24.92,2.08-7.07,15.77-9.95,22.41-10.57,14.25-1.34,30.04,1.33,44.37,1.87ZM479.06,29.18c-6.61,1.17-12.91,8.89-4.49,12.97l-.37-8.3,4.86-4.67ZM504.7,45.52c-1.01-1.14-3.4-1.68-4.14-3.36-1.6-3.59,1.02-8-4.23-10.77s-17.5,2.52-13.16,9.17c.94,1.44,2.82,1.85,3.88,3.11,5.1,6.01,6.97,13.31,16.48,11.46,6.55-1.27,4.28-6.08,1.17-9.61ZM511.96,34.27l-4.91.42c.42,8.85,7.46,8.69,8.82,14.24.71,2.93-1.34,4.82-.31,7.22,11.35-6.24-.86-10.19-2.79-14.27-.87-1.83.36-5.43-.8-7.61ZM499.06,78.14h16.5c2.77,0,8.54,5.9,9.29,8.71.6,2.24-1.01,5.43,1.72,5.32,4.82-.21,6.39-2.28,4.7-6.74-3.17-8.41-21.72-11.44-29.42-8.97-1.06.34-3.02.24-2.79,1.69ZM499.76,86.81c-2.62,1.76-5.59.48-7.69,2.82-.01,2.52,23.38,4.38,25.96,0-3.33-4.58-11-7.08-16.35-5.33-1.31.43-1.41,2.17-1.92,2.51Z"/>
  <path d="M541.27,211.26c-.76,1.12-2.03,7.2-3.9,8.84-2.77,2.41-10.53,2.29-13.63,4.11-1.82,1.07-1.42,2.8-4.21,3.79-11.96,4.22-29.53-.54-37.44-10.49-6.22-7.82-5.94-21.58,3.96-25.96-3.85-2.99-7.86-3.2-9.58-8.48-1.42-4.36,2.86-4.36,4.59-7-4.64.9-7.25-8.58-5.55-11.05.27-.4,7.61-4.1,8.55-4.45,2.2-.82,18.3-5.55,19.48-5.6,5.18-.22,20.38,5.14,24.46,8.65,1.79,1.55,9.75,10.07,11.07,11.92,1.75,2.46,2.14,5.72,4.59,8.4s7.55,4.16,8.25,7.84c.61,3.18-4.09,7.99-3.42,12.19-2.11,5.44-6.47,6.16-7.22,7.28ZM533.06,209.04c8.34-1.4,8.11-10.3,10.98-16.41-9.92-6.97-15.23-18.78-24.96-26.07-1.88-1.41-3.41-2.85-6.02-2.47l24.86,27.69-4.85,17.26ZM488.05,166.07l-4,1.01c-.65,4.33,5.59,7.17,5.88,8.61.65,3.26-4.92,4.58-4.77,6.69.85,2.5,3.05,4.73,5.89,4.67-2.09-5.35-3.09-6.58,1.99-10.49-4.01-1.79-4.2-6.57-4.99-10.49ZM493.05,195.06c-14.04,4.79-5.6,24.11,7,24.97-9.58-7.93-8.39-13.47-7-24.97Z"/>
  <path d="M469.27,197.24c-.72,1.28.16,4.05-.46,6.04-1.58,5.01-4.58,6.59-3.8,13.29.65,5.58,11.19,6.64,5.4,12.3l-34.87.18-2.49-3.02c-2.21,1.5-2.49,2.66-5.43,3.05-3.92.52-29.98.59-32.85-.25-2.49-.73-3.36-3.93-2.59-6.16.87-2.53,9.29-3,11.9-3.65-3.52-7.05,1.29-11.75,3.51-17.96.65-1.82.15-3.89.67-5.33.75-2.09,4.39-1.87,3.81-4.66-5.11-1.78-12.25-7.13-8.99-13-5.42.76-4.43-3.13-6-4.48-2.38-2.05-12.49-1.62-9.91-8.89,1.29-3.63,20.64-5.37,24.14-6.64,1.36-.49.93-2.83,3.26-3.07,4.07-.42,4.76,6.52,9.89,2.98,1.8-1.24,1.3-2.99,4.15-3.85,7.05-2.13,20.62-1.73,25.96,3.96,3.25,3.46,1.94,6.35,3.6,10.39s4.82,4.21,6.03,7.04-.75,5.05.34,7.51c1.89,4.28,12.18,5.16,8.43,11.39-1.12,1.87-3.48,2.44-3.7,2.83ZM448.83,163.31c-.67-.97-5.68-2.4-7.23-2.3l-12.53,2.05c4.54.2,8.68-1.05,12.51,1.99.7.55,8.73,9.43,9.01,10.05,1.46,3.27-2.23,4.96,1.62,9.32,2.52,2.85,9.1,3.95,7.71,8.92-.53,1.89-3.64,3.14-4.34,4.73-.83,1.9-.3,4.07-1.01,5.98-1.26,3.39-3.83,6.34-3.51,9.98l6,1c-1.92-4.97,1.79-7.17,3.51-11.99.77-2.15.3-4.49,1.25-6.75.67-1.6,3.6-3.27,3.25-4.71-2.57-2.29-7.14-4.13-8.45-7.57-1.22-3.22.43-5.57-.09-7.01-.37-1.01-4.58-4.38-5.86-7.04-1.03-2.14-1.28-5.86-1.83-6.67ZM441.51,176.65c-2.17-2.79-10.52-9.22-13.9-8.65l-2.54,5.05,3.86,1.15c1.54,4.5-2.39,4.79-5.86,5.87.18,4.77,9.68,7.68,10.05,11.53.33,3.5-3.57,4.32-4.53,6.46-.89,2.01-.42,4.56-1.2,6.8-.94,2.69-3.21,5.15-3.41,7.66-.77,9.26,4.52,6.22,7.1,12.49,1.87.18.52-2.39,1.95-3.52,1.29-1.03,10.61-2.04,11.01-2.49.34-3.12-1.76-6.06-.79-9.24.4-1.29,2.21-2.35,2.87-4.16,1.06-2.93,1.45-7.33,2.49-9.5.65-1.36,3.22-2.67,3.42-3.59.45-2.02-8.83-4.84-9.68-11.07-.4-2.89,1.73-1.48-.84-4.78ZM414.9,180.23l-4.34-.17c-2.25,6.29,10.05,7.05,9.54,12.44.28,2.7-4.44,4.04-4.84,4.75-.69,1.25.11,4-.48,6.02-.78,2.63-2.57,6.13-4.44,8.24l.94,2.34c8.68,2.29,3.99-.84,4.9-4.08.3-1.07,3.41-5.03,4.39-7.72.64-1.76.21-3.72.72-5.27.67-2.03,4.18-3.48,3.77-5.21-4.97-2.96-8.66-5.31-10.16-11.35Z"/>
  <path d="M334.96,2.31c-.35,3.41,3.49,6.02,3.92,8.59.21,1.27-.75,2.68-.56,3.66.28,1.46,2.63,1.96,2.59,3.96-.05,2.59-3.03,3.04-4.37,4.59-3.6,4.19-7.42,9.57-6.49,15.5.58,3.67,9.31,5.82,9.1,16.04-.07,3.29-1.76,6.38-1.07,9.96.44,2.29,2.87,3.46,3.74,6.27,1.1,3.54.26,11.05.71,12.22,1.68,4.33,10.99,1.93,9.46,8.42-.56,1.61-4.11,2.05-5.7,2.33-11.9,2.12-24.43,2.4-35.85,3.14-12.18.79-19.77-1.08-25.21-12.53-1.75-3.69-2.37-8.39-3.94-12.05s-5.13-4.79-4.97-10.49c.19-6.68,6.31-9.2-.26-16.26-1.37-1.47-4.34-2.34-4.86-4.21-.29-1.05.83-7.53,1.36-8.3.7-1,2.9-1.07,4.02-1.98,8.61-7.02,18.78-8.52,29.97-9.08,2.07-.1,9.4,2.02,8.03-.92-2.81-2.44-6.67-3.94-6.47-8.4.65-2.03,4.19-1.09,5.47-2.58.94-1.09.71-3.79,1.7-4.79,1.28-1.29,18.46-4.16,19.67-3.1ZM324.07,25.18c-5.81-.53-9.7,11.39-7.49,14.98.5.82,3.96,2.73,5.47,4.52,7.83,9.33.87,12.26,2.41,19.5.59,2.77,2.78,4.11,3.69,6.37,1.42,3.51.31,10.41,6.4,9.56,4.37-.61-4.21-13.92-4.43-16.6-.52-6.13,3.91-8.71-.6-15.32-3.7-5.43-8.79-3.79-7.51-13.58.41-3.1,3.23-5.63,2.05-9.44ZM301.81,30.34c-.53.08-9.3,4.02-9.7,4.36-6.56,5.5,4.81,9.6,5.81,15.19.71,3.93-2.55,8.3-1.44,13.31.3,1.35,9.69,16.39,11.09,17.94,2.71,3.01,5.47,5.32,9.88,4.92,2.87-5.58,5.97-7.76,3.35-14.15-1.09-2.66-3.07-3.34-3.62-7.36-1.25-9.02,4.06-10.5-3.1-18.89-1.18-1.39-3.86-2.14-4.51-3.49-1.42-2.96.13-13.04-7.75-11.84ZM287.06,45.17l-2,.51c5.44,6.63-2.76,12.66-.54,19.52.75,2.32,3.13,3.31,3.98,5.02,1.48,2.98,1.93,7.73,3.36,10.64,2.82,5.72,9.32,11.85,16.21,11.26l-7.44-6.04c-3.12-8.61-13.63-18.98-12.28-28.17.8-5.44,3.68-6.43-1.29-12.74Z"/>
  <path d="M92.59,353.93c-3.56-.59-10.32-5.57-10.39-9.47-.08-4.57,5.48-7.94,6.81-12.09,2.68-8.35-2.79-7.19-3.03-11.92s4.99-7.54,5.1-12.11c.06-2.44-2.5-3.89-1.95-5.74.41-1.4,6.42-3.63,5.96-7.11l-5.57-2.44-.47-3.42c5.06-5.19,17.92-4.31,23.42-.53,3.21,2.21,5.77,8.1,11.13,9.86l1.5-3.98c-13.63-.21-2.83-12.14,2.56-8.08,1.87,4.38,6.47,5.42,8.63,9.37.95,1.74,6.05,13.17,6.35,14.63.67,3.23-.11,6.76.65,9.34.71,2.45,3.46,2.76,4.5,4,1.36,1.61.9,10.6-.27,12.6-3.02,5.17-13.63,9.28-13.41,15.66,4.15,5.39,14.44,7.67,9.83,16.28l-35.64-.52c-1.27-.57-5.21-9.09-5.26-10.85-.09-2.99,4.79-.87,5.05-3.48-4.77-.55-10.96.75-15.5,0ZM133.08,306.97c-3.14-.93-1.43,2.57-2.9,3.56l-5.08.93c2.69,2.65,3.65,6.31,5.56,9.44,1.04,1.71,3.7,2.96,4.23,4.76s.54,8.76,0,10.58c-1.87,6.32-13.91,6.24-12.79,14.69l4.89-.11c-.05-7.94,12.44-11.28,13.89-17.58,1.78-7.74-2.99-6.94-4.86-11.71s-.14-9.93-2.94-14.56ZM104.11,340.91c11.09,2.94,25.75.08,23.43-14.02-6.18-4.26-5.43-11.54-13.93-12-5.41-.3-7.73.82-10.33,5.58l4.87,6.04-4.04,14.4ZM106.09,346.95c-7.17-.44-11.51-1.91-10-10l-5.87,6.5c2.98,3.83,7.76,4.51,12.36,4.52,1.16,0,3.76.67,3.51-1.02Z"/>
  <path d="M365.57,286.98c1.87,4.1,7.2,6.24,8.92,10.06.92,2.06,4.78,11.18,5.14,12.86.67,3.12,0,6.27.88,9.11s4.72,4.51,5.35,6.64c3.28,11.06-3.68,14.68-10.78,20.78,14.25,8.25.67,7.3-6.26,8.75-4.42.93-15.42,4.69-19.09,3.75-.77-.2-.67-2.03-1.23-2.06-3.15-.14-7.9,4.13-9.86,4.16-5.39.07-18.71-4.5-21.33-9.83-5.68-11.53,13.33-11.01,9.55-23.55-.58-1.93-3.46-3.08-4.52-5.46-1.64-3.67-.55-7.96-2.39-11.6-1.48-2.93-6.03-5.03-8.4-7.6-1.88-2.03-3.15-4.82-4.93-7.06s-5.93-3.03-5.22-7.51c.53-3.38,19.79-2.95,22.97-2.23,2.2.5,9.97,7.8,11.17,9.82.54.91,6.16,12.92,6.33,13.66.68,3.12-.42,6.75.42,9.58.74,2.52,5.15,3.94,5.77,7.22,1.79,9.39-1.71,13.1-8.98,17.98,1.59,5.22,11.12,1.58,14.7-.31,2.02-1.07,10.05-7.48,10.78-9.21,3.33-7.8-2.56-8.64-4.22-12.74-1.36-3.37-.56-8.08-2.38-11.61-1.61-3.12-6.15-5.34-8.29-7.71-1.6-1.77-2.83-4.38-4.55-6.46-2.57-3.12-6.36-2.93-5.05-9.44h25.5ZM329.87,303.18c-.8-.47-5.74-1.04-4.79,1.28l8.98,7.51c.51-1.53-3.77-8.54-4.19-8.78ZM367.87,303.18c-.79-.45-4.08-.64-4.79.28,1.94,3.81,5.86,5.76,8.98,8.5.8-.98-3.77-8.54-4.19-8.78ZM336.06,351.95c-14.62-5.89-1.16-10.29,2.27-15.23,5.59-8.04-4.24-12.56-9.26-17.75-.18,3.22,4.04,4.15,4.79,6.7.51,1.76.54,7.9.18,9.76-1.05,5.48-10.79,8.4-9.87,11.83,2.28,3.57,5.21,5.28,9.4,5.68,1.06.1,2.76.58,2.48-.99ZM372.08,323.96l.84,11.3c-1.93,2.8-4.25,5.01-6.77,7.27-1.57,1.41-.88,1.07.42,2.39,8.53-6.63,18.76-11.85,5.51-20.96Z"/>
  <path d="M568.07,156.08c13.09-6.45,27.21-3.37,36.95,7.52,5.18,5.79,8.31,10.86,11.59,17.4,2.31,4.6,8.98,7.07,9.97,9.06,2.03,4.08-1.89,5.66-2.98,8.05-1.46,3.19-2.14,7.78-5.09,10.9-1.82,1.92-4.57,1.57-5.24,2.26-.26.26-1.75,3.65-3.6,5.9-.67.81-.36,2.22-1.28,2.96-4.84,3.88-29.69,4.5-36.33,1.92.8,4.8,8.62,3.52,6.95,9.94l-32.3.9-1.58-1.46c-1.33-4.87,3.13-4.32,4.59-5.71.7-.67,5.67-6.28,5.85-6.69.76-1.79-1.02-7.02-.34-9.22.4-1.29,2.04-2.06,2.55-3.52.86-2.46,2.19-10.48,2.49-11.01.4-.72,4.27-1.4,3.78-3.69-.23-.99-9.08-4.1-9.81-10.22-.21-1.79,1.29-4.09.69-5.12-.19-.33-2.15-.63-2.91-1.59-1.51-1.93-2.68-6.04-4.99-7.05s-8.04.53-6.86-3.86,12.02-3.42,15.61-5.4c2.6-1.43,2.14-3.81,6.19-4.81,3-.75,5.74-1.23,6.09,2.57ZM606.06,209.04c8.84-1.87,8.1-11.24,12.97-16.49-2.13-2.85-5.91-4.18-7.99-6.99-1.81-2.45-1.98-5.08-3.53-7.46-1.05-1.61-11.53-13.07-12.95-14.04-3.65-2.49-8.19-3.18-12.5-2.98l8.02,4.46c7.27,4.21,10.66,14.35,15.34,19.15,2.59,2.66,9.04,4.35,7.5,9.64-.35,1.21-2.05,1.94-2.33,2.74-.67,1.91-.24,3.74-.75,5.24-.74,2.17-4.18,3.77-3.76,6.72ZM572.26,172.87c.43.75,3.84.97,3.83,3.7-6.84,7.18,1.86,7.94,5.53,12.41,4.34,5.29-1.76,6.13-3.05,9.09-1.07,2.46-.53,6.51-2.37,9.32,1.6,2.74,6.97,6.39,10.13,5.51,1.52-.43,2.41-2.62,3.79-3.29,2.51-1.22,5.74-1.44,7.87-3.12,4.31-3.4,3.85-9.54,6.99-13.81-11.66-7.53-16.73-26.61-32.93-25.61.23,1.67-.55,4.48.21,5.8ZM568.04,187.06c.34-2.01-1.72-2.63-2.01-4.56-.48-3.13,2.6-6.93-2.97-7.43-1.46,5.64-.8,9.6,4.98,11.99ZM563.06,220.03c7.4.59,2.24-7.05,3.14-10.26.58-2.1,6.55-14.34,7.87-16.2,1.13-1.58,1.38-2.74-.53-3.5-2.08-.84-1.39,2.84-2.42,4.55-.84,1.4-3.13,2.07-3.83,4.16-.45,1.33,0,3.12-.53,4.46-2.35,5.91-4.96,9.83-3.69,16.79Z"/>
  <path d="M125.97,25.31l-1.9,13.31c.54,3.44,9.13,6.13,9.1,15.04-.01,3.79-2.13,7.54-.86,11.78.44,1.47,2.51,2.65,3.31,4.68.97,2.48,1.05,6.26,1.52,8.97,11.05-2.07,17.57,10.51,5.18,14.76-6.11,2.1-16.35,4.02-22.46,2.02-1.48-.48-2.3-2.29-3.37-2.51-3.49-.72-15.83,3.75-20.89,3.84-2.43.04-7.95-.89-9.89-2.18-1.29-.86-5.05-9-5.38-10.61-.79-3.81.38-8.08-.28-11.71-.43-2.38-2.43-3.43-2.39-6.67.05-5.21,2.29-6.04,6.19-8.64l7.26-2.23c-8.41,1.22-11.84-4.85-16.45-10.05-2.9-3.27-5.68-3.34-6.88-9.18-.39-1.88,3.07-8.35,4.38-9.23,1.56-1.05,14.83-3.97,17.6-4.39,12.09-1.87,24.89-2.12,36.24,2.99ZM84.83,28.35c-5.23.06-12.82,7.1-5.7,10.32,6.01,2.72,7.79-4.23,7.9-8.9l-2.21-1.42ZM103.09,31.18l-8.05.63-1.84,8.71c4.46,3.9,9.97,8.44,3.9,13.63l12.98-5.48c-.74-3.39-6.05-4.83-6.77-7.2-.8-2.62-.87-7.56-.2-10.29ZM117.09,31.18c-6.1-1.71-8.23,4.52-5.95,9.19.88,1.81,5.94,3.92,7.65,8.59,2.18,5.97-.9,8.49-.48,13.4.39,4.55,3.25,5.92,4.52,9.55,1.56,4.43.48,8.32,1.16,12.63l5.1.6c-.17-3.95,1.26-7.53-.06-11.41s-4.63-5.77-4.87-11.21c-.26-5.88,3.77-7.68-.61-14.31-1.31-1.98-6.29-5.26-6.44-5.78-.77-2.56-1.27-8.8,0-11.25ZM106.82,62.38c-2.5-.03-7.62,2.35-7.36,5.24.07.76,1.52,1.8,1.61,3.11.17,2.5-1.21,6.01.53,8.39,2.5,3.43,16.03,2.04,11.94-7.94-.22-.53-4.12-7.28-4.42-7.61-.76-.84-1.11-1.19-2.31-1.2ZM91.09,63.15c-7.82.56-3.3,5.03-2.94,8.43.77,7.28-2.37,10.4,2.5,17.48,4.27,6.2,12.55,1.18,18.43,1.05l-8.74-1.74c-7.69-4.03-6-9.67-7.53-16.45-.6-2.66-3.58-4.77-1.73-8.77Z"/>
  <path d="M170.05,2.24c.15,1.29-.02,2.76.5,3.97.98,2.28,4.76,10.41,4.61,12.42-.23,3.04-4,3.07-5.06,5.54,7.97-.42,21.87-3.52,28.36,2.15,4.1,3.57,3.31,8.94,5.78,13.21,3.32,5.72,10.97,8.11,9.86,17.63,1.14.1,2.6-3.11,2.76-3.77,1.57-6.79-7.48-9.38-7.8-12.75.39-1.93,1.75-6.84,3.06-7.93,1-.84,3.13-.79,4.34-1.66,6.91-4.92,11.53-6.46,20.24-7.76,15.03-2.24,34.64-3.87,26.48,17.74,12.25,4.83,6.34,18.54-6.04,10.59-4.65-2.99-15.33-17.47-18.81-18.22-3.85-.82-12.04,1.02-10.99,6.15.37,1.82,6.57,5.84,7.52,9.36,1.41,5.28-2.12,9.33.03,14.97.92,2.41,10.07,13.49,12.29,14.69,3.25,1.75,8.51,1.12,11.98.13,8.09-2.3,8.38-12,18.98-8.08,3.8,4.77,1.05,7.55.23,11.3-.71,3.24.21,6.52-2.83,9.16-1.92,1.67-7.72,2.99-10.41,3.59-14.34,3.2-32.92,4.96-41.48-9.58-3.03-5.15-2.99-12.76-8.54-15.94-.38,2.95.54,6.69-.02,9.48-.44,2.2-2.54,2.95-2.75,4.13-.18,1.03.87,2.41.59,3.67-1.22,5.36-9.27,7.11-13.79,8.24-9.7,2.43-31.6,5.81-39.56-1.51-5.47-5.03-1.48-14.91-3.73-20.26-1.42-3.37-4.16-3.57-4.65-9.38-.66-7.85,4.42-9.37-2.55-17.39-2.2-2.53-4.71-2-5.47-6.52-1.24-7.42,3.17-12.71,6.93-18.42-3.71,1.63-7.67-4.65-6.91-7.34.88-3.14,7.28-2,8.48-3.62.67-.9-1.88-4.01.4-5.57l17.99-2.42ZM163.09,22.19c-5.61-2.51-13.17,10.44-12.84,14.21.44,5.01,8.1,8.65,9.44,14.7.95,4.3-1.33,8.65-.53,13.49.54,3.25,2.86,4.2,3.87,7.12,1.58,4.57.19,8.44.97,12.82l4.55.64c1.38-4.08,1.92-9.17.29-13.26-1.07-2.69-4.15-4.5-4.5-8.49-.48-5.42,3.93-8.47-.22-14.77-1.37-2.08-5.64-4.64-6.48-6.51-.47-1.04-1.59-7.29-1.61-8.54-.02-1.74,1.63-1.14,2.02-2.16s-.11-2.71.57-4.24c.8-1.81,3.88-2.88,4.49-5.01ZM256.07,37.17c3.56-9.33-3.55-9.5-10.99-9.98,1.78,1.56,8.4,12.18,10.99,9.98ZM206.85,78.86c.58-.62,1.12-6.45.96-7.09-.29-1.2-1.96-1.92-2.47-3.38-2.32-6.62,2.08-12.01.2-17.18-1.33-3.67-6.47-6.57-8.47-9.53-3.79-5.64-3.63-14.82-13.99-13.49-.07,1.55,1.88,1.13,2.88,2.59,1.8,2.61,2.71,6.56,4.67,9.32,2.07,2.91,6.08,5.16,7.65,8.34,3.2,6.49-.31,10.39,1,16,.57,2.43,2.84,3.69,3.76,6.23,1.1,3.01,1.11,6.32,1.04,9.47.09.12,2.49-.99,2.75-1.27ZM183.4,42.86c-5.25-6.37-1.14-9.73-13.69-8.56-1.68.16-5.7.32-5.65,2.37.16,5.6,7.45,7.53,8.81,12.21,1.46,5.01-1.39,10.12-.75,14.7.44,3.14,3.14,4.57,4.15,7.9,1.61,5.33-1.1,13.18,3.25,16.74,2.87,2.35,10.8,1.82,13.17-.97.33-.39,3.91-9.03,3.96-9.54.52-5.22-3.24-7.42-4.5-11.12-1.66-4.85,1.07-10.05-.28-14.7-1.06-3.64-6.69-6.85-8.47-9.01ZM262.33,84.31c-.21.24,1.44,2.67-2.98,3.6-7.62,1.6-15.2-.38-20.76-5.78-1.64-1.59-10.83-15.41-11.55-17.43-2.42-6.8,2.56-11.92-1.94-16.54l-3.86,15.25c8.66,14.04,10.9,29.64,31.3,28.73,5.95-.26,17.76-2,16.54-10-.55-.58-6.18,1.53-6.74,2.17Z"/>
  <path d="M365.07,59.15c-1.34,1.19,8.57,13.13,9.97,14.52,6.22,6.15,11.21,7.67,19.85,4.79,4.57-1.52,10.8-10.9,15.22-7.88s.19,9.07-.6,11.5c-.57,1.78-.17,3.74-.68,5.32-2.39,7.38-25.49,10.33-32.26,9.71-16.09-1.47-16.01-13.01-21.31-24.67-1.25-2.76-4.22-4.33-4.76-8.24-1.03-7.45,5.87-10.03-1-17.98-4.36-5.04-6.83-2.79-4.25-12.36,3.2-1.76,5.99-5.74,8.79-7.21,8.54-4.48,35.55-9.34,40.9,1.15,1.87,3.67,1,9.29,2.64,12.35.75,1.4,2.84,1.84,3.88,3.11,3.85,4.69,7.13,10.13,3.1,15.89h-39.5ZM388.06,35.16c.77-5.12-4.22-8.43-8.99-7.98-.09,1.57,1.93,1.1,2.91,2.57,1.83,2.74.31,6.49,6.08,5.41ZM375.07,35.17l-5.51-2.49-9.49,2.49h15ZM383.07,51.16h-18c-.01,4.69,10.77,3.2,14.24,2.71,1.61-.23,4.49-.19,3.76-2.71ZM396.83,86.82c-1.07,1.18-3.66,1.23-5.22,1.35-14.05,1.07-20.63-7.03-28.53-17.03,2.08,8.54,6.78,19.61,16.57,20.89,5.57.73,21.16-.85,19.92-8.89-2.78.56-2.21,3.09-2.74,3.68Z"/>
  <path d="M418.06,96.12l.12-3.88c2.93-.55,11.07-2.38,11.65-5.72-1.58-4.37.65-8.45-.83-12.79-1.19-3.5-4.57-5.59-4.89-10.19-.53-7.52,5.28-8.23-2.04-16.87-1.46-1.72-3.9-2.56-4.9-4.11-.82-1.27-.95-4.07-1.2-4.29-1.01-.86-9.54,1.78-8.92-4.52.04-.41,2.74-6.8,3.01-7.09,2.27-2.43,7.17-.73,10-1.99,1.76-.79,2.22-3.19,3.3-4.19s3.58-1.12,4.29-2.28c.89-1.45-2.61-6.25,3.32-7.12l-.79-6.78c13.09-4.8,27.13-8.28,36.34,4.93.62.9,4.56,8.96,4.55,9.49-.06,3.75-15.3,8.14-19.01,6.47,2.07,4.24-1.14,8.71-2.97,12.51l-12.02.48c-.28,3.06,3.37,3.65,4.99,5.5,7.8,8.92,1.87,11.62,3.04,19.9.52,3.7,4.05,5.16,4.76,8.28,1,4.43-.73,9.13,1.13,13.85,1.16,2.93,5.07,4.93,5.67,7.37.29,1.17-1.85,3.05-2.1,3.05h-36.5ZM462.06,19.17c-2.33-9.32-11.61-15.5-21-11.97l2.01,4.47-7.01,2.53c1.73,2.3,2.62,3.17,1,5.98,3.62-.1,6.86-1.99,10.5-2.06,5.31-.11,9,3.41,14.5,1.06ZM430.02,38.22c-.98.15-7.02-1.12-5.95,1.44,4.81,5.01,9.22,7.24,9.07,15-.06,3.29-1.76,6.38-1.07,9.96.52,2.69,3.02,3.13,3.75,5.26,2.43,6.98-3.01,16.74,7.23,15.25-1.85-3.14.13-5.6-.21-9.19-.44-4.71-4.06-6.8-4.69-11.38-1.31-9.48,3.95-9.82-3.45-19.05-1.69-2.11-5.68-2.36-4.69-7.3Z"/>
  <path d="M249.08,434.87c1.41,4.48-5.2,4.19-5.92,6.65,0,4.02,3.26,8.06,7.23,5.41,3.16-2.11-.23-8.71.68-12.06h23.5c2.42,0,3.36,2.76,1.99,4.99-.51.83-2.28,1.18-2.92,2.08-1.32,1.84-1.82,3.57-3.52,5.48-1.54,1.72-4.66,2.94-5.54,4.49-.74,1.3.4,4.93-.77,6.69-.77,1.17-5.88,2.54-6.69,4.87l12.42,17.41.54,5.97-64.54.04c-2.81-.16-8.84-.33-6.02-4.11,1.48-1.41,4.65-.92,5.98-1.84.97-.67.08-2.5,1.24-3.13,6.48-3.49,22.43-2.09,18.41-12.88l4.94-1.08-.5-2.99-19.53-23.51,1.52-2.47h37.5ZM233.92,440.04c-3.74-1.87-8.15-1.42-11.84.33,4.09,5.83,9.32,10.69,13.96,16.02,3.42,3.93,6.29,6.95,9.56,10.43,1.93,2.05,6.77,7.86,6.48,10.47-.2,1.8-2.63,3.25-2,5.55h10.99c-2.68-2.47-3.56-6.14-5.56-8.93-4.52-6.3-12.76-9.92-2.44-17.04-11.59,2.66-17.53-6.89-19.16-16.83ZM243.08,475.85l-10.96,2.46c1.81,8.51,8.71,2.53,10.96-2.46ZM225.08,482.83l-2.47-4.89-6.53,1.92v2.98s9,0,9,0Z"/>
  <path d="M304.93,314.82l-11.86,1.15c-1.43,5.26,3.88,6.35,5.14,9.43.17.42.91,8.59.87,9.04-.09,1.02-3.14,5.12-4.02,5.99-1.92,1.91-4.71,2.47-5.98,4.5,3.58-.39,14.85-5.43,12.79,2.27-2.46,9.2-19.46,13.07-27.85,11.29-5.89-1.25-10.65-6.29-8.51-12.61,1.34-3.94,9.68-6.35,11.67-11.37.23-.58.55-6.59.48-7.09-.23-1.51-3.93-3.54-4.83-5.7-.76-1.82-.54-5.19-.89-5.61-.23-.28-4.82-1.08-6.79-2.71-.6-.5-6.29-7.86-6.56-8.46-1.44-3.25,1.14-5.59-.16-8.69-.91-2.19-5.17-2.06-6.1-4.74.28-4.14,4.82-5.04,6.17-7.57,4.14-7.75,2-3.53,7-9,3.29-3.6,1.53-6.59,10.04-4.91,8.95,1.77-.22,10.77,2.99,14.99,3.12,1.77,7.16.8,10.45,2.54,5.39,2.85,19.69,21.24,15.93,27.26ZM289.07,350.95c-20.93-3.38-.81-10.62,1.48-16.01,3.25-7.64-2.31-8.52-4.21-12.74-1.74-3.86-.65-7.95-1.47-11.52-.14-.63-4.63-9.98-5.4-11.59-1.87-3.89-5.29-4.82-6.64-7.36-1.89-3.53-1.63-9.01-3.25-12.73l-4.51,11.97c4.35.45,6.39,3.53,6.98,7.59l-4.96,4.92c1.53,3.66,10.31,5.15,11.48,6.5,2.23,2.56.06,6.2.9,9.02s4.28,4.22,5.09,5.98c.93,2.04.95,9.86,0,11.96-2.43,5.35-20.15,11.13-5.9,15.98l10.41-1.96ZM293.87,303.18c-.96-.55-5.67-1-4.78,1.27,1.23,3.17,4.47,5.46,7.99,4.5-.79-1.03-2.68-5.47-3.2-5.77Z"/>
  <path d="M345.07,487.84c-1.69-5.82,4.84-4.97,7.35-6.91,1.06-.82.58-2.65,1.64-3.56,1.92-1.65,12.16-3.25,13.58-5.51l-.15-7.05c3.91-1.7,11.04-3.92,13.68-7.41,1.34-1.78-1.5-8.67,3.89-11.03-8.09-2.51-12.46,1.12-18.57,5.5l.59,3.99c-9.36,3.75-8.89-10.46-8.07-16.54.65-4.86,3.93-7.08,8.52-7.48,12.14-1.05,31.73-.73,44.08,0,12.69.74,4.93,5.52,1.46,10.55-1.23,1.78-1.77,3.99-3.14,5.85-.95,1.3-2.94,1.9-3.42,2.65-.88,1.39,1.41,3.98.05,6.95-2.09,4.57-12.43,8.01-13.05,8.97-1.91,2.96.71,9.83-8.45,10.05-.27,1.65,1.34.92,2.47.98,9.81.57,16.26-3.92,25.52-3.99.93,3.48-5.61,13.99-8.5,13.99h-59.49ZM406.07,437.87h-23l9.06,1.44c1.44,2.86,2.83,7.17.84,9.98-.8,1.13-2.88,1.46-2.93,2.16-.05.83,1.11,2.34,1.01,3.86-.19,2.93-3.97,7-6.97,7.56-.26,1.3.39,1.09,1.5,1.01,2.87-.21,10.09-4.2,11.61-6.49,1.37-2.08-.53-4.05.27-6.57s3.31-2.86,4.48-4.6c1.67-2.49,2.52-5.79,4.14-8.35ZM383.06,464.84l-5.94,1.05c-.29,1.77.26,3.65-.07,5.42-1.35,7.15-16.42,5.15-16.98,12.51h11.99s-.56-5.99-.56-5.99l13.14-6.99-1.58-6.01Z"/>
  <path d="M316.93,433.02l.09,4.8-8.94,2.54,13.49,20.47c5.37-3.47,1.37-5.78,1.88-9.01.39-2.45,2.68-4.1,3.6-6.47,1.34-3.49.75-11.24,2.43-12.57,3.82-1.11,20.36-2.62,21.48,1.77.97,3.77-5.11,3.94-6.23,6.56-.8,1.89-.58,4.35-1.43,6.49-.59,1.49-2.79,2.67-3.01,3.87-.42,2.24,1.72,3.58-.16,7.96-2.27,5.28-8.39,5.71-9.04,6.46-.47.53.76,3.09.66,4.32-.54,6.43-6.38,5.96-10.04,8.77-1.94,1.48-2.3,3.4-4.92,5.07-5.34,3.41-16.33,4.28-21.15,7.85-1.78,1.32-1.19,3.7-2.18,3.98-4.51,1.3-21.93-5.29-19.67-10.75,1.12-3.4,4.44-2.97,6.58-4.25.95-.57,1-2.45,2.33-2.88,1.53-.5,7.09-.44,8.83-.12,3.01.56,8.75,6.82,12.29,2.69,4.45-5.18-2.5-9.55-3.99-13-.95-2.2-.79-4.66-1.86-7.13-2.35-5.44-17.36-22.2-11.42-27.6,1.92-1.74,29.41-1.43,30.37.17ZM300.83,442.13l-5.75-.76c2.37,5.03,8.02,11.26,10.19,15.79,1.37,2.87,1.15,5.69,2.05,7.94,1.26,3.15,6.67,6.5,5.76,11.75,2.31-.72,11.84-3.83,10.5-7.01-1.67-4.56-8.64-3.33-10.03-4.96-.7-.82-1.1-3.58-1.94-5.06-3.39-5.94-8.18-11.22-10.79-17.68Z"/>
  <path d="M134.8,135.31c5.2-1.5,16.8-1.51,16.26,6.15-.16,2.21-5.45,11.05-7.19,11.9-7.58,3.7-23.2-1.2-18.28-11.28.25-.51,8.65-6.61,9.21-6.77ZM142.09,141.1l-9.97,3.49c3.49,4.37,10.2,2.06,9.97-3.49Z"/>
  <path class="cls-1" d="M63.1,191.07v1.48c-6.07,2.89-3.89,9.42-6.95,14.8-.57,1.01-2.54,1.03-2.95,2.34-.72,2.27,1.97,6.45.78,9.23-4.29,2.11-10.31.18-12.37,5.11-4.06-5.65-8.06-3.18-6.43-12.41.34-1.92,3.3-10.23,4.16-12.82s4.54-3.5,4.82-6.28c.48-4.81-8.44-5.18-9.93-11.09-.58-2.29,4.93-1.9,5.77-5,.89-3.32-2.85-2.84-2.93-3.94l1.06-4.41c1.65-1.46,13.87,6.98,14.75,9.72.81,2.51-.13,4.12,1.77,7.22,1.49,2.44,5.48,5.76,8.45,6.05Z"/>
  <path class="cls-1" d="M20.89,154.32c2.63,3.64-1.72,10.34-.35,14.78,1.01,3.28,6.28,6.98,6.41,7.55.22.95-1,3.04-.85,4.83.3,3.59,6.24,9.24,10,9.6.58,2.79-3.06,2.57-3.82,4.66-.99,2.72-.9,8.23-2.71,11.29-1.71,2.88-5.44.88-2.47,8.01-10.41.38-4.28-4.04-2.68-9.17s-.16-7.91,5.53-11.5c2.18-6.25-7.69-8.23-9.38-12.33-.74-1.8,1.17-4.84.57-7.27-.24-.97-2.23-1.17-3.03-2.17-5.47-6.82-3.13-4.83-2.07-12.17.27-1.87-.81-4.47-.42-5.39.84-2,4.16-2.24,5.26-.72Z"/>
  <path class="cls-1" d="M76.09,191.07v1.46c-5.11,3.33-3.48,8.17-5.79,13.22-1.39,3.04-4.67,4.31-3.21,9.29l-4.78-1.18-.93-2.35c4.09-3.23,3.61-9.71,5.23-13.44,1.02-2.34,5.57-3.15,4.35-7.31-.82-2.81-7.87-4.3-9.39-7.73-1.22-2.75,1.09-4.59.07-6.92-.9-2.04-10.81-12.27-13.25-12.82l-8.28-1.2c4.99-.04,14.68-3.11,18.56.93,1.94,2.02,1,4.1,2,6,1.13,2.15,5.94,6.38,6.3,7.78.51,1.94-1.05,3.39-.13,5.95,1.21,3.35,5.63,7.58,9.26,8.34Z"/>
  <path class="cls-1" d="M101.99,180.17l1.64,4.85c.63,2.52,9.13,5.82,8.45,7.52s-3.77,2.14-4.01,3.22c-.4,1.78.18,3.86-.47,6.31-1.52,5.72-6.8,7.19-4.52,12.97h-5.98c-.69-3.48,2.07-5.39,3.05-8.43.84-2.59.96-6.92,1.95-8.79.84-1.58,4.28-1.92,4.74-5.43.53-4.02-9.69-6.93-10.75-11.83l5.89-.38Z"/>
  <path class="cls-1" d="M95.82,143.28c11.31-2.41,1.77,16.46-4.79,5.28-.25-2.65,2.42-4.77,4.79-5.28Z"/>
  <path class="cls-1" d="M125.09,222.04c2.27-.65,13.85-2.33,13.97.49-2.4,5.87-12.53,6.36-13.97-.49Z"/>
  <path class="cls-1" d="M155.09,191.07c1.12,1.45-2.85,3.76-3.45,5.03-1.66,3.46-1.4,10.51-5.53,12.95,1.02-3.28.32-8.48.97-11.29.16-.68,5.8-3.68,4.02-7.7l3.99,1.01Z"/>
  <path class="cls-1" d="M506.06,302.97c.9.55,5.3,15.95,6.79,18.69,3.55,6.5,11.01,9.99,6.26,19.68l2.95,1.62-10.99,9.97c-3.09-6.98,2.41-10.44,1.99-16.99h-6.01c-1.18-3.33,2.3-6.83,2.04-9.45-.22-2.26-3.28-3.63-4.3-5.86-1.16-2.53.21-6.9-1.83-10.08-1.81-2.82-9.01-4.25-10.9-7.58h14Z"/>
  <path class="cls-1" d="M479.07,351.93c-2.98-6.48,2.24-12.58.52-19.01-1.56-5.84-6.46-9.29-9.18-13.82-3.17-5.27-4.69-11.64-9.35-16.12,10.79-2.29,14.04,11.92,18.35,19.12,2.45,4.1,7.16,7.29,8.38,12.61,2.37,10.37-3.28,10.28-8.72,17.22Z"/>
  <path class="cls-1" d="M396.89,303.19c.69.46,3.13,5.53,4.65,6.8,1.92,1.61,4.52,1.56,6,2.99s3.14,6.97,4.69,9.3c2.73,4.13,7.62,7.59,8.67,13.4.43,2.36-.81,4.18-.56,5.62.17.94,1.65,1.82,1.65,2.14,0,.64-8.88,5.73-9.43,8.46-4.98-4.84,1.3-12.24.05-17.99-1.44-6.65-6.31-9.64-8.99-14.03-3.29-5.4-5.07-11.77-9.56-16.43.13-.95,2.27-.64,2.82-.27Z"/>
  <path class="cls-1" d="M528.06,336.95c-.07-3.18-.94-8.44-2.27-11.23-2.01-4.22-7.25-5.72-7.71-12.33-.18-2.49,5.48-.72,3.99-6.42,1.32,3.45,8.63,5.53,9.5,6.98,1.17,1.94.1,5.75.68,8.31.42,1.85,2.32,3.11,2.61,4.42.96,4.4-3,8.67-6.79,10.27Z"/>
  <path class="cls-1" d="M496.9,316.11c.66,1.09-.2,4.22.35,6.15s3.65,2.72,3.61,4.99c-.02,1.24-2.68,9.3-4.79,7.69.11-7.08-13.83-17.81-13.01-23.46.29-2.02,1.8-.89,2.65-.69,1.08.25,10.87,4.79,11.19,5.32Z"/>
  <path class="cls-1" d="M537.85,303.18c.75.43,3.92,6.87,3.19,7.78l-9.98-7.5c1.32-.77,5.74-.9,6.79-.28Z"/>
  <path class="cls-1" d="M175.08,148.09c.13,1.44.08,2.8-.27,4.22-.93,3.8-1.92,8.42-2.53,12.52-1.14,7.58,6.11,9.73,6.71,11.88.37,1.31-.96,3.2-.88,4.8.2,3.81,6.33,8.64,9.97,9.56v1.47c-4.87,1.94-3.06,5.22-4.31,8.69-1.63,4.54-5.17,8.14-4.69,12.8h-5c1.41-4.1,2.19-12.22,3.66-15.76.83-1.99,6.14-3,4.94-7.26-.91-3.26-7.33-4.49-9.51-8.64-1.41-2.7.66-5.04-.22-7.65-.39-1.16-6.16-4.86-6.66-7.3-.33-1.64,2.21-5.86,2.58-8.08.25-1.53-.94-3.14-.62-4.56.2-.87,5.66-8.03,6.83-6.69Z"/>
  <path class="cls-1" d="M249.87,154.31c2.85,3.95-2.65,9.7-1.58,14,.86,3.45,6.54,7.84,6.7,8.4.34,1.22-.91,2.98-.71,4.63.72,6.13,9.57,9.23,9.81,10.23.07,2.16-2.8,2.95-3.48,4.5-.83,1.89-.31,4.06-1.01,5.98-1.76,4.84-5.54,7.66-4.52,12.98l-4.78-1.17c-2.11-1.43,2.44-8.28,3.31-10.8.68-1.98.06-4.69.69-5.81.21-.37,2.28-.95,3.27-2.21,5.07-6.42-6.05-7.71-7.96-12-1.25-2.79.14-5.91-.68-8.32-.43-1.27-2.66-1.95-3.69-3.3-5.51-7.12-.48-6.58-.18-11.9.12-2.08-2.67-6.29,1.47-6.42.69-.02,2.99.71,3.35,1.2Z"/>
  <path class="cls-1" d="M187.08,221.03c1.3-4.34-2.46-10.49,2.98-12.99,3.52,9.37,17,13.72-2.98,12.99Z"/>
  <path class="cls-1" d="M198.8,200.35c3.2,2.58,5.91,10.56,9.29,13.68-8.56.8-9.13-12.3-16.93-13.06l-.07-2.91c.54-.58,6.66,1.44,7.71,2.29Z"/>
  <path class="cls-1" d="M322.96,218.92c-4.37,2.14-11.58.02-12.39,6.12-.46-3.53-5.8-4.28-6.49-5.76-2.61-5.67.28-7.82,1.53-12.2,1.94-6.81,1.16-6.36,5.28-11.66,4.8-6.18-.57-6.08-4.3-9.39-11.18-9.91,3.24-2.83,1.06-12.05l-3.58-.92c2.95-1.69,1.75-4.83,2-4.98,2.33-1.39,14.17,6.51,15.28,9.29.74,1.86-.24,3.25.17,4.71,1.26,4.46,5.96,7.18,9.55,9.49.42,1.76-2.87,3.08-3.49,4.5-.75,1.72-.23,3.68-.82,5.18-2.79,7.03-6.05,9.25-3.81,17.68Z"/>
  <path class="cls-1" d="M345.06,191.07v1.96c-5.23,1.03-5,9.2-6.77,13.73-1.16,2.99-4.48,3.08-2.23,8.27h-5.98c-.88-1.08,2.82-8.86,3.53-10.95.59-1.72.16-3.78.66-5.33.85-2.6,6.06-2.71,4.65-7.98-.72-2.67-8.22-5.86-9.38-8.74-.77-1.9,1.37-4,.04-6.95-1.03-2.26-7.27-6.26-8.44-9.58l-13.06-3.42c5.49.57,14.14-3.1,18.94.54,2.38,1.8,1.52,4.99,2.62,7.38.93,2.02,5.49,5.88,5.89,7.01s-.66,2.94-.45,4.45c.61,4.25,5.98,8.42,9.98,9.62Z"/>
  <path class="cls-1" d="M375.91,176.26c.68,1.19-.91,3.57-.82,5.26.23,4.31,6.58,8.1,9.99,10.05.11,2.37-3.27,2.27-3.85,4.15-.51,1.63.13,3.69-.44,5.56-1.47,4.8-5.82,8.46-4.73,13.77l-4.78-1.17c-2.12-1.43,2.45-8.28,3.31-10.8,1.54-4.47-.77-5.68,5.02-9.05,1.59-6.42-6.69-6.52-9.43-11.64-1.72-3.21,1.09-3.76.75-5.67-.15-.87-10.67-12.29-12.11-12.88-1.58-.65-5.76-.63-5.76-1.25,3.94-.83,11.25-2.44,14.59.41,1.74,1.49,1.2,4.45,2.34,6.65,1.46,2.8,5.53,5.96,5.91,6.61Z"/>
  <path class="cls-1" d="M296.07,215.03h-5.99c-1.31-4.07,2.05-7.63,3.69-11.79.59-1.5.07-3.46.82-5.18.92-2.12,4.85-2.93,4.54-6.46-.35-3.88-10.58-5.53-10.05-11.54,6.86-1.58,5.57,4.06,8.99,7.49,1.85,1.85,4.29,2.13,6.01,4.01-3.79,4.41-3.9,8.86-5.96,14.01-1.46,3.65-4.63,4.05-2.05,9.45Z"/>
  <path class="cls-1" d="M180.42,324.61c.88.97,3.02,1.23,3.28,2.78.2,1.18-.94,7.68-1.72,8.95-1.08,1.75-6.93,5.37-8.96,7.05-2.47,2.05-1.26,4.86-6.93,3.53,1.86-3.13,9.87-7.43,10.8-10.68.32-1.11,1.1-9.39.81-10.32-1-3.27-5.63-3.3-5.6-6.97,5.28.75,5.5,2.54,8.33,5.65Z"/>
  <path class="cls-1" d="M185.09,312.95c.31-1.93,3.06-1.18,3.81-3.67.58-1.93.04-4.3.19-6.32,6.05-3.31,17.04,13.92,9.54,14.01-4.59-1.99-8.08-4.94-13.54-4.02Z"/>
  <path class="cls-1" d="M222.98,303.08c1.82,4.01-1.67,8.56-1.8,12.47-.23,7.02,9.12,14.7,12.91,20.39-4.1-.59-8.07-3.84-10.42-7.07-.93-1.28-1.02-3.42-2.1-4.92-1.18-1.64-3.41-1.54-4.07-3.9-1.74-6.17,5.25-10.26,1.59-17.06l3.89.1Z"/>
  <path class="cls-1" d="M250.08,340.96c.97,1.35-8.81,11.04-10,9.97,2.3-3.16,3.74-4.92,2.58-9.06-.97-3.46-5.12-2.18-6.57-4.9l13.99,4Z"/>
  <path class="cls-1" d="M247.91,308.13c.73.45,2.47,6.99-.32,5.83l-13.51-9.97c3.7-.52,6.14,2.39,8.96,3.54,1.57.64,4.01.08,4.87.61Z"/>
  <path class="cls-1" d="M504.7,45.52c3.11,3.53,5.38,8.33-1.17,9.61-9.51,1.85-11.39-5.45-16.48-11.46-1.07-1.26-2.94-1.67-3.88-3.11-4.34-6.65,7.81-11.99,13.16-9.17s2.63,7.18,4.23,10.77c.75,1.67,3.14,2.22,4.14,3.36Z"/>
  <path class="cls-1" d="M499.76,86.81c.51-.34.61-2.08,1.92-2.51,5.35-1.75,13.02.75,16.35,5.33-2.57,4.38-25.97,2.52-25.96,0,2.1-2.34,5.07-1.06,7.69-2.82Z"/>
  <path class="cls-1" d="M499.06,78.14c-.23-1.46,1.73-1.35,2.79-1.69,7.7-2.47,26.25.56,29.42,8.97,1.68,4.46.11,6.53-4.7,6.74-2.73.12-1.12-3.08-1.72-5.32-.75-2.81-6.52-8.71-9.29-8.71h-16.5Z"/>
  <path class="cls-1" d="M511.96,34.27c1.16,2.18-.07,5.78.8,7.61,1.93,4.08,14.14,8.03,2.79,14.27-1.03-2.4,1.02-4.29.31-7.22-1.35-5.55-8.39-5.39-8.82-14.24l4.91-.42Z"/>
  <path class="cls-1" d="M479.06,29.18l-4.86,4.67.37,8.3c-8.42-4.09-2.12-11.81,4.49-12.97Z"/>
  <path class="cls-1" d="M533.06,209.04l4.85-17.26-24.86-27.69c2.61-.38,4.14,1.06,6.02,2.47,9.73,7.29,15.04,19.11,24.96,26.07-2.86,6.11-2.63,15.01-10.98,16.41Z"/>
  <path class="cls-1" d="M493.05,195.06c-1.39,11.5-2.57,17.04,7,24.97-12.6-.85-21.05-20.18-7-24.97Z"/>
  <path class="cls-1" d="M488.05,166.07c.79,3.93.98,8.7,4.99,10.49-5.08,3.91-4.07,5.13-1.99,10.49-2.84.06-5.04-2.17-5.89-4.67-.16-2.12,5.41-3.43,4.77-6.69-.29-1.44-6.52-4.28-5.88-8.61l4-1.01Z"/>
  <path class="cls-1" d="M441.51,176.65c2.57,3.3.45,1.89.84,4.78.85,6.23,10.14,9.05,9.68,11.07-.21.92-2.77,2.24-3.42,3.59-1.04,2.17-1.42,6.57-2.49,9.5-.66,1.81-2.47,2.87-2.87,4.16-.97,3.18,1.12,6.12.79,9.24-.4.45-9.72,1.47-11.01,2.49-1.43,1.13-.08,3.71-1.95,3.52-2.59-6.27-7.87-3.23-7.1-12.49.21-2.51,2.47-4.97,3.41-7.66.78-2.23.31-4.78,1.2-6.8.95-2.15,4.86-2.96,4.53-6.46-.36-3.85-9.87-6.76-10.05-11.53,3.46-1.08,7.39-1.37,5.86-5.87l-3.86-1.15,2.54-5.05c3.37-.57,11.73,5.86,13.9,8.65Z"/>
  <path class="cls-1" d="M448.83,163.31c.55.8.8,4.52,1.83,6.67,1.28,2.66,5.49,6.02,5.86,7.04.52,1.43-1.13,3.79.09,7.01,1.31,3.44,5.88,5.28,8.45,7.57.35,1.44-2.58,3.11-3.25,4.71-.95,2.26-.48,4.6-1.25,6.75-1.72,4.82-5.43,7.02-3.51,11.99l-6-1c-.32-3.63,2.25-6.59,3.51-9.98.71-1.92.18-4.09,1.01-5.98.7-1.6,3.81-2.84,4.34-4.73,1.39-4.96-5.19-6.07-7.71-8.92-3.85-4.36-.16-6.05-1.62-9.32-.27-.62-8.3-9.49-9.01-10.05-3.84-3.03-7.98-1.79-12.51-1.99l12.53-2.05c1.55-.11,6.56,1.33,7.23,2.3Z"/>
  <path class="cls-1" d="M414.9,180.23c1.5,6.03,5.19,8.38,10.16,11.35.41,1.72-3.11,3.18-3.77,5.21-.51,1.55-.08,3.52-.72,5.27-.98,2.69-4.09,6.65-4.39,7.72-.9,3.24,3.78,6.38-4.9,4.08l-.94-2.34c1.87-2.11,3.66-5.61,4.44-8.24.6-2.02-.21-4.77.48-6.02.39-.71,5.12-2.05,4.84-4.75.51-5.4-11.79-6.15-9.54-12.44l4.34.17Z"/>
  <path class="cls-1" d="M301.81,30.34c7.87-1.2,6.33,8.88,7.75,11.84.65,1.35,3.32,2.1,4.51,3.49,7.16,8.39,1.85,9.88,3.1,18.89.56,4.01,2.53,4.69,3.62,7.36,2.62,6.39-.48,8.57-3.35,14.15-4.41.4-7.17-1.91-9.88-4.92-1.4-1.55-10.79-16.59-11.09-17.94-1.11-5,2.15-9.37,1.44-13.31-1.01-5.6-12.37-9.69-5.81-15.19.41-.34,9.18-4.28,9.7-4.36Z"/>
  <path class="cls-1" d="M324.07,25.18c1.18,3.81-1.65,6.34-2.05,9.44-1.28,9.79,3.8,8.15,7.51,13.58,4.51,6.6.08,9.19.6,15.32.23,2.68,8.81,15.99,4.43,16.6-6.09.85-4.98-6.05-6.4-9.56-.91-2.27-3.11-3.6-3.69-6.37-1.54-7.25,5.42-10.18-2.41-19.5-1.51-1.8-4.97-3.7-5.47-4.52-2.21-3.59,1.68-15.51,7.49-14.98Z"/>
  <path class="cls-1" d="M287.06,45.17c4.97,6.31,2.09,7.3,1.29,12.74-1.35,9.19,9.16,19.56,12.28,28.17l7.44,6.04c-6.89.58-13.39-5.55-16.21-11.26-1.43-2.9-1.88-7.66-3.36-10.64-.85-1.7-3.23-2.7-3.98-5.02-2.22-6.86,5.98-12.89.54-19.52l2-.51Z"/>
  <path class="cls-1" d="M104.11,340.91l4.04-14.4-4.87-6.04c2.6-4.76,4.93-5.87,10.33-5.58,8.5.46,7.75,7.74,13.93,12,2.32,14.09-12.35,16.95-23.43,14.02Z"/>
  <path class="cls-1" d="M133.08,306.97c2.8,4.63,1.15,10,2.94,14.56s6.64,3.97,4.86,11.71c-1.45,6.31-13.94,9.65-13.89,17.58l-4.89.11c-1.12-8.45,10.92-8.37,12.79-14.69.54-1.82.54-8.76,0-10.58s-3.19-3.06-4.23-4.76c-1.9-3.12-2.87-6.79-5.56-9.44l5.08-.93c1.47-.99-.24-4.48,2.9-3.56Z"/>
  <path class="cls-1" d="M106.09,346.95c.25,1.69-2.35,1.02-3.51,1.02-4.6,0-9.38-.69-12.36-4.52l5.87-6.5c-1.5,8.09,2.83,9.57,10,10Z"/>
  <path class="cls-1" d="M336.06,351.95c.28,1.57-1.42,1.09-2.48.99-4.19-.4-7.11-2.11-9.4-5.68-.93-3.43,8.81-6.35,9.87-11.83.36-1.87.33-8-.18-9.76-.74-2.55-4.97-3.48-4.79-6.7,5.02,5.19,14.84,9.72,9.26,17.75-3.44,4.94-16.9,9.34-2.27,15.23Z"/>
  <path class="cls-1" d="M372.08,323.96c13.25,9.12,3.02,14.33-5.51,20.96-1.3-1.32-1.99-.98-.42-2.39,2.52-2.27,4.84-4.47,6.77-7.27l-.84-11.3Z"/>
  <path class="cls-1" d="M329.87,303.18c.42.25,4.7,7.25,4.19,8.78l-8.98-7.51c-.95-2.31,3.99-1.74,4.79-1.28Z"/>
  <path class="cls-1" d="M367.87,303.18c.42.24,4.99,7.8,4.19,8.78-3.12-2.74-7.04-4.69-8.98-8.5.71-.93,4.01-.74,4.79-.28Z"/>
  <path class="cls-1" d="M572.26,172.87c-.77-1.32.01-4.13-.21-5.8,16.2-1,21.28,18.07,32.93,25.61-3.14,4.27-2.67,10.41-6.99,13.81-2.13,1.68-5.36,1.91-7.87,3.12-1.38.67-2.26,2.87-3.79,3.29-3.16.88-8.53-2.77-10.13-5.51,1.84-2.81,1.3-6.87,2.37-9.32,1.29-2.96,7.4-3.8,3.05-9.09-3.67-4.47-12.36-5.23-5.53-12.41,0-2.73-3.4-2.95-3.83-3.7Z"/>
  <path class="cls-1" d="M606.06,209.04c-.41-2.96,3.02-4.56,3.76-6.72.51-1.5.09-3.32.75-5.24.28-.81,1.98-1.54,2.33-2.74,1.54-5.29-4.91-6.98-7.5-9.64-4.68-4.8-8.07-14.94-15.34-19.15l-8.02-4.46c4.31-.2,8.86.49,12.5,2.98,1.42.97,11.89,12.43,12.95,14.04,1.55,2.38,1.72,5.01,3.53,7.46,2.07,2.81,5.86,4.14,7.99,6.99-4.86,5.24-4.12,14.62-12.97,16.49Z"/>
  <path class="cls-1" d="M563.06,220.03c-1.27-6.96,1.34-10.88,3.69-16.79.53-1.35.09-3.13.53-4.46.7-2.09,2.99-2.76,3.83-4.16,1.03-1.71.34-5.39,2.42-4.55,1.91.77,1.66,1.92.53,3.5-1.33,1.86-7.29,14.1-7.87,16.2-.89,3.21,4.27,10.85-3.14,10.26Z"/>
  <path class="cls-1" d="M568.04,187.06c-5.78-2.39-6.45-6.35-4.98-11.99,5.58.5,2.5,4.29,2.97,7.43.29,1.92,2.35,2.55,2.01,4.56Z"/>
  <path class="cls-1" d="M117.09,31.18c-1.27,2.45-.77,8.69,0,11.25.16.52,5.14,3.8,6.44,5.78,4.38,6.62.35,8.42.61,14.31.24,5.44,3.56,7.36,4.87,11.21s-.11,7.46.06,11.41l-5.1-.6c-.68-4.31.39-8.2-1.16-12.63-1.27-3.63-4.13-4.99-4.52-9.55-.42-4.91,2.66-7.42.48-13.4-1.7-4.67-6.76-6.77-7.65-8.59-2.28-4.67-.15-10.9,5.95-9.19Z"/>
  <path class="cls-1" d="M106.82,62.38c1.2.01,1.55.36,2.31,1.2.3.33,4.2,7.08,4.42,7.61,4.09,9.98-9.44,11.37-11.94,7.94-1.74-2.39-.36-5.89-.53-8.39-.09-1.31-1.54-2.35-1.61-3.11-.26-2.89,4.85-5.27,7.36-5.24Z"/>
  <path class="cls-1" d="M103.09,31.18c-.66,2.73-.6,7.67.2,10.29.73,2.37,6.03,3.81,6.77,7.2l-12.98,5.48c6.07-5.19.56-9.73-3.9-13.63l1.84-8.71,8.05-.63Z"/>
  <path class="cls-1" d="M91.09,63.15c-1.85,4,1.13,6.1,1.73,8.77,1.53,6.78-.16,12.42,7.53,16.45l8.74,1.74c-5.88.14-14.16,5.15-18.43-1.05-4.88-7.08-1.73-10.21-2.5-17.48-.36-3.4-4.88-7.87,2.94-8.43Z"/>
  <path class="cls-1" d="M84.83,28.35l2.21,1.42c-.11,4.67-1.89,11.62-7.9,8.9-7.12-3.22.47-10.26,5.7-10.32Z"/>
  <path class="cls-1" d="M183.4,42.86c1.78,2.16,7.41,5.37,8.47,9.01,1.35,4.64-1.37,9.84.28,14.7,1.26,3.7,5.02,5.9,4.5,11.12-.05.51-3.63,9.15-3.96,9.54-2.37,2.79-10.3,3.32-13.17.97-4.34-3.56-1.64-11.41-3.25-16.74-1-3.33-3.71-4.76-4.15-7.9-.64-4.58,2.21-9.69.75-14.7-1.36-4.68-8.66-6.61-8.81-12.21-.06-2.04,3.97-2.21,5.65-2.37,12.55-1.16,8.44,2.19,13.69,8.56Z"/>
  <path class="cls-1" d="M163.09,22.19c-.61,2.12-3.68,3.2-4.49,5.01-.68,1.53-.17,3.2-.57,4.24s-2.04.42-2.02,2.16c.01,1.25,1.14,7.5,1.61,8.54.84,1.87,5.1,4.43,6.48,6.51,4.15,6.3-.26,9.35.22,14.77.35,3.99,3.43,5.79,4.5,8.49,1.63,4.09,1.09,9.18-.29,13.26l-4.55-.64c-.77-4.38.61-8.26-.97-12.82-1.01-2.92-3.33-3.87-3.87-7.12-.8-4.84,1.48-9.19.53-13.49-1.34-6.05-9-9.69-9.44-14.7-.33-3.77,7.23-16.72,12.84-14.21Z"/>
  <path class="cls-1" d="M206.85,78.86c-.27.28-2.67,1.4-2.75,1.27.07-3.15.06-6.46-1.04-9.47-.93-2.54-3.2-3.8-3.76-6.23-1.3-5.6,2.2-9.51-1-16-1.57-3.18-5.58-5.44-7.65-8.34s-2.88-6.71-4.67-9.32c-1.01-1.47-2.95-1.05-2.88-2.59,10.36-1.33,10.2,7.85,13.99,13.49,1.99,2.97,7.14,5.87,8.47,9.53,1.87,5.17-2.53,10.56-.2,17.18.52,1.47,2.18,2.18,2.47,3.38.16.64-.38,6.48-.96,7.09Z"/>
  <path class="cls-1" d="M396.83,86.82c.53-.59-.05-3.12,2.74-3.68,1.24,8.04-14.35,9.62-19.92,8.89-9.79-1.28-14.49-12.35-16.57-20.89,7.91,9.99,14.48,18.1,28.53,17.03,1.56-.12,4.16-.16,5.22-1.35Z"/>
  <path class="cls-1" d="M383.07,51.16c.73,2.52-2.15,2.48-3.76,2.71-3.46.49-14.25,1.98-14.24-2.71h18Z"/>
  <path class="cls-1" d="M388.06,35.16c-5.76,1.07-4.25-2.67-6.08-5.41-.98-1.47-3-.99-2.91-2.57,4.77-.45,9.76,2.86,8.99,7.98Z"/>
  <polygon class="cls-1" points="375.07 35.17 360.07 35.17 369.56 32.68 375.07 35.17"/>
  <path class="cls-1" d="M430.02,38.22c-.98,4.94,3,5.19,4.69,7.3,7.39,9.23,2.14,9.57,3.45,19.05.63,4.58,4.25,6.67,4.69,11.38.34,3.58-1.64,6.05.21,9.19-10.24,1.5-4.8-8.27-7.23-15.25-.74-2.13-3.23-2.57-3.75-5.26-.69-3.58,1-6.68,1.07-9.96.15-7.77-4.26-10-9.07-15-1.07-2.56,4.96-1.28,5.95-1.44Z"/>
  <path class="cls-1" d="M462.06,19.17c-5.5,2.34-9.19-1.17-14.5-1.06-3.65.07-6.88,1.97-10.5,2.06,1.62-2.81.73-3.67-1-5.98l7.01-2.53-2.01-4.47c9.39-3.53,18.67,2.66,21,11.97Z"/>
  <path class="cls-1" d="M262.33,84.31c.57-.64,6.2-2.75,6.74-2.17,1.23,8.01-10.59,9.74-16.54,10-20.4.91-22.64-14.69-31.3-28.73l3.86-15.25c4.5,4.62-.48,9.74,1.94,16.54.72,2.03,9.91,15.84,11.55,17.43,5.56,5.4,13.14,7.38,20.76,5.78,4.42-.93,2.77-3.36,2.98-3.6Z"/>
  <path class="cls-1" d="M256.07,37.17c-2.59,2.2-9.21-8.42-10.99-9.98,7.44.49,14.54.65,10.99,9.98Z"/>
  <path class="cls-1" d="M233.92,440.04c1.63,9.94,7.57,19.49,19.16,16.83-10.32,7.12-2.08,10.74,2.44,17.04,2,2.78,2.88,6.45,5.56,8.92h-10.99c-.63-2.29,1.81-3.75,2-5.54.29-2.61-4.55-8.42-6.48-10.47-3.27-3.48-6.13-6.5-9.56-10.43-4.64-5.33-9.87-10.19-13.96-16.02,3.68-1.75,8.1-2.2,11.84-.33Z"/>
  <path class="cls-1" d="M243.08,475.85c-2.26,5-9.16,10.97-10.96,2.46l10.96-2.46Z"/>
  <polygon class="cls-1" points="225.08 482.83 216.08 482.83 216.08 479.86 222.61 477.94 225.08 482.83"/>
  <path class="cls-1" d="M289.07,350.95l-10.41,1.96c-14.25-4.85,3.47-10.63,5.9-15.98.95-2.1.93-9.92,0-11.96-.8-1.76-4.3-3.31-5.09-5.98-.84-2.82,1.34-6.46-.9-9.02-1.17-1.34-9.95-2.83-11.48-6.5l4.96-4.92c-.6-4.06-2.63-7.13-6.98-7.59l4.51-11.97c1.62,3.72,1.37,9.2,3.25,12.73,1.35,2.53,4.77,3.46,6.64,7.36.77,1.61,5.25,10.96,5.4,11.59.82,3.57-.27,7.66,1.47,11.52,1.9,4.22,7.46,5.1,4.21,12.74-2.3,5.4-22.41,12.64-1.48,16.01Z"/>
  <path class="cls-1" d="M293.87,303.18c.53.3,2.42,4.75,3.2,5.77-3.52.96-6.76-1.34-7.99-4.5-.88-2.28,3.82-1.82,4.78-1.27Z"/>
  <path class="cls-1" d="M406.07,437.87c-1.62,2.56-2.47,5.87-4.14,8.35-1.16,1.73-3.7,2.17-4.48,4.6s1.1,4.49-.27,6.57c-1.51,2.29-8.74,6.27-11.61,6.49-1.11.08-1.76.29-1.5-1.01,3-.56,6.78-4.63,6.97-7.56.1-1.51-1.06-3.03-1.01-3.86.04-.69,2.13-1.03,2.93-2.16,1.99-2.81.6-7.12-.84-9.98l-9.06-1.44h23Z"/>
  <path class="cls-1" d="M383.06,464.84l1.58,6.01-13.14,6.99.56,5.99h-11.99c.56-7.36,15.63-5.36,16.98-12.51.33-1.77-.22-3.65.07-5.42l5.94-1.05Z"/>
  <path class="cls-1" d="M300.83,442.13c2.61,6.46,7.4,11.74,10.79,17.68.84,1.48,1.24,4.24,1.94,5.06,1.39,1.63,8.36.41,10.03,4.96,1.33,3.19-8.19,6.3-10.5,7.01.91-5.25-4.5-8.6-5.76-11.75-.9-2.25-.68-5.07-2.05-7.94-2.17-4.53-7.82-10.76-10.19-15.79l5.75.76Z"/>
  <path class="cls-1" d="M142.09,141.1c.23,5.55-6.49,7.87-9.97,3.49l9.97-3.49Z"/>
</svg>