<?xml version="1.0" encoding="UTF-8"?>
<svg id="Ebene_1" data-name="Ebene 1" xmlns="http://www.w3.org/2000/svg" viewBox="0 0 953.46 842.16">
  <defs>
    <style>
      .cls-1, .cls-2 {
        fill: #fff;
      }

      .cls-1, .cls-3 {
        stroke: #000;
        stroke-miterlimit: 10;
        stroke-width: 3px;
      }

      .cls-3 {
        fill: none;
      }
    </style>
  </defs>
  <rect class="cls-2" x="111.54" y="840.17" width="841.92" height="2"/>
  <path class="cls-1" d="M18.53,1.67c-.29-.42-9.44.06-10.21.21-1.48.28-4.74,2.15-3.78,4.27,2.55,4.31,16.77-.37,13.99-4.48ZM47.91,7.28c-1.42-1.39-1.36-3.43-4.74-2.67-.41.09-5.13,6.37-4.64,7.04l5.38.95,2.12-3.95c-.16,4.66,6.97,4.52,3.39-.37-.19-.26-1.03-.52-1.52-1ZM55.03,106.58c-5.5.05-11.01-.04-16.5,0-.96,8.22,14.43,9.35,18.99,4-.91,2.65-1.21,3.63,2,4.01-1.57,3.97-6.69-1.84-7.98,1.49-1.61,4.13,4.95,2.06,6.99,2.5l-2.99,4.96,2.98,1.53-.13,2.36-2.84,1.64-.04,2c2.58.71,2.18,1.96,2.02,4.48l-9.33-1.05c-1.57.39-1.76,4.7-.41,5.81l5.75,1.25-1.99,3.98c.98.91,7.13-3.94,6.97-.49-.06,1.26-3.74,1.75-4.99,1.5l.05,6.91,4.01,1.75c.39,4.79-2.08,8.68-.05,13.32-3.4.45-4.01.17-5-2.98,2.37.11,3.64.61,3.03-2.53-.65-3.34-4.34-3.22-6.59-1.52l.56,4.03c-11.92-.89-9.67,5.37.94,4.12l.6,2.96,5.89-.14c.99.29.04,3.95,2.56,3.08l-3.03,1.49c1.86,3.45-.43,10.48-.01,12.81.11.63,7.64,4.29-2.94,5.67,1.86-10.13-12.46-1.08-10,.99,2.13,0,5.19-.58,5.99,1.99-4.34-.62-6.06,2.25-7.97,5.51.14,2.62,12.35.88,13.96-.51-.86,2.42,1.53,4.38,1.83,5.78.94,4.4-7.16,3.65-3.82,9.21-1.82.16-3.09-.94-3.05,1.53.09,5.24,6.05,4.5,6.89,7.13.15.47,1.06,9.09,1.03,9.89-.19,4.9-1.24,10.19-.97,15.93.15,3.22,3.4,9.16-1.9,9.49-.28-.31,1.15-1.61.55-2.94-.2-.44-6.36-6.55-6.78-6.79-2.43-1.4-9.29.34-9.49,3.23-.07.95,3.21,5.52,2.61,8.06l9.11,2.43c-4.19.68-12.75-2.46-12,4h3.01c-1.44,5.42-6.24,9.67-12.01,8.99,3.55-3.44,3.89-7.28-2.02-5.52-.7.21-5.67,2.39-5.85,2.66-3.45,5.46,6.51.2,7.86,3.37-1.96,1.36-5.14,2.52-4.99,5.49l4.3.02c.61,2.93,7.39,3.17,6.7,5.47-.33,1.1-5.9.21-5.56,4.57-6.19,1.38-3.06-2.83-6.4-3.62-6.13-1.44-6.47,7.45-5.03,11.54l-5.98,1.5c2.17,3.2,8.51,5.19,4.46,10.49-4.71-.88-.17-2.93-.47-4.46-4.3-5.55-11.56-.96-8.06,4.75,2.46,4.02,10.39,2.8,9.51,8.8,4-.33,1.9,2.31,3.46,3.47,1.83,1.36,9.35-.07,12.07.44l.5,5.97c4.96-4.38,7.59-6.76,14.5-4.97v-4.01c6.37,1.33,10.42-2.53,16.5-1.99,3.66.32,6.09,2.49,9.06,2.94,3.66.55,12.64-.89,15,3.06.8,1.34-2.01,6.63,4.44,5.99l-1-3.98,2.9-.07c.51-.56-.67-6.2,2.58-6.56.47-.05,9.02,1.47,9.39,1.77.69.57.17,4.47,1.83,4.88s8.07,1.12,9.81,1.08c2.77-.07,4.63-1.67,6.59-1.62,3.52.08,13.43,5.33,15.41,2.52.9-1.28.56-1.61-.49-2.53-2.67-1.7-7.67,2.38-7.02-1.46l13-2-.99,3.98c6.94,1.96,6.98-3.26,12-4l-2-2.98h4c.81-6.11-6.85-8.31-10.44-12.07-1.15-1.21-1.54-3.38-3.04-4.96-9.76-10.25-20.09-20.16-30.51-29.72-.49-.94-1.8-7.85-1.75-8.94.09-2.08,2.45-2.38.85-5.84-1.3-2.82-3.28-2.91-6.11-3.45,1.2-2.69,7.2-2.1,4.35-5.99l-4.34-1.01,4.53-2.94-.59-4.01c-4.94.03-11.27,3.36-14.95-1.54,5.94-1.84,11.86-2.56,17.99-1.5.39-2.65-.04-2.53-2.03-3.5,1.43-2.64,2.34-3.42,1.05-6.48l5.99.5c-1.94-3.31-3.86-1.53-6.53-2.44l-.47-8.06c-9.44-1.32-3.09,8.09-4,8.99-.4.4-4.54-.91-4.11,4.88l-9.88.11c.02-1.73,2.75-1.33,3.57-2.98.66-1.33-.83-3.28-.4-5.24,1.1-4.99,10.41-7.31,14.78-8.82l.05-2.93c-.33-.35-8.84.13-8-4,5.08.72,12.5-.73,10.99-7.33-.13-.58-3.18-.71-2.02-4.17.39-1.16,4.32.77,3.04-2.99-.28-.84-3.84-.51-3.04-4.99.21-1.15,4.07.45,3-1.98-1.28-2.93-6.96.8-7-1.01l4.01-2.02-3.01-6.46c9.08-.9.16-6.8-2.53-3.05-1.52,2.12,2.35,4.44.53,7.03-8.24-1.11-11.58-5.43-8.86-13.84,3.93-2.45,2.83,1.24,5.09,2.19,2.88,1.2,8.44.86,11.77,1.65-.04-3.54-5.11-2.54-3.95-7.33l-3.04-.67,3.77-2.44c-1.62-3.77-.44-7.85.72-11.54l172.93,172.93c5.31-.68,7.84,4.33,9.22,4.82,2.36.83,5.18-1.12,5.33-.89.21.32-.44,1.97.24,2.77.75.87,5.15,2.73,6.83,1.75,1.3-.75-1.87-3.84,2.98-2.07,3.15,1.15,4.33,3.22,3.96,6.54l4.91-3.62-1.91-6.37c2.15,2.04,14.46-2.56,14.98-2-2.24,4.39,3.2,5.92,4.44,2.08l3.56.91-.14-3.85-4.85-1.64c1.04-2.17,5.44.6,5.99-2.02s-3.3-2.83-4.99-1.49c-.55-.61,2.63-5.8.05-7.55l-4.42-.47-2.63,2.03-1-3.95c5.5-.21,17.33-8.52,6-9.05l1.8-1.12-.26-2.92-4.54-.96-.1,3.9-8.89,1.1c-.78-3.77,6.43-3.23,6.99-4l-1.5-3.02c1.38-5.13,8.74,3.63,12.48-1.47l-14.97-7c2.85-2.12,10.74.8,12.44.45,4.29-.87-.61-3.65-.77-3.89-.77-1.15-.6-2.63-.86-2.86-.88-.77-3.15.7-2.82-1.19l7-.52c.21-2.1-2.3-1.71-2.99-3.29-.89-2.02-.19-5.05-.02-7.19l-8.99.99.66-3.01,6.88-2.98c1.39-2.15-.8-4.56-.6-6.36.07-.62,1.65-.47,1.98-1.37,1.59-4.45-.08-9.13-2.92-12.76l2.99-2.98-8.99-5.5,10.99-.02-2.99-3.98,4-.52c-.06-2.77-3.2-2.57-5.01-2.5l1.14-8.87,3.86-.12c.79-2.5-2.3-2.37-2.77-3.15-.62-1.03.33-9.03-2.21-10.35l3.06-2.14-1.99-8.93,1.8-1.78-3.41-6.63c-4.26.51-4.54,4.64-9.47,1.98,1.67-3.12,6.77-2.43,6.01-7l5.98,1c-1.51-3.03,1.49-5.65-2.05-6.55l1.06-3.43-6-1.02-2,4c-.1-2.92-.68-6.39,2.61-7.76l7.38.76-2-3.49,4-1.51c-.58-2.23-3.19-1.99-5.01-1.99.54-4.02-.01-5.47,4.01-7.5l-1.99-1.5,1.99-3.98c-3.62-1.05-8.23,2.82-10.97-.51,2.03-2.45,5.02-2.68,7.99-2.5,1.01-4.2-2.66-3.21-5.72-4.79-1.51-.78-2.43-2.09-4.08-2.96-.88-.47-2.61.01-3.16-.31-.17-.1,1.04-2.63-1.05-3.44l14.03-4.16-.1-17.62,3.13-3.18c-4.03-4.9-2.28-4.32-1-9.84l-7.05-4.16,7.97-3.98-9.98-2.5c5.41-.38,12.83-4.9,9.99-11,14.07,3.8,10.16-6.3-1.01-6.01-.35-.35,2.63-9.15,2.97-9.51,4.28-4.58,9.44,3.86,15.03,1.53-2.14,4.5-11.05,1.96-2.99,7.48l-1.85.67-1.16,5.81c3.17.49,5.37-.96,6.9-3.7l-1.93-4.76c2.8-1.27,3.45-3.01,4.03-5.98l-3.99-.53v-2.98c3.56-.98,25.89-5.46,25.97-7.52l-5.97-1.51-1.01-5.98c1.1-.84,7.57,3.46,7.99-1.49l-6-2.52,1.02-5.98-3.98-.03c1.02-6.21-5.02-4.81-8.56-7.91,2.11-4.21-1.93-8.07-5.84-6.95-.61.17-6.19,5.59-3.62,6.89l-2.51.02c-1.68-8.01-5.78-5.73-11-8.96-.49,3.33-7.07,5.69-7.33,6.1-.92,1.43.71,5.29-.64,6.82l-8.5-2.48,6.81-5.16.17-12.33h-12s-.43,5.07-.43,5.07c-1.05,1.56-4.01.4-5.36,1.15-.45.25-2.44,4.68-3.72,4.75-2.83.16.48-3.84.53-4.52.08-1.16.08-2.27-.99-3l-10.42-.51c-3.45,4.08-.98,6.08-1.64,10.05h-2.98c.26-2.63.05-4.92-3.01-5.01l3.03-2.67-.99-4.85c-4.53-2.47-9.81-.26-13.49-.48-3.02-.18-8.08-4.39-12.11-1-.93,6.33,4.16,3.22,7.86,4.06.66.15.72,1.45,1.04,1.58,1.97.82,4.47.46,5.46,2.87-1.46,3.76-4.39,5.81-8.29,6.52l2.48-6.01-9.05.41-1.01,5,4.07,2.57c-7.3.94-4.69-.46-6.49-2.95s-6.35-.38-8.5.97c1.2-5.21-7.33-3.28-11.03-3.55l-1.46,4.5-3.51-.97,3-.99-.05-2.93c-3.02-1.24-4.93-1.6-6.86,1.43l1.91,2.48c-2.94.46-4.81,2.62-1,3.51l-4.06,2.11.55,6.4,30.57,30.4,1.06,5.44,5.87,1.13-4.99,2.01v2.97c3.36.84,11.65.12,12.99,3.52l-2.1,2.95,2.1,6.52-5.99-.99.46,4.04,12.53,2.96-4.98,6.98v-4.98s-6.01,1.98-6.01,1.98l.04-4.53-7.04-.46.1,3.9,2.89,1.08-5.98,3.52,3,3.97c-3.85,1.45-3.14,3.85-3.01,7.51,1.32,1.31,12.91-1.8,11.01-6l-4-.5,5.99-3.49-.95,4.38,2.95,2.09c-1.99,5.23-9.33,2.32-6.34,8.52,1.95.26,3.94-1.14,3.34,1.97l-4.98,2.51,8.98,3.51-1.01,3.98,4,.02c-.08,1.93-2.95.97-4.07,2.66-.76,1.14-.97,2.95-.92,4.32l6.99-1.98c-.93,3.43-1.97,3.18-5.33,3.13l-1.53,1.5-1.19,10.83,3.05.52c-2.28,4.64-2.93,1.54-5.59,1.08-5.8-.99-12.52-3.45-12.41,4.9.53.51,9.42-1.27,11.02-1.46,1.41-.17,2.27-1.43,1.96.95-4.17,3.18-10.54-.08-13.98,5.03.55,4.01,4.67,1.92,7.12,2.08,1.15.08,5-.14,4.86,1.39-1.19.66-5.25,1.71-5.75,2.31-.47.56-.02,2.08-.4,2.47-.3.31-6.21.91-7.58,3.41-1.71,4.33,3.4,3.45,5.1,4.72,1.23.92.39,3.32,2.25,4,2.38.87,8.43-1.79,8.44-4.39l-5.06-6.5,7-1c-1.71,3.8-1.94,5.74,1.99,7.5.46,2.58-1.97.98-3.74,1.76-.21.09-1.95,3-3.24,3.22l3.97,2.49c-4.27.81-9.75,1.77-10.01,7.01-2.11.09-3.51-1.29-5-2.48-17.27-13.76-36.34-35.37-52.96-50.99-36.13-33.97-72.07-69.56-108.95-102.96-6.05-5.48-8.58-5.33-15.05-12.94-3.81-4.47-5.79-5.25-11.95-4.45l-2.55,6.94-1.41-3.58c-2.77-2.19-5.76,2.24-7.58,2.24-2.3,0-7.14-3.24-11.5-.66,1.74-6.94,14.63,2.6,13.99-6.98-2.77.19-5.42-2.73-7.59-3.03-3.14-.43-5.55,2.64-8.92,2.54-3.06-.09-4.98-2.98-7.09-3.25-1.58-.2-8.16,1.35-8.98,2.71l.07,4.02c-11.45-.33-20.59-12.31-31.47-8.97l.11,8.86c1.15.7,5.28-.87,5.88,2.09-15.32,1.24-5.71,8.86,3.91,8.15l.26,2.67,2.83.18c.83,3.41-4.31,3.57-4.8,4.2-.54.7.03,2.58-.73,3.79-.87,1.39-4.07.18-1.54,4.31l42.63,42.68c1.05,2.14-3.57,3.72.42,6.97h-10s0,7,0,7l17.99,2.01c-.27,2.27-4.34.98-5.49.99ZM240.51,15.64c.7-3.99-7.38-3.76-8.56-2.05l-.43,4.05,9-2ZM571.48,78.6l-2.49-4.94c-4.61,1.37-2.37,3.54-2.83,4.74-.09.24-2.96.7-1.68,4.19h3.99s.1-3.94.1-3.94l2.91-.05ZM552.9,79.02c.86-.86,2.89-1.25,2.57-2.9-.76-3.99-13.39.83-10.99,4.46,4.46,1.49,5.3,1.56,8.42-1.57ZM642.47,332.42c.36-1.05.92-1.34.33-2.74l-1.71-1.27-.61-1.98c6.8-.53,14.14-2.08,20.76-2.76,2.61-.27,6.52,2.65,7.23-1.73-.49-2.5-12.6-2.38-14.99-1.52l6.98-5.52-1.64-2.36-19.34.88c2.16-4.29,9.3-3.88,13.4-3.04l1.59-2.44c-3.33-1.22-5.52-6.9-8.02-7.99-1.8-.79-7.96-.03-7.96-2.01,0-2.51,2.91-2.98,4.99-2.5v-2.98s-14-4.02-14-4.02l1.81-1.11-3.81-10.86c7.63,1.85,4.35-6.85,12-5.01v-5.98s-2.99-.99-2.99-.99l3.77-3.74.29-6.65-2.06-.63,3.99-3.5c.49-2.12-3.95-2.94-3.97-3.98,0-.36,3.76-3.28,1.52-6.55-1-1.47-5.98-1.19-6.54-3.94,2.08.07,7.57-1.45,7.92-3.63-1.75-2.17-1.51-5.43-2.44-7.35-2.03-4.18-11.89-3.13-15.47-5.51l3.26-2.26,7.74.76.97-5.56c2-1.49,7.27,4.34,8.04-.93l-4.02-1.52,1-3.98-5.99-.02,4.98-2.5-1.98-2.47h3s-1.07-6.94-1.07-6.94c-.26-.24-3.55-.26-4.29-.08-1.18.28,0,2.44-1.64,2.01l1-6c8.41,3.6,1.44-5.32,4.89-9.52-3.33-2.74-8.49,1.38-10.89-4.97,4.67-3.94,7.48,3.36,10.48,2.5,3.63-1.03-.26-10-4.48-9.49.95-2.56,7.39,1.74,6.99-3.49-5.34-1.66-11.63-.16-15.99-4.52-.99-2.06,3.47-1.97,4.71-2.79.74-.49.88-2.13,1.8-2.68l2.42,4.56,5.06.43-1-6.99-3.98,1c-1.03-3.87,5.12-1.17,5.99-2-.37-2.58-1.19-4.5,1.01-6.51l-1.8-.61c1.72-3.55-.41-2.21-1.15-3.66-.57-1.11.93-3.76-2.05-3.22-.38-1.87,2.8,0,1.98-2.47-1.16-3.47-3.52,1.64-4.7,2.3-2.87,1.59-6.08.25-9.11.02l-.16-6.82,3.47,2.99,4.39-6.68-.34-2.33c-.87-.84-2.23-1.16-3.07-1.99-3.76-3.72-3.04-3.78-5.39-7.56-1.22-1.96-7.26-5.45-9.02-6.98s-3.4-5.33-5.5-6.49c-3.44-1.9-6.69.71-7.88-3.92-.48-1.85,1.14-4.15-1.68-5.52-4.12-2-9.88-.94-9.49,4.49l-.5-4.98-6.02-.52-.98,2.51,3.99.99c-6.53,2.43-5.02-.25-7.03-1.41s-5.16-.55-5.97-3.56l10.06-.45.94-5.56c-2.94.04-11.99-.89-12.93,2.66l.92,3.33c-3.48.3-3.45-3.38-8-2v4.01c-4.98,1.08-3.05-3.57-4.63-5.1-.42-.4-10.35-3.83-10.92-3.87-4.12-.31-10.31,5.44-15.43,3.98.42,6.46,8.49-1.33,10.99,3.98-2.26.43-6.44.37-8.33,1.2-1.61.7-1.43,2.38-1.79,2.66-.23.18-4.41-1.57-5.87-.86,1.01,4.23-2.33,6.26-3.02,10l-2.97-1.05c4.92-9.51-17.64-6.43-16.6-1.91.22.96,1.26,2.46,2.26,2.8,2.14.72,6.4-1.03,7.33,1.15-3.73,1.6-7.61.67-11.44,1.06-2.89.29-5.03,3.46-8.87.02-1.08-.97-.66-2.88-1.64-3.58-1.32-.95-6.09-.9-8.05-1.49l1.01-5.99-3.98-.03c1.83-9.56-16.46-5.2-19.11-1.24-.74,1.26-.55,2.04.08,3.26-2.95-.07-7.9-.49-10.48.01-3.59.7-1.91,1.45-8,1.91-5.25.39-12.19.27-17.01,1.08-1.33.22-2.82.96-2.5,2.48,4.11,4.87,11.51,2.7,16.6,2.6,7.14-.14,14.43.15,21.8-1.2,8.54-1.58.69-4.75-.41-6.88,3.22.08,14.1.44,16.36,1.17,1.23.39,1.63,2.89,3.43,3.04l-.8,2.78c-7.47-8.52-11.3,1.73-12.69,2.05-2.18.5-4.66-1.16-6.75-1.02-1.65.11-2.9,1.51-4.27,1.75-4.47.79-11.28-1.05-8.28,6.2-1.81-.03-5.09-.44-5.99,1.52-1.19,2.59,3.43.46,2.98,2.47-2.56-.32-5.93.55-8.3-.02-.72-.17-.6-1.66-1.44-1.9-3.1-.92-6.96.04-9.25-3.57l2-1.13v-3.35s-11.43-.97-11.43-.97c-2.08.94-.44,2.97-1.26,4.68-1.11,2.31-4.26,1.71-3.18,4.61,1.22,3.25,5.98,2.69,8.86,3.68l-7.43,4.97-2.58-3.5,2.01-.98c-3.39-3.99-3.95.27-4.69.46-1.78.47-3.94-.21-6.09.68-1.32.55-1.41,2.25-2.26,2.76-2.48,1.48-7.23.75-8,5.07-.02,2.73,3.11,2.61,5.04,2.51l-2,5.47c.84,2.02,4.36,1.11,4.88,1.63.37.38-.11,2.86,1.03,4.46.6.83,2.26,1.19,2.99,2.01,2,2.24,5.17,7.38,8.43,6.4.93-.28-.25-2.43,4.11-2.04,5.65.51,7.71,4.51,1.67,5.12l-.21,3.87-2.86.09c-1.23,3.88,2.11,4.75,3.35,6.93.29.52,2.38,5.81,1.83,6.39l.75,1.17c2.47,1.68,8.14-2.59,10.02.46l-10.06,2.45-.94,4.55c5.98-.24,9.29,2.15,14,5.03-3.81,6.74-12.87-.34-14.98,8.48l4.98,1.5c1.02,2.61-1.77,1.59-2.02,2.65-.19.85-.23,3.79.13,4.22l6.87.12-1.89,6.36,2.9,3.63c-2.45-.5-15.38.55-16.01,2.51-1.13,3.52,2.15,2.37,3.4,3.4,1.11.91-.2,3.67,3.34,3.94,3.11.24,4.13-4.65,8.27-3.83l-1.1,3.36c6.08,2.55-1.85,9.99,5.1,13.61-3.48.71-12.55-4.29-13.03.5s4.77,7.29,6.04,11.48l-5.79,3.2c-1.5,3.81,1.31,3.66,2.79,5.8l-3.96,1.49,2.1,5.39,6.87.14-3.04,4.48,2.03,2-5.97,2.55-.04,2.95,3,.99-8.99,2.5c5.45,3.07,4.56,9.28,12,7.49l.09,3.89,4.89,2.1c-5.15,2.74-16.31-1.69-11.99,7-2.05.31-4.04-.98-6.08-.57-2.25.45-2.28,3.17-3.48,3.43-2.29.5-7.85-3.25-10.42,1.65l4.97,1.99c-1.42,3.97-6.66,5.57-3.98,9.49-9.08,1.52-.3,6.65,4.98,4.02l-3,4.97c4.13-.81,4.94,5.73,7.29,6.72,1.52.64,2.89.03,3.7.29-1.59,4.89,1.36,5.15,6,4.99,1.03-3.77-3.18-4.1-6-4.99.52-1.61.62-3.17,2.61-3.77l7.72.74,1.67,5.04c5.77-1.17,9.21-2.44,11.5,3.99,2.89.89,2.21-1.42,3.18-1.98,4.79-2.8,4.13.78,4.99.98,4.35,1.03,8.15-2.23,10.84,4.01,4.96-1.74.7-1.7-.5-3.99,3.03.47,10.91-5.88,12.95-3.96.29.27-.25,4.87,2.01,6.39l6.03.55-1.98-2.98c2.96.54,1.5-2.07,2.07-3.2.75-1.48,3.22-1.61,1.93-5.82h3.99s-.88,4.42-.88,4.42c3.35,4.55,6.83-1.91,10.98-1.9s19.85,7.54,20.9,6.48c.38-6.13-9.63-5.22-12.99-9.49l3.52-.99c4.88,1.66,20.18,10.82,24.49,8.02.96-.63,1.16-1.42.98-2.52-4.12,1.52-4.07-2.3-5.63-2.83-2.98-1.03-5.73-1.72-9.11-2.94-3.12-1.12-5.3,1.3-7.12-3.88,1.24-5.27,4.85,2.28,8.37-2.32,3.03,7.91,5.73,8.59,14.01,8.96,1.5.07,2.89.68,2.47-1.48l-7.92-3.59c1.88-6.18-1.23-7.34-4.58-11.91-3.28-.81-.55,5.66-6.05,5.9-.33.01-1.64-3.23-5.48-2.36-2.9-4.98,7.83-2.53,6.04-9.53-4.07.84-6.32-1.94-9.84-3.16l-.17-9.83c-3.77-1.39-3.32,4.39-6.49,2.99-1.94-.86-1.28-6.81-4.03-8.98-.97-.77-5.83-2.69-7.48-3.01l.48-1.97c3.51.2,11.92,4.89,11.31-1.22-.64-6.42-1.81-6.8,6.21-7.82v-2.98s-3-.5-3-.5c6.96-3.86,1.66-4.34,3.05-9.85l-2.05-1.63c3.26.5,1.87-3.53,1.93-5.96l-7.94-3.07c1.27-3.47,5.96-.6,7.98-3.48.02-1.93-12.1-2.93-13.97-.5-.06-6.33,13.06-1.05,13.98-2v-9.95s-4.97-2.54-4.97-2.54c.03-1.46,8.2-1.87,3.46-5.5-3.28.45-4.52,2.64-6.12,5.09l-4.35-1.09.67,3.01c3.15.36,5.2,3.06,8.31.97,2.26,8.53-6.13,6.48-11.03,2.35.28-2.69-.5-6.1.25-8.62.84-2.86,5.67-3.87,5.9-8.2.22-4.08-2.84-5.82-5.1-8.48l8.99,1.98c.92-3.97-2.66-3.66-3.99-5.98,2.66-2,7.52,1.34,8-2.5-3.21-1.26-5.62-3.72-9-1.5l-.05-2.92-3.96-.09c-.5-4.08,8.54-1.81,5.4-7.07-11.59-4.34,3.54-4.58,3.62-9.4l-9-1c3.89-3.06,8.34-3.49,12.99-2.5l-.07-5.94-2.94-.55,3.02-.5v-2.99c-.36-.35-7.6.8-8-1.99,1.53.28,9.89,2.35,8.52-1.01l-1.54-1.99,2.85-.18.23-2.68c.71-.72,5.79.97,8.36-2.24,1.51-1.89,2.23-3.51,5.34-4.81,3.91-1.63,9.5-2.4,13.56-4.88l8.16,4.78.5-2.99c2.5,2.13,4.73,2.34,7.99,2,1.13,3.96-6.4.44-6.99,3.51-.67,3.47,8.01,2.79,10.06,2.05l.94-4.57c.74-.76,6.51,1.5,6.9,2.11.14.22-1.25,2.44-.79,4.17s3.36,2.35,2.88,4.71c-4.97,1.94-10.72.7-11.03,7.49-.14,3.08,5.38.89,7.03,1.5-1.36,4.77,1.64,4.74,2.66,6.22.3.43-1.03,2.7,2.29,2.84l.04,1.42c-1.58,1.54-2.99,3.49-4.99,4.52-1.07-3.62-4.53-4.58-8.07-3.61-2.84.78-1.86,4.71-5.91,2.6l-1.02,6,6.44.07c.47-4.78,4.8-3.13,8.55-5.07,1.19,4.03-1.23,8.53,3.56,9.97l.35,1.37c-2.68,2.97-3.01,7.98-7.9,7.66l1,4.97-4.99,1.51,2.74,2.98-1.76,4.51,4.94-.1.06-2.89c4.87,1.71,5.14,1.75,10,.01l-1.47,5.03-4.88.95-.66,2.5,7.01,1.99c-2.57,3.03-8.84,2.57-7.99,7.5l8.99,3.99-2.1.6,1.1,3.4h-4s1.01,4,1.01,4c-1.23,1.72-18.61,0-16.01,8l12-.98-7.86,3.11v3.74s6.86,1.63,6.86,1.63l-9.86,2.63c-.45,1.59-.49,5.28,1.44,5.74l11.42-2.87c-4.16,2.69.25,7.59,0,7.96-.18.27-3.52.33-2.99,2.51l3.99,2.01-2.62,4.56-19.37,1.95c-1.29,5.46,2.55,7.54,7.38,5.84,2.56-.9-.45-4.66,7.85-1.58,1.25.46,4.97,2.49,5.75,3.72-4.34,2.42-8.47-.19-12.37.05s-6.27,3.16-9.62,3.95c2.46-9.57-13.83-10.36-11.99-3.52.63,2.36,4.94.44,4.98,2.52l-8.53,2.97c-4.5,9.73,6.05,14.82,12.56,9.53,1.54-1.25-.07-4.72,3.47-3.48,3.75,1.31-3.28,5.8-4.55,6.42-1.88.92-4.49,0-5.92,2.06,2.8,2.99,7.21,2.42,5.98,7.49l3.89.1,1.86,4.92,13.24-1.01c-2.53,2.38,2.39,7.61,4.48,8.01,1.96.37,11.5-.75,13.78-1.26,6.19-1.4,11.76-7,19.22-6.77-.75,6.45.92,7.55,7.51,7l-.99-4.99c5.59,0,11.08,2.6,16.5,2.97,5.84.41,10.76-1.53,16.49.02-2.96,4.85,3.16,3.79,2.96,2.38l-.97-2.37c1.65-.1,3.35.1,5,0-.48,1.4-2.72,2.7-1.99,4.99l4.51-.98.48,2.98c3.89.46-.43-4.1,3.55-6.05,3.05.11,6.21,6.87,8.44,5.05,2.12-1.73-2.1-2.01-2.01-2.49,2.39.06,1.65-2.88,2.12-3.33.24-.23,5.95-.93,6.61-.9,1.75.08,3.59,2.89,5.28,1.22l-2.92-1.61-.64-2.95c-3.55.38-7.42-.36-10.9.12-3.86.53-8.53,3.69-12.55,3.95ZM280.41,130.64c-5.09-1.11-7.76,2.89-11.36,3.98-1.29.39-1.89-.93-1.55,1.94,3.09-.06,5.27.14,6.64,3.03,3.65,1.32,9.1-6.85,6.27-8.95ZM344.5,132.57c-1.89.06-11.63.34-10.99,3.47s10.73-.1,10.99-3.47ZM279.5,140.56c-3.29-.14-5.83.22-6.97,3.5,1.44,2.06,3.95,1.9,6.04,1.06l.93-4.55ZM55.53,173.54c-5.52-.77-12.42,2.36-14,7.98,4.75.76,10.16,5.11,13.99.5l-3.01-2.98c2.82-1.29,3.46-2.18,3.01-5.49ZM421.5,178.53c.88-6.08-3.44-5.81-7.85-3.84l-.16,3.84h8.01ZM419.39,182.63c-2.75-.96-6.8-1.08-6.89,2.88l6.99,1-.1-3.89ZM561.37,196.62c-7.08-.95-10.27.61-7.88,7.89,4-.75,10.58-3.11,7.88-7.89ZM41.53,209.51c-1.51,8.74,13.84,3.15,13-.48-.54-2.32-7.33-2.9-9.45-2.59l-.72,2.89-2.82.18ZM43.53,229.49c3.15.55,6.2-1.3,6.99-4.48-1.74-2.68-4.43-.18-6.94-.46l-.05,4.94ZM53.52,233.49c.64-.79-.63-2.43-1.49-2.97-2.49,5.56-8.62,3.17-13.52,4.46-1.1.52-1.35,2.93-.97,3.5,1.36,2.02,16.3,4.35,17.97-1.48l-3.97-2.51c-.43-1.77,1.71-.65,1.99-.99ZM557.2,230.66c-16.94,2.27-14.13,10.84,1.27,9.32,3.17-1.47.91-5.94.52-8.51l-1.79-.8ZM404.3,281.24c-.54.23-7.21-3.48-9.65-.63l-.16,3.84,18-1-1.67-4.02c-1.79.14-4-.35-5.66.04-.75.18-.71,1.72-.85,1.78ZM11.52,292.47c-3.44-1.39-7.53-1.81-7.99,2.97,3.57,1.11,8.58,2.64,7.99-2.97ZM76.51,338.41c-.64-3.77,4.1-9.36-.69-10.78-2.26-.67-21.58-.04-22.2.88l-.09,3.9,15.4-1.06,1.52,3.62,5.07.45c.62,1.22-4.31,1.21-1.99,2.98.3.23,2.15-.12,2.97,0ZM161.51,331.42c-.55-.58-9.02,1.39-8.99,3.98,3.52.7,9.93,1.06,8.99-3.98Z"/>
  <path class="cls-3" d="M55.03,106.58c1.15-.01,5.23,1.28,5.49-.99l-17.99-2.01v-6.99s10,0,10,0c-3.99-3.25.63-4.83-.42-6.97L9.47,46.94c-2.53-4.14.66-2.92,1.54-4.31.76-1.21.19-3.09.73-3.79.49-.63,5.63-.78,4.8-4.2l-2.83-.18-.26-2.67c-9.63.71-19.23-6.91-3.91-8.15-.6-2.96-4.73-1.39-5.88-2.09l-.11-8.86c10.88-3.33,20.02,8.64,31.47,8.97l-.07-4.02c.82-1.36,7.39-2.91,8.98-2.71,2.11.26,4.03,3.16,7.09,3.25,3.37.1,5.78-2.97,8.92-2.54,2.17.29,4.82,3.21,7.59,3.03.64,9.57-12.25.04-13.99,6.98,4.37-2.57,9.2.67,11.5.66,1.82,0,4.8-4.43,7.58-2.24l1.41,3.58,2.55-6.94c6.16-.8,8.15-.02,11.95,4.45,6.47,7.61,9,7.46,15.05,12.94,36.88,33.4,72.83,68.99,108.95,102.96,16.62,15.63,35.69,37.24,52.96,50.99,1.5,1.19,2.89,2.57,5,2.48.26-5.23,5.73-6.19,10.01-7.01l-3.97-2.49c1.29-.22,3.03-3.13,3.24-3.22,1.77-.78,4.2.82,3.74-1.76-3.93-1.76-3.7-3.69-1.99-7.5l-7,1,5.06,6.5c-.01,2.61-6.06,5.26-8.44,4.39-1.87-.68-1.02-3.09-2.25-4-1.7-1.27-6.81-.39-5.1-4.72,1.37-2.5,7.28-3.1,7.58-3.41.38-.39-.07-1.91.4-2.47.5-.6,4.57-1.66,5.75-2.31.14-1.53-3.71-1.31-4.86-1.39-2.45-.16-6.57,1.93-7.12-2.08,3.44-5.11,9.82-1.84,13.98-5.03.31-2.38-.55-1.12-1.96-.95-1.6.19-10.49,1.97-11.02,1.46-.11-8.35,6.61-5.89,12.41-4.9,2.66.46,3.31,3.56,5.59-1.08l-3.05-.52,1.19-10.83,1.53-1.5c3.36.05,4.39.3,5.33-3.13l-6.99,1.98c-.05-1.38.16-3.18.92-4.32,1.12-1.69,3.99-.73,4.07-2.66l-4-.02,1.01-3.98-8.98-3.51,4.98-2.51c.6-3.1-1.39-1.7-3.34-1.97-2.99-6.2,4.35-3.29,6.34-8.52l-2.95-2.09.95-4.38-5.99,3.49,4,.5c1.91,4.19-9.69,7.3-11.01,6-.13-3.66-.84-6.06,3.01-7.51l-3-3.97,5.98-3.52-2.89-1.08-.1-3.9,7.04.46-.04,4.53,6-1.98v4.98s5-6.98,5-6.98l-12.53-2.96-.46-4.04,5.99.99-2.1-6.52,2.1-2.95c-1.34-3.4-9.63-2.68-13-3.52v-2.97s5-2.01,5-2.01l-5.87-1.13-1.06-5.44-30.57-30.4-.55-6.4,4.06-2.11c-3.8-.9-1.94-3.06,1-3.51l-1.91-2.48c1.93-3.03,3.84-2.67,6.86-1.43l.05,2.93-3,.99,3.51.97,1.46-4.5c3.69.27,12.23-1.66,11.03,3.55,2.16-1.35,6.66-3.52,8.5-.97s-.82,3.89,6.49,2.95l-4.07-2.57,1.01-5,9.05-.41-2.48,6.01c3.9-.71,6.84-2.77,8.29-6.52-.99-2.41-3.49-2.05-5.46-2.87-.33-.13-.38-1.43-1.04-1.58-3.7-.84-8.8,2.27-7.86-4.06,4.02-3.39,9.08.82,12.11,1,3.68.22,8.97-1.99,13.49.48l.99,4.85-3.03,2.67c3.06.09,3.26,2.38,3.01,5.02h2.98c.65-3.97-1.82-5.98,1.64-10.06l10.42.51c1.07.74,1.07,1.84.99,3-.05.69-3.37,4.68-.53,4.52,1.27-.07,3.27-4.5,3.72-4.75,1.34-.75,4.31.41,5.36-1.15l.43-5.07h12s-.17,12.33-.17,12.33l-6.81,5.16,8.5,2.48c1.35-1.53-.28-5.39.64-6.82.26-.41,6.84-2.77,7.33-6.1,5.22,3.24,9.33.96,11,8.96l2.51-.02c-2.56-1.3,3.01-6.71,3.62-6.89,3.91-1.12,7.95,2.75,5.84,6.95,3.53,3.09,9.58,1.7,8.56,7.91l3.98.03-1.02,5.98,6,2.52c-.43,4.95-6.89.66-7.99,1.49l1.01,5.98,5.97,1.51c-.08,2.06-22.42,6.55-25.97,7.52v2.98s3.98.53,3.98.53c-.58,2.97-1.22,4.71-4.03,5.98l1.93,4.76c-1.52,2.73-3.72,4.19-6.9,3.7l1.16-5.81,1.85-.67c-8.06-5.53.85-2.98,2.99-7.48-5.59,2.33-10.75-6.11-15.03-1.53-.34.36-3.33,9.16-2.97,9.51,11.16-.3,15.08,9.81,1.01,6.01,2.83,6.09-4.58,10.61-9.99,11l9.98,2.5-7.97,3.98,7.05,4.16c-1.28,5.52-3.03,4.94,1,9.84l-3.13,3.18.1,17.62-14.03,4.16c2.09.81.88,3.34,1.05,3.44.55.32,2.28-.16,3.16.31,1.64.87,2.57,2.18,4.08,2.96,3.06,1.58,6.73.59,5.72,4.79-2.97-.18-5.96.06-7.99,2.5,2.75,3.32,7.36-.54,10.97.51l-1.99,3.98,1.99,1.5c-4.02,2.04-3.46,3.48-4.01,7.5,1.82,0,4.43-.24,5.01,1.99l-4,1.51,2,3.49-7.38-.76c-3.29,1.36-2.7,4.84-2.61,7.76l2-4,6,1.02-1.06,3.43c3.53.9.53,3.52,2.05,6.55l-5.98-1c.76,4.57-4.34,3.87-6.01,7,4.93,2.66,5.21-1.47,9.47-1.98l3.41,6.63-1.8,1.78,1.99,8.93-3.06,2.14c2.54,1.31,1.59,9.32,2.21,10.35.47.78,3.56.65,2.77,3.15l-3.86.12-1.14,8.87c1.82-.08,4.96-.27,5.01,2.5l-4,.52,2.99,3.98-10.99.02,8.99,5.5-2.99,2.98c2.84,3.62,4.51,8.3,2.92,12.76-.32.9-1.9.76-1.98,1.37-.21,1.8,1.99,4.21.6,6.36l-6.88,2.98-.66,3.01,8.99-.99c-.16,2.13-.86,5.17.02,7.19.69,1.58,3.2,1.18,2.99,3.29l-7,.52c-.33,1.89,1.94.42,2.82,1.19.26.23.09,1.71.86,2.86.16.23,5.05,3.02.77,3.89-1.71.34-9.59-2.58-12.44-.45l14.97,7c-3.74,5.09-11.1-3.67-12.48,1.47l1.5,3.02c-.57.77-7.77.23-6.99,4l8.89-1.1.1-3.9,4.54.96.26,2.92-1.8,1.12c11.33.54-.49,8.84-6,9.05l1,3.95,2.63-2.03,4.42.47c2.58,1.75-.6,6.94-.05,7.55,1.69-1.34,5.55-1.18,4.99,1.49s-4.95-.15-5.99,2.02l4.85,1.64.14,3.85-3.56-.91c-1.24,3.85-6.68,2.31-4.44-2.08-.52-.57-12.84,4.04-14.98,2l1.91,6.37-4.91,3.62c.37-3.32-.81-5.4-3.96-6.54-4.85-1.77-1.69,1.31-2.98,2.07-1.69.98-6.09-.88-6.83-1.75-.68-.8-.03-2.45-.24-2.77-.15-.22-2.96,1.72-5.33.89-1.39-.49-3.91-5.5-9.22-4.82L116.02,153.55c-1.16,3.69-2.34,7.77-.72,11.54l-3.77,2.44,3.04.67c-1.16,4.79,3.91,3.79,3.95,7.33-3.33-.78-8.89-.44-11.77-1.65-2.27-.95-1.17-4.64-5.09-2.19-2.71,8.41.63,12.73,8.86,13.84,1.82-2.59-2.05-4.92-.53-7.03,2.69-3.75,11.61,2.14,2.53,3.05l3.01,6.46-4.01,2.02c.04,1.81,5.72-1.91,7,1.01,1.06,2.44-2.8.83-3,1.98-.81,4.49,2.75,4.16,3.04,4.99,1.27,3.76-2.66,1.83-3.04,2.99-1.16,3.46,1.89,3.6,2.02,4.17,1.51,6.6-5.92,8.05-10.99,7.33-.84,4.13,7.67,3.65,8,4l-.05,2.93c-4.37,1.51-13.68,3.84-14.78,8.82-.43,1.96,1.06,3.91.4,5.24-.82,1.65-3.55,1.25-3.57,2.98l9.88-.11c-.43-5.79,3.71-4.49,4.11-4.88.9-.9-5.44-10.31,4-8.99l.47,8.06c2.67.91,4.59-.87,6.53,2.44l-5.99-.5c1.29,3.07.38,3.84-1.05,6.48,1.99.97,2.42.85,2.03,3.5-6.13-1.06-12.04-.34-17.99,1.5,3.68,4.9,10,1.57,14.95,1.54l.59,4.01-4.53,2.94,4.34,1.01c2.86,3.89-3.14,3.3-4.35,5.99,2.83.53,4.81.63,6.11,3.45,1.6,3.46-.76,3.76-.85,5.84-.05,1.09,1.26,8,1.75,8.94,10.42,9.57,20.74,19.48,30.51,29.72,1.5,1.57,1.89,3.75,3.04,4.96,3.59,3.76,11.25,5.96,10.44,12.06h-4s2,2.99,2,2.99c-5.02.75-5.05,5.97-12,4l.99-3.98-13,2c-.65,3.84,4.34-.24,7.02,1.46,1.04.92,1.39,1.25.49,2.53-1.98,2.8-11.89-2.44-15.41-2.52-1.96-.05-3.83,1.55-6.59,1.62-1.74.04-8.2-.68-9.81-1.08s-1.14-4.31-1.83-4.88c-.37-.3-8.91-1.82-9.39-1.77-3.25.37-2.07,6-2.58,6.56l-2.9.07,1,3.98c-6.44.64-3.64-4.65-4.44-5.99-2.35-3.96-11.34-2.51-15-3.06-2.97-.45-5.4-2.62-9.06-2.94-6.08-.53-10.13,3.32-16.5,1.99v4.01c-6.91-1.79-9.53.59-14.49,4.97l-.5-5.97c-2.72-.52-10.24.92-12.07-.44-1.55-1.16.54-3.8-3.46-3.47.88-5.99-7.05-4.78-9.51-8.8-3.5-5.71,3.76-10.3,8.06-4.75.3,1.53-4.23,3.58.47,4.46,4.05-5.3-2.29-7.29-4.46-10.49l5.98-1.5c-1.43-4.09-1.09-12.99,5.03-11.54,3.34.79.21,5,6.4,3.62-.34-4.36,5.23-3.47,5.56-4.57.69-2.3-6.09-2.54-6.7-5.47l-4.3-.02c-.15-2.97,3.03-4.13,4.99-5.49-1.35-3.17-11.31,2.08-7.86-3.37.17-.27,5.15-2.45,5.85-2.66,5.91-1.76,5.56,2.08,2.02,5.52,5.77.69,10.57-3.57,12.01-8.98h-3.01c-.75-6.47,7.8-3.33,12-4.02l-9.11-2.43c.6-2.54-2.68-7.11-2.61-8.06.2-2.9,7.06-4.63,9.49-3.23.42.24,6.58,6.35,6.78,6.79.6,1.33-.83,2.63-.55,2.94,5.31-.32,2.05-6.27,1.9-9.49-.27-5.74.79-11.03.97-15.93.03-.81-.87-9.42-1.03-9.89-.84-2.62-6.79-1.89-6.89-7.13-.04-2.46,1.23-1.37,3.05-1.53-3.34-5.56,4.75-4.81,3.82-9.21-.3-1.4-2.69-3.35-1.83-5.78-1.61,1.4-13.83,3.13-13.96.51,1.92-3.26,3.63-6.13,7.97-5.51-.8-2.58-3.86-1.99-5.99-1.99-2.46-2.07,11.86-11.12,10-.99,10.58-1.38,3.05-5.04,2.94-5.67-.41-2.33,1.88-9.36.01-12.81l3.03-1.49c-2.52.87-1.56-2.8-2.56-3.08l-5.89.14-.6-2.96c-10.61,1.25-12.86-5-.94-4.12l-.56-4.03c2.25-1.7,5.94-1.82,6.59,1.52.61,3.13-.66,2.63-3.03,2.53.99,3.15,1.6,3.43,5,2.98-2.03-4.64.44-8.53.05-13.32l-4.01-1.75-.05-6.91c1.25.25,4.93-.24,4.99-1.5.16-3.44-6,1.4-6.97.49l1.99-3.98-5.75-1.25c-1.34-1.11-1.16-5.42.41-5.81l9.33,1.05c.16-2.52.56-3.78-2.02-4.48l.04-2,2.84-1.64.13-2.36-2.98-1.53,2.99-4.96c-2.04-.44-8.6,1.63-6.99-2.5,1.3-3.33,6.41,2.47,7.98-1.49-3.21-.38-2.91-1.36-2-4.01-4.56,5.35-19.96,4.22-18.99-4,5.49-.04,11,.05,16.5,0ZM28.53,26.63l-11.37-4.91c-3.15.8-3.73,8.26-1.17,8.71,6.87-.55,5.22-7.17,12.54-3.8ZM54.53,49.63l-14.99,1.49c6.45,6.13,11.67,15.59,20.99,6.99-2.62-.77-2.18-1.92-2-4.5l-3.99,1.01v-4.99ZM331.51,66.61c.72-5.81-6.08-4.71-9-1.49,3.58,2.29,4.38,2.1,9,1.49ZM88.46,69.73l-4.93.87c4.78-1.17,2,3.02,3.96,4.53.48.37,4.53,1.34,5.05,1.02l.98-3.54-4.93-.12-.12-2.77ZM143.87,103.24c-8.56-8.05-16.72-17.13-25.29-25.18-5.21-4.89-4.49.48-7.79,1.39-1.36.37-2.84-.54-3.75-.35-2.17.47-4.38,2.54-7.51,1.5-.86,2.14,2.05,3,3.51,2.88,2.47-.2,14.01-5.93,15.48-2.37.82,1.98-6.22,3.43-7.31,4.66l-6.67,1.83c-.24,1.73,2.28.95,3.48.99,3.42.12,10.49-1.58,10.51,2.99h-4.99s1.99,10,1.99,10c-9.51-3.09-8.68,6.57-13,12.47,7.55,6.3,6.45-7.79,15.02-3.98,2.06,2.11-2.16,1.96-2.6,4.42-.63,3.55,2.7,6.35-3.41,8.57l156.43,156.44c1.74,1.89,5.49.48,6.9-.99,1.3-1.36-.29-3.57,2.15-3.06,6.53,4.83.95,9.37,2.97,16.03l4.53-.05c-4.86-5.83-5.31-16.64,4.99-11.98,1.87-2.26-5.6-3.32-7.07-5.41-1-1.43-.99-2.94-.93-4.58-2.82,1.68-5.08.86-7.99,0,1.02-5.84,5.01-6.16,9.99-7l-6.99-2.51c-.41-2.15,7.95-8.76,7.66-11.94-.18-1.95-3.31-2.83.38-7-3.78-1.01-2.9-8.18-3.95-10.04-1.95-3.45-10.25-9.3-13.03-12-40.43-39.23-82.45-76.91-123.7-115.72ZM335.5,77.62c-3.05-.89-6.32-1.45-9.52-1.01-1.35.18-3.18.73-1.48,1.99,2.68-.98,11.27,3.74,11-.98ZM330.28,98.84c-6.75.72-6.64,3.46-3.15,8.61,8.08,1.8,4.49-3.39,8.35-7.37-1.46-2.15-3.08-1.47-5.2-1.24ZM90.78,153.83c.84-.98,3.37-.79,2.73-3.28l-4.63,4.08-3.35-1.09c-1.16,2.7.27,3.54,1.02,5.99,3.8.5,3.31-4.62,4.24-5.71ZM285.51,160.53c3.4.77,8.14,2.51,10.98-.49.01-1.45-10.84-3.96-10.98.49ZM285.23,195.79c-1.72-1.15-8.91-.46-11.23-.26-7.2.64,2.09,3.98,2.96,5.03,1.45,1.76.21,4.89,5.05,3.97.4-.08,1.5-5.61,5.5-5.03.12-.18-2.04-3.55-2.28-3.7ZM334.3,227.66l-9.8-1.16-1,3.98c3.82-2.13,7.53,1.72,10.46.99,1.69-.42,1.33-3.12.34-3.81ZM332.5,246.49l-3.02.57-.03,5.37c-.22.21-6.98-.03-3.96,2.53,4.94,4.19,12.73-2.89,10.92-4.38l-5.92-1.12,2-2.98ZM101.52,317.43c-4.35.04-9.5-.79-12.97,2.49l11.5-.5,1.48-2ZM22.53,324.41c5.37,1,8.22-1.14,11.98-4.49.09-1.7-7.02-1.93-8.36-1.56-.41.11-2.13,5.14-3.62,6.05Z"/>
  <path class="cls-3" d="M463.49,96.59c-.63-1.22-.82-2.01-.08-3.26,2.65-3.97,20.93-8.33,19.11,1.24l3.98.03-1.01,5.99c1.96.59,6.72.55,8.05,1.49.97.69.55,2.61,1.64,3.58,3.84,3.44,5.98.27,8.87-.02,3.82-.38,7.71.54,11.44-1.06-.93-2.18-5.19-.43-7.33-1.15-1-.34-2.04-1.84-2.26-2.8-1.03-4.52,21.52-7.6,16.6,1.91l2.97,1.05c.7-3.74,4.03-5.77,3.02-10,1.46-.7,5.64,1.05,5.87.86.36-.28.19-1.96,1.79-2.66,1.89-.83,6.08-.77,8.33-1.2-2.5-5.31-10.58,2.48-10.99-3.98,5.13,1.46,11.31-4.28,15.43-3.98.58.04,10.51,3.47,10.92,3.87,1.58,1.54-.35,6.18,4.63,5.1v-4.01c4.56-1.38,4.52,2.3,8,2l-.92-3.33c.93-3.55,9.99-2.62,12.93-2.66l-.94,5.56-10.06.45c.81,3.01,4.04,2.45,5.97,3.56s.51,3.84,7.03,1.41l-3.99-.99.98-2.51,6.02.52.5,4.98c-.39-5.43,5.37-6.5,9.49-4.49,2.82,1.37,1.2,3.67,1.68,5.52,1.2,4.62,4.44,2.02,7.88,3.92,2.1,1.16,3.81,5.01,5.5,6.49s7.81,5.02,9.02,6.98c2.35,3.79,1.63,3.85,5.39,7.56.84.83,2.2,1.14,3.07,1.99l.34,2.33-4.39,6.68-3.47-2.99.16,6.82c3.03.23,6.24,1.58,9.11-.02,1.18-.66,3.55-5.77,4.7-2.3.83,2.47-2.36.6-1.98,2.47,2.98-.54,1.48,2.1,2.05,3.22.74,1.45,2.87.11,1.15,3.66l1.8.61c-2.2,2.01-1.38,3.93-1.01,6.51-.87.83-7.02-1.87-5.99,2l3.98-1,1,6.99-5.06-.43-2.42-4.56c-.92.55-1.06,2.2-1.8,2.68-1.24.82-5.69.73-4.71,2.79,4.35,4.36,10.65,2.86,15.99,4.52.4,5.23-6.04.93-6.99,3.49,4.22-.52,8.11,8.45,4.48,9.49-3,.85-5.81-6.44-10.48-2.5,2.4,6.35,7.56,2.24,10.89,4.97-3.44,4.2,3.52,13.11-4.89,9.52l-1,6c1.64.43.45-1.73,1.64-2.01.74-.18,4.03-.16,4.29.08l1.07,6.93h-3s1.98,2.49,1.98,2.49l-4.98,2.5,5.99.02-1,3.98,4.02,1.52c-.78,5.27-6.04-.56-8.04.93l-.97,5.56-7.74-.76-3.26,2.26c3.58,2.39,13.44,1.33,15.47,5.51.93,1.92.69,5.18,2.44,7.35-.35,2.18-5.84,3.7-7.92,3.63.57,2.75,5.54,2.47,6.54,3.94,2.24,3.28-1.52,6.19-1.52,6.55.02,1.04,4.46,1.85,3.97,3.98l-3.99,3.5,2.06.63-.29,6.65-3.77,3.74,3.01.99v5.98c-7.67-1.83-4.38,6.86-12.01,5.01l3.81,10.86-1.81,1.11,13.99,4.02v2.98c-2.06-.47-4.98,0-4.98,2.5,0,1.98,6.16,1.22,7.96,2.01,2.49,1.09,4.69,6.77,8.02,7.99l-1.59,2.44c-4.11-.84-11.25-1.26-13.4,3.04l19.34-.88,1.64,2.36-6.98,5.52c2.39-.86,14.5-.98,14.99,1.52-.71,4.38-4.62,1.46-7.23,1.73-6.61.68-13.96,2.24-20.76,2.76l.61,1.98,1.71,1.27c.59,1.4.03,1.69-.33,2.74,4.02-.26,8.68-3.42,12.55-3.95,3.47-.48,7.35.27,10.9-.12l.64,2.95,2.92,1.61c-1.69,1.67-3.53-1.14-5.28-1.22-.66-.03-6.37.67-6.61.9-.47.45.27,3.38-2.12,3.33-.1.48,4.13.76,2.01,2.49-2.23,1.83-5.39-4.94-8.44-5.05-3.98,1.95.35,6.51-3.55,6.05l-.48-2.98-4.51.98c-.72-2.29,1.51-3.59,1.99-4.99-1.65.11-3.35-.09-5,0l.97,2.37c.19,1.41-5.92,2.47-2.96-2.38-5.74-1.56-10.65.38-16.49-.02-5.42-.38-10.91-2.98-16.5-2.97l.99,4.99c-6.59.55-8.26-.55-7.51-7-7.46-.23-13.03,5.37-19.22,6.77-2.28.52-11.82,1.63-13.78,1.26-2.09-.4-7.01-5.63-4.48-8.01l-13.24,1.01-1.86-4.92-3.89-.1c1.23-5.07-3.18-4.5-5.98-7.49,1.43-2.06,4.03-1.15,5.92-2.06,1.27-.62,8.3-5.11,4.55-6.42-3.55-1.24-1.93,2.22-3.47,3.48-6.51,5.3-17.05.2-12.56-9.53l8.53-2.97c-.05-2.08-4.35-.16-4.98-2.52-1.83-6.84,14.46-6.05,11.99,3.52,3.35-.79,5.88-3.72,9.62-3.95s8.03,2.37,12.37-.05c-.78-1.23-4.5-3.25-5.75-3.72-8.3-3.08-5.3.68-7.85,1.58-4.84,1.7-8.68-.38-7.38-5.84l19.37-1.95,2.62-4.56-3.99-2.01c-.53-2.17,2.81-2.24,2.99-2.51.25-.37-4.16-5.27,0-7.96l-11.42,2.87c-1.93-.47-1.89-4.15-1.44-5.74l9.86-2.63-6.85-1.63v-3.74s7.85-3.11,7.85-3.11l-12,.98c-2.6-8.01,14.78-6.28,16.01-8l-1.01-3.98h4s-1.1-3.42-1.1-3.42l2.1-.6-8.99-3.99c-.85-4.92,5.42-4.47,7.99-7.5l-7.01-1.99.66-2.5,4.88-.95,1.47-5.03c-4.86,1.74-5.13,1.7-10-.01l-.06,2.89-4.94.1,1.76-4.51-2.74-2.98,4.99-1.51-1-4.97c4.89.32,5.22-4.7,7.9-7.66l-.35-1.37c-4.79-1.44-2.37-5.95-3.56-9.97-3.76,1.93-8.08.29-8.55,5.07l-6.44-.07,1.02-6c4.05,2.11,3.07-1.82,5.91-2.6,3.54-.97,7-.01,8.07,3.61,1.99-1.02,3.41-2.98,4.99-4.52l-.04-1.42c-3.32-.13-1.99-2.4-2.29-2.84-1.02-1.48-4.02-1.45-2.66-6.22-1.65-.61-7.17,1.58-7.03-1.5.31-6.8,6.06-5.56,11.03-7.49.48-2.35-2.41-2.93-2.88-4.71s.93-3.95.79-4.17c-.39-.61-6.16-2.87-6.9-2.11l-.94,4.57c-2.05.74-10.73,1.42-10.06-2.05.59-3.06,8.12.46,6.99-3.51-3.26.34-5.49.13-7.99-2l-.5,2.99-8.16-4.78c-4.07,2.48-9.65,3.24-13.56,4.88-3.11,1.3-3.83,2.92-5.34,4.81-2.57,3.21-7.65,1.53-8.36,2.24l-.23,2.68-2.85.18,1.54,1.99c1.37,3.36-6.99,1.29-8.52,1.01.4,2.79,7.64,1.64,8,1.99v2.99s-3.02.5-3.02.5l2.94.55.07,5.94c-4.65-.99-9.1-.56-12.99,2.5l9,1c-.08,4.83-15.21,5.07-3.62,9.4,3.15,5.26-5.9,2.99-5.4,7.07l3.96.09.05,2.92c3.39-2.22,5.79.24,9,1.5-.48,3.84-5.34.5-8,2.5,1.33,2.32,4.91,2.01,3.99,5.98l-8.99-1.98c2.26,2.66,5.32,4.4,5.1,8.48-.23,4.33-5.06,5.35-5.9,8.2-.74,2.52.03,5.93-.25,8.62,4.9,4.14,13.29,6.19,11.03-2.35-3.12,2.08-5.17-.61-8.31-.97l-.67-3.01,4.35,1.09c1.6-2.45,2.85-4.65,6.12-5.09,4.74,3.63-3.43,4.04-3.46,5.5l4.98,2.54v9.95c-.92.95-14.05-4.33-13.99,2,1.87-2.43,13.98-1.43,13.97.5-2.02,2.88-6.71,0-7.98,3.48l7.94,3.07c-.06,2.43,1.33,6.46-1.93,5.96l2.05,1.63c-1.39,5.51,3.91,5.99-3.05,9.85l3,.5v2.98c-8.02,1.02-6.85,1.4-6.21,7.82s-7.8,1.42-11.31,1.22l-.48,1.97c1.65.32,6.51,2.25,7.48,3.01,2.75,2.17,2.09,8.12,4.03,8.98,3.17,1.41,2.72-4.37,6.49-2.99l.17,9.83c3.52,1.22,5.77,4,9.84,3.16,1.79,7-8.94,4.55-6.04,9.53,3.84-.86,5.15,2.38,5.48,2.36,5.49-.23,2.77-6.7,6.05-5.9,3.36,4.57,6.46,5.73,4.58,11.91l7.92,3.59c.42,2.16-.97,1.54-2.47,1.48-8.28-.37-10.98-1.06-14.01-8.96-3.52,4.6-7.14-2.95-8.37,2.32,1.82,5.18,4.01,2.76,7.12,3.88,3.38,1.22,6.13,1.91,9.11,2.94,1.56.54,1.51,4.35,5.63,2.83.19,1.1-.02,1.89-.98,2.52-4.31,2.8-19.61-6.36-24.49-8.02l-3.52.99c3.36,4.27,13.37,3.36,12.99,9.49-1.05,1.06-16.96-6.47-20.9-6.48-4.15,0-7.63,6.45-10.98,1.9l.88-4.4h-3.99c1.29,4.19-1.18,4.33-1.93,5.8-.57,1.13.9,3.74-2.07,3.2l1.98,2.98-6.03-.55c-2.26-1.52-1.72-6.12-2.01-6.39-2.04-1.92-9.92,4.43-12.95,3.96,1.21,2.29,5.46,2.24.5,3.99-2.69-6.24-6.49-2.97-10.84-4.01-.85-.2-.19-3.78-4.99-.98-.97.56-.29,2.87-3.18,1.98-2.29-6.43-5.73-5.16-11.5-3.99l-1.67-5.04-7.72-.74c-1.99.6-2.09,2.16-2.61,3.77,2.82.89,7.02,1.22,6,4.99-4.64.16-7.58-.1-6-4.99-.81-.26-2.18.35-3.7-.29-2.35-.99-3.17-7.53-7.29-6.72l3-4.97c-5.28,2.63-14.07-2.5-4.98-4.02-2.68-3.92,2.56-5.52,3.98-9.49l-4.97-1.99c2.57-4.89,8.13-1.14,10.42-1.65,1.2-.26,1.23-2.97,3.48-3.43,2.04-.41,4.03.88,6.08.57-4.32-8.68,6.84-4.26,11.99-7l-4.89-2.1-.09-3.89c-7.44,1.79-6.55-4.42-12-7.49l8.99-2.5-3-.99.04-2.95,5.97-2.55-2.03-2,3.04-4.48-6.87-.14-2.1-5.39,3.96-1.49c-1.48-2.14-4.29-2-2.79-5.8l5.79-3.2c-1.26-4.19-6.51-6.86-6.04-11.48s9.55.21,13.03-.5c-6.96-3.62.98-11.05-5.1-13.61l1.1-3.36c-4.14-.82-5.16,4.07-8.27,3.83-3.54-.27-2.23-3.03-3.34-3.94-1.25-1.03-4.54.12-3.4-3.4.63-1.96,13.56-3.01,16.01-2.51l-2.9-3.63,1.89-6.36-6.87-.12c-.36-.43-.33-3.38-.13-4.22.24-1.06,3.04-.04,2.02-2.65l-4.98-1.5c2.11-8.83,11.17-1.74,14.98-8.48-4.71-2.87-8.03-5.26-14-5.03l.94-4.55,10.06-2.45c-1.88-3.05-7.55,1.22-10.02-.46l-.75-1.17c.55-.58-1.53-5.87-1.83-6.39-1.23-2.18-4.58-3.05-3.35-6.93l2.86-.09.21-3.87c6.04-.61,3.98-4.61-1.67-5.12-4.36-.4-3.18,1.76-4.11,2.04-3.26.98-6.43-4.16-8.43-6.4-.73-.82-2.39-1.18-2.99-2.01-1.15-1.59-.66-4.08-1.03-4.46-.52-.53-4.04.39-4.88-1.63l2-5.47c-1.93.1-5.06.21-5.04-2.51.77-4.33,5.52-3.6,8-5.07.85-.51.94-2.21,2.26-2.76,2.15-.9,4.31-.22,6.09-.68.73-.19,1.29-4.45,4.69-.46l-2.01.98,2.58,3.5,7.43-4.97c-2.89-.99-7.65-.43-8.86-3.68-1.09-2.9,2.07-2.3,3.18-4.61.82-1.71-.81-3.74,1.26-4.68l11.43.97v3.35s-2,1.13-2,1.13c2.29,3.61,6.15,2.65,9.25,3.57.84.25.72,1.73,1.44,1.9,2.37.56,5.74-.3,8.3.02.44-2.02-4.17.12-2.98-2.47.9-1.97,4.18-1.55,5.99-1.52-3.01-7.25,3.81-5.41,8.28-6.2,1.37-.24,2.62-1.65,4.27-1.75,2.09-.14,4.58,1.52,6.75,1.02,1.39-.32,5.22-10.57,12.69-2.05l.8-2.78c-1.8-.15-2.21-2.65-3.43-3.04-2.26-.72-13.13-1.09-16.36-1.17,1.1,2.13,8.95,5.3.41,6.88-7.37,1.36-14.66,1.06-21.8,1.2-5.09.1-12.49,2.27-16.6-2.6-.32-1.52,1.17-2.26,2.5-2.48,4.83-.81,11.76-.69,17.01-1.08,6.08-.46,4.41-1.21,8-1.91,2.58-.5,7.54-.08,10.48-.01ZM574.28,110.75l-7.33,1.77c1.27,4.28-3.91,4.81-3.49,9.05-1.72,1.55-10.18-5.51-6.35-6.01l3.35-.97-8.33.94c-1.69.94-.09,7-3.66,7.54l2.85,1.31,1.53-1.71c4.36,2.36,9.05,4.15,13.35,6.62,2.6,1.5,5.6,4.51,7.59,5.94,5.61,4.04,16.48,8.72,13.67,17.31l5.98,1.51-7.98,3.51c1.93,2.32,2.43,4.48,2.09,7.55-.27,2.41-2.29.62-2.09,2.42,1.72-.09,3.36.04,5.04.46,14.8,3.73-.9,4.03-3.11,6.05-1.4,1.28,1,4.2-.4,6.51-1.02,1.68-4.35,1.03-4.53,2.96,5.05,3.28,8.82-3.91,13,.54-4.87,5.43,2.52,4.64.99,7.96-.91,1.96-4.04.55-3.99,2.49l3.96,1.07.04,2.94h-3.01s3.01,6,3.01,6c-5.71-1.26-2.43,3.48-8.02,4.5l8.01.5c1.31,3.67-3,2.88-3.01,5.48l3.01,2.99c-1.06,2.37-5.08.93-5.88,1.69-.43.41.51,3.44-2.11,2.84l4.97,2.48-1.08,2.41c-2.45.36-4.95-.08-7.41.09-1.11.08-3.3-.56-2.47,1.49,1.88,4.61,8.63-.33,12.01,2l1.01,3.02-2.02,1.48,5.98,1.5-5.98,2.53,4.97,3.48-5.97,2.54,1,7.94-4.3.03-9.7,5.96c2.64,1.38,14-3.04,13.5,1.02-.43,3.46-4.52,1.31-5.5,3.97l6.95.05c.47,11.4,9.94,9.19,18.05,6.95v-5.98c-5.55.55-12.3-1.33-5.02-5.5-1.5-1.18-7.76-5.66-6-7.49l6-.99c-11.83-2.22-4.04-10.2,4.79-8.24l5.22-5.75-4.57-.88-2.94,2.85c-2.15-6.42-4.17-3.7-7.25-5.23-.37-.18-5.24-5.84-5.21-6.25,3.11-2.87,7.97-3.94,11.97-2.49l.05-4.33c-.2-.86-8.31-3.43-10.03-4.22-1.19-.55-2.45.15-2.04-1.94.26-1.63,2.22-3.83,3.74-4.29,2.02-.6,9.39,1.43,9.27-.71-.1-1.68-4.51-1.46-5.82-1.64l-.04-7.74c2.78-.38,5.61.04,8.41-.11,1.13-.06,2.74.65,2.47-.99-5.31.84-4.55-3.35-5.6-4.11-2.96-2.15-5.93-.48-1.4-7.4.89-1.37,10.52.86,9-1.97l-6.51-3.5c-.63,4.14-12.54,5.71-11.48,1.5l4.99-5.01c-2.67-1.1-4.63-.8-4-4.49l14.01-3.01-1.01-4.99,3.84-.14,1-2.54c.12-3.5-6.45-3.4-8.78-3.42l-.06-2.89-1.97.49c1.36,1.51-.38,6.08-3.02,5.5.65-4.32,1.03-8-1-11.97,2.48-1.98,12.04-2.79,13.05-3.46,5.12-3.4-4.13-6.86-6.57-7.54l1.5-2.5c-1.39-2.59-3.16-.21-4.96-.96-1.16-.49-2.73-3.43-4.81-3.73-1.12-4.17,2.82-6.35.78-10.8l-5.98,2v-3.99s-6.98-1.05-6.98-1.05c-1.13-4.73,1.87-1.52,2.96-3.93-5.87-.77-15.02,1.15-18.19-4.84ZM518.48,149.56c-4.29.04-8.63-3.55-9.16,2.82l-10.83,2.16c3.51-1.37,7.65,2.23,10.25,1.85,1.37-.2,11.51-5.38,9.74-6.82ZM457.49,153.56c-6.36,1.17-9.54-2.85-15.68-1.14-1.71.47-2.79-.72-2.31,2.13,4.36-.06,18.13-.95,11.99,5.98,4.1.07,1.78,3.12,2.96,4.49,2.71,3.15,7.82.63,6.04,7.53,3.45-.98,8.39,2.89,10.01-1-6.4,1.51-12.78-3.35-3-4.02l-3.01-3.48,3-1.5-2.85-.13-1.15-6.87-1.6,2.07-5.39-1.08,1.01-2.98ZM499.48,164.55l1-6-11.99,2.01c.21,1.88,3.35,1.37,3.89,3.68.29,1.28-1.14,3.1-.89,3.3h3s-.99-3.98-.99-3.98l5.99,1ZM458.49,171.54c-6.13-.21-6.31,6.52-4.99,10.98h-4.01c-.81,3.33,4.03,1.87,4.91,4.68l-.91,6.31,2.86.08c-.16,1.46,1.09,5.18.64,5.96-.21.37-5.8,5.69-6.21,5.81-2.61.8-4.28-1.38-6.29-.37,1.91,1.9,4.81,1.78,7.28,2.72,1.14.44,1.94,1.93,2.68,2.2,1.54.56,3.56-1.5,5.02,1.08-2.41,2.39-6.01,2.35-8.98,1.51,2.46,3.22.8,8.54,5.99,8.01v2.97c-3.94-.98-2.56,2.04-3.97,3.5-1.54,1.59-4.7.53-5.02,2.49l7.93,2.1-.93,4.9,3.51-4.98c8.19,3.26-4.25,11.2-1.51,14.99,5.53-2.6,5.19,4.03.3,4.84-1.61.27-2.44-2.54-3.31-1.34,3.49,5.42,13.61,7.36,1,10.99.05,3.88,7.17,2.49,6,4.97-1.78,3.77-7.46-1.92-7.99,3,1.35,2.25,5.64,2.83,6.98,4.03,1.43,1.27.75,3.37,1.5,4.5,1.61,2.42,7.66-.98,10.52-.03-2.75-6.39-.86-8.93,4.99-11.49-8.8.77-9.97-12.8-1.98-13.5l-.61-4.02,5.61-1.97c-2.38-3.76.71-7.39-.03-11.41-.54-2.92-3.85-4.18-.06-8.08l-3.92-2.99c2.23-3.49,3.11-4.02,1.99-8.48-3.57,1.86-7.6.63-11.44,1.05-2.45.27-8.08,4.56-9.54-.53,3.78-5.78,9.28-3.84,14.98-5.53-1.47-2.36-5.32-.56-5.88-4.51l7.48-4.44c-.51-3.53-2.74-4.88.42-8.02l-10.34.83-1.21-.78-.44-3.03,15.98-4.01-11.99-.02c-.3-7.23,8.8-5.74,12.5-2,1.24-11.14-18.01-1.78-22.56-4.46-1.29-3.72.2-6.43,3.06-8.51ZM501.26,260.72c-2.69-1.11-10.3,2.12-10.77,5.74,4.94-.72,9.1-.56,14-2-.71-.45-3-3.64-3.23-3.74ZM615.47,276.47l-4.39-.94-10.6,2.92,7.99,2.01.06-2.89,6.94-1.09ZM442.49,316.43c-3.92-1.61-5.02,1.75-5.71,1.97-1.29.41-3.51-.86-3.27,1.01l3.48,3,5.51-5.98ZM592.47,321.43c-4.27-.59-7.93,1.22-9.99,4.98,2.78-.82,9.84-1.23,9.99-4.98ZM580.47,326.43c-7.2.74-15.48-5.81-13.99,5.99,4.12-.13,9.27-1.52,12.7-3.76.96-.63,1.81.12,1.29-2.23Z"/>
  <path d="M76.51,338.41c-.82-.12-2.67.22-2.97,0-2.32-1.77,2.61-1.77,1.99-2.98l-5.07-.45-1.52-3.62-15.4,1.06.09-3.9c.62-.93,19.94-1.56,22.2-.88,4.79,1.43.05,7.02.69,10.78Z"/>
  <path d="M557.2,230.66l1.79.8c.39,2.58,2.66,7.05-.52,8.51-15.4,1.52-18.21-7.05-1.27-9.32Z"/>
  <path d="M55.53,173.54c.44,3.31-.19,4.2-3.01,5.49l3.01,2.98c-3.83,4.61-9.24.26-13.99-.5,1.58-5.62,8.48-8.74,14-7.98Z"/>
  <path d="M53.52,233.49c-.27.34-2.42-.78-1.99.99l3.97,2.51c-1.67,5.83-16.61,3.5-17.97,1.48-.38-.56-.13-2.98.97-3.5,4.9-1.29,11.03,1.1,13.52-4.46.86.54,2.13,2.19,1.49,2.97Z"/>
  <path d="M280.41,130.64c2.83,2.1-2.62,10.27-6.27,8.95-1.36-2.89-3.55-3.09-6.64-3.03-.34-2.87.26-1.55,1.55-1.94,3.6-1.09,6.27-5.09,11.36-3.98Z"/>
  <path d="M41.53,209.51l2.82-.18.72-2.89c2.12-.31,8.91.26,9.45,2.59.84,3.63-14.51,9.22-13,.48Z"/>
  <path d="M404.3,281.24c.14-.06.1-1.6.85-1.78,1.67-.39,3.87.1,5.66-.04l1.67,4.02-18,1,.16-3.84c2.44-2.85,9.11.86,9.65.63Z"/>
  <path d="M18.53,1.67c2.79,4.11-11.43,8.79-13.99,4.48-.97-2.12,2.29-3.99,3.78-4.27.77-.15,9.92-.63,10.21-.21Z"/>
  <path d="M47.91,7.28c.48.47,1.33.74,1.52,1,3.57,4.89-3.55,5.03-3.39.37l-2.12,3.95-5.38-.95c-.49-.67,4.23-6.95,4.64-7.04,3.37-.75,3.32,1.28,4.74,2.67Z"/>
  <path d="M561.37,196.62c2.7,4.79-3.88,7.14-7.88,7.89-2.39-7.28.8-8.85,7.88-7.89Z"/>
  <path d="M552.9,79.02c-3.12,3.13-3.96,3.06-8.42,1.57-2.4-3.64,10.22-8.46,10.99-4.46.32,1.65-1.72,2.04-2.57,2.9Z"/>
  <path d="M571.48,78.6l-2.91.05-.1,3.95h-3.99c-1.28-3.5,1.59-3.96,1.68-4.21.46-1.2-1.78-3.37,2.83-4.74l2.49,4.94Z"/>
  <path d="M421.5,178.53h-8.01s.16-3.84.16-3.84c4.41-1.97,8.73-2.24,7.85,3.84Z"/>
  <path d="M240.51,15.64l-9,2,.43-4.05c1.18-1.71,9.26-1.93,8.56,2.05Z"/>
  <path d="M344.5,132.57c-.27,3.37-10.39,6.45-10.99,3.47-.64-3.13,9.11-3.41,10.99-3.47Z"/>
  <path d="M11.52,292.47c.59,5.61-4.42,4.07-7.99,2.97.46-4.77,4.54-4.36,7.99-2.97Z"/>
  <path d="M43.53,229.49l.05-4.94c2.5.28,5.2-2.22,6.94.46-.79,3.18-3.84,5.04-6.99,4.48Z"/>
  <path d="M279.5,140.56l-.93,4.55c-2.09.84-4.6,1.01-6.04-1.06,1.14-3.28,3.68-3.64,6.97-3.5Z"/>
  <path d="M161.51,331.42c.94,5.04-5.47,4.68-8.99,3.98-.02-2.59,8.44-4.56,8.99-3.98Z"/>
  <path d="M419.39,182.63l.1,3.89-6.99-1c.09-3.96,4.14-3.84,6.89-2.88Z"/>
  <path class="cls-2" d="M143.87,103.24c41.26,38.82,83.28,76.49,123.7,115.72,2.78,2.7,11.08,8.54,13.03,12,1.05,1.86.17,9.04,3.95,10.04-3.7,4.17-.56,5.06-.38,7,.29,3.18-8.07,9.79-7.66,11.94l6.99,2.51c-4.98.84-8.96,1.15-9.99,7,2.9.87,5.17,1.69,7.99,0-.06,1.64-.08,3.15.93,4.58,1.47,2.09,8.94,3.15,7.07,5.41-10.3-4.66-9.85,6.15-4.99,11.98l-4.53.05c-2.02-6.66,3.56-11.19-2.97-16.03-2.44-.52-.85,1.7-2.15,3.06-1.41,1.47-5.15,2.88-6.9.99L111.53,123.07c6.11-2.22,2.78-5.02,3.41-8.57.44-2.46,4.66-2.32,2.6-4.42-8.57-3.8-7.47,10.29-15.02,3.98,4.32-5.89,3.5-15.56,13-12.47l-1.99-9.99h4.99c-.01-4.58-7.09-2.89-10.51-3-1.2-.04-3.72.74-3.48-.99l6.67-1.83c1.09-1.23,8.13-2.68,7.31-4.66-1.47-3.56-13,2.17-15.48,2.37-1.46.12-4.36-.74-3.51-2.88,3.13,1.04,5.34-1.03,7.51-1.5.91-.2,2.39.72,3.75.35,3.3-.91,2.58-6.29,7.79-1.39,8.57,8.05,16.74,17.13,25.29,25.18Z"/>
  <path class="cls-2" d="M54.53,49.63v4.99s4-1.01,4-1.01c-.18,2.57-.62,3.73,2,4.5-9.32,8.6-14.54-.87-20.99-6.99l14.99-1.49Z"/>
  <path class="cls-2" d="M285.23,195.79c.24.16,2.4,3.52,2.28,3.7-4-.57-5.1,4.96-5.5,5.03-4.84.92-3.6-2.21-5.05-3.97-.87-1.05-10.15-4.39-2.96-5.03,2.32-.21,9.5-.89,11.23.26Z"/>
  <path class="cls-2" d="M330.28,98.84c2.12-.23,3.74-.91,5.2,1.24-3.86,3.98-.27,9.17-8.35,7.37-3.49-5.16-3.6-7.9,3.15-8.61Z"/>
  <path class="cls-2" d="M28.53,26.63c-7.32-3.36-5.66,3.26-12.54,3.8-2.56-.45-1.98-7.91,1.17-8.71l11.37,4.91Z"/>
  <path class="cls-2" d="M332.5,246.49l-2,2.98,5.92,1.12c1.81,1.5-5.98,8.57-10.92,4.38-3.02-2.56,3.74-2.32,3.96-2.53l.03-5.37,3.02-.57Z"/>
  <path class="cls-2" d="M22.53,324.41c1.49-.91,3.2-5.93,3.62-6.05,1.35-.37,8.45-.14,8.36,1.56-3.76,3.35-6.61,5.48-11.98,4.49Z"/>
  <path class="cls-2" d="M334.3,227.66c.99.69,1.35,3.39-.34,3.81-2.93.72-6.63-3.13-10.46-.99l1-3.98,9.8,1.16Z"/>
  <path class="cls-2" d="M285.51,160.53c.14-4.45,10.99-1.94,10.98-.49-2.84,3-7.58,1.26-10.98.49Z"/>
  <path class="cls-2" d="M88.46,69.73l.12,2.77,4.93.12-.98,3.54c-.52.32-4.56-.65-5.05-1.02-1.96-1.51.82-5.7-3.96-4.53l4.93-.87Z"/>
  <path class="cls-2" d="M331.51,66.61c-4.62.6-5.42.8-9-1.49,2.92-3.22,9.72-4.32,9,1.49Z"/>
  <path class="cls-2" d="M90.78,153.83c-.93,1.09-.44,6.21-4.24,5.71-.74-2.45-2.17-3.3-1.02-5.99l3.35,1.09,4.63-4.08c.64,2.48-1.89,2.29-2.73,3.28Z"/>
  <path class="cls-2" d="M101.52,317.43l-1.48,2-11.5.5c3.47-3.28,8.62-2.45,12.97-2.49Z"/>
  <path class="cls-2" d="M335.5,77.62c.27,4.72-8.32,0-11,.98-1.69-1.27.13-1.81,1.48-1.99,3.19-.44,6.47.12,9.52,1.01Z"/>
  <path class="cls-2" d="M574.28,110.75c3.17,5.99,12.31,4.07,18.19,4.84-1.09,2.41-4.09-.79-2.96,3.93l6.96,1.05v3.99s5.99-2,5.99-2c2.04,4.45-1.9,6.63-.78,10.8,2.08.29,3.65,3.24,4.81,3.73,1.8.75,3.57-1.62,4.96.96l-1.5,2.5c2.43.68,11.69,4.14,6.57,7.54-1.01.67-10.57,1.47-13.05,3.46,2.03,3.97,1.65,7.66,1,11.97,2.65.58,4.38-3.99,3.02-5.5l1.97-.49.06,2.89c2.33.02,8.9-.08,8.78,3.42l-1,2.54-3.84.14,1.01,4.99-14.01,3.01c-.63,3.69,1.33,3.39,4,4.49l-4.99,5.01c-1.07,4.22,10.84,2.64,11.48-1.5l6.51,3.5c1.52,2.83-8.11.61-9,1.97-4.53,6.92-1.56,5.25,1.4,7.4,1.05.76.29,4.95,5.6,4.11.27,1.64-1.35.93-2.47.99-2.79.15-5.63-.26-8.41.11l.04,7.74c1.32.19,5.72-.04,5.82,1.64.12,2.14-7.24.1-9.27.71-1.52.45-3.48,2.66-3.74,4.29-.41,2.09.85,1.4,2.04,1.94,1.72.78,9.83,3.36,10.03,4.22l-.05,4.33c-4-1.44-8.86-.38-11.97,2.49-.03.41,4.85,6.07,5.21,6.25,3.09,1.53,5.1-1.19,7.25,5.23l2.94-2.85,4.57.88-5.22,5.75c-8.83-1.95-16.62,6.03-4.79,8.24l-6,.99c-1.76,1.83,4.49,6.31,6,7.49-7.29,4.17-.54,6.05,5,5.5v5.98c-8.1,2.25-17.57,4.45-18.04-6.95l-6.95-.05c.98-2.67,5.08-.52,5.5-3.97.5-4.06-10.87.36-13.5-1.02l9.7-5.96,4.3-.03-1-7.94,5.97-2.54-4.97-3.48,5.98-2.53-5.98-1.5,2.02-1.48-1.01-3.02c-3.39-2.32-10.13,2.62-12.01-2-.83-2.05,1.36-1.41,2.47-1.49,2.46-.17,4.97.27,7.41-.09l1.08-2.41-4.97-2.48c2.62.6,1.68-2.43,2.11-2.84.79-.76,4.82.68,5.88-1.69l-3.01-2.99c.02-2.6,4.32-1.81,3.01-5.48l-8.01-.5c5.59-1.02,2.3-5.76,8.02-4.5l-3.01-5.98h3.01s-.04-2.95-.04-2.95l-3.96-1.07c-.05-1.94,3.08-.53,3.99-2.49,1.53-3.32-5.86-2.53-.99-7.96-4.18-4.44-7.95,2.74-13-.54.18-1.93,3.51-1.28,4.53-2.96,1.4-2.31-1-5.23.4-6.51,2.21-2.02,17.92-2.32,3.11-6.05-1.68-.42-3.33-.55-5.04-.46-.19-1.8,1.83-.02,2.09-2.42.34-3.07-.17-5.23-2.09-7.55l7.98-3.51-5.98-1.51c2.81-8.59-8.05-13.28-13.67-17.31-1.99-1.43-4.99-4.44-7.59-5.94-4.3-2.47-9-4.26-13.35-6.62l-1.53,1.71-2.85-1.31c3.57-.53,1.97-6.59,3.66-7.54l8.33-.94-3.35.97c-3.83.5,4.63,7.57,6.35,6.01-.43-4.24,4.76-4.77,3.49-9.05l7.33-1.77ZM606.47,144.56c-3.59-.11-7.43-.52-9.97,2.49-.09,1.46,12.11,3.41,9.97-2.49ZM598.44,174.56c-7.9-2.6-10.45,6.79-.9,4.53l.9-4.53Z"/>
  <path class="cls-2" d="M458.49,171.54c-2.86,2.08-4.35,4.79-3.06,8.51,4.55,2.68,23.81-6.67,22.56,4.46-3.7-3.74-12.8-5.23-12.5,2l11.99.02-15.98,4.01.44,3.03,1.21.78,10.34-.83c-3.15,3.15-.92,4.49-.42,8.02l-7.48,4.44c.57,3.94,4.42,2.15,5.88,4.51-5.7,1.69-11.2-.25-14.98,5.53,1.46,5.09,7.09.8,9.54.53,3.84-.42,7.87.81,11.44-1.05,1.11,4.46.24,4.99-1.99,8.48l3.92,2.99c-3.78,3.9-.47,5.16.06,8.08.74,4.02-2.36,7.65.03,11.41l-5.61,1.97.61,4.02c-7.99.7-6.81,14.27,1.98,13.5-5.85,2.56-7.75,5.1-4.99,11.49-2.86-.95-8.91,2.45-10.52.03-.75-1.13-.07-3.23-1.5-4.5-1.34-1.19-5.63-1.78-6.98-4.03.53-4.93,6.2.77,7.99-3,1.17-2.48-5.95-1.09-6-4.97,12.61-3.63,2.49-5.57-1-10.99.87-1.21,1.7,1.6,3.31,1.34,4.89-.81,5.23-7.44-.3-4.84-2.74-3.79,9.7-11.73,1.51-14.99l-3.51,4.98.93-4.9-7.93-2.1c.32-1.96,3.48-.9,5.02-2.49,1.41-1.46.03-4.48,3.97-3.5v-2.97c-5.2.53-3.54-4.79-5.99-8.01,2.97.84,6.56.89,8.98-1.51-1.46-2.58-3.48-.52-5.02-1.08-.73-.27-1.54-1.76-2.68-2.2-2.47-.95-5.37-.82-7.28-2.72,2.01-1.01,3.68,1.16,6.29.37.41-.12,5.99-5.45,6.21-5.81.45-.78-.8-4.5-.64-5.96l-2.86-.08.91-6.31c-.88-2.8-5.72-1.35-4.91-4.67h4.01c-1.31-4.46-1.13-11.2,4.99-10.99ZM476.25,234.73l-8.76-1.24,1.14,6.85,8.85.13-1.23-5.75ZM473.24,242.71c-2.43-2.11-8.59-.96-11.76-1.22l-.04,3.36c.49,2.03,17.36,2.69,11.79-2.13Z"/>
  <path class="cls-2" d="M457.49,153.56l-1.01,2.98,5.39,1.08,1.6-2.07,1.15,6.87,2.85.13-3,1.5,3.01,3.48c-9.78.67-3.39,5.53,3,4.02-1.61,3.88-6.56.01-10.01,1,1.78-6.9-3.32-4.38-6.04-7.53-1.18-1.37,1.15-4.42-2.96-4.49,6.14-6.93-7.63-6.04-11.99-5.98-.48-2.85.61-1.66,2.31-2.13,6.14-1.7,9.32,2.31,15.68,1.14Z"/>
  <path class="cls-2" d="M580.47,326.43c.52,2.35-.33,1.61-1.29,2.23-3.43,2.24-8.59,3.63-12.7,3.76-1.49-11.8,6.79-5.26,13.99-5.99Z"/>
  <path class="cls-2" d="M518.48,149.56c1.77,1.44-8.37,6.62-9.74,6.82-2.6.38-6.74-3.22-10.25-1.85l10.83-2.16c.54-6.36,4.87-2.77,9.16-2.82Z"/>
  <path class="cls-2" d="M501.26,260.72c.23.09,2.52,3.28,3.23,3.74-4.9,1.44-9.05,1.28-14,2,.47-3.62,8.08-6.84,10.77-5.74Z"/>
  <path class="cls-2" d="M499.48,164.55l-5.99-1,.99,3.98h-3c-.25-.2,1.19-2.02.89-3.29-.53-2.31-3.68-1.8-3.89-3.68l11.99-2.01-1,6Z"/>
  <polygon class="cls-2" points="615.47 276.47 608.53 277.56 608.47 280.46 600.48 278.45 611.08 275.53 615.47 276.47"/>
  <path class="cls-2" d="M442.49,316.43l-5.51,5.98-3.48-3c-.24-1.87,1.98-.59,3.27-1.01.69-.22,1.79-3.58,5.71-1.97Z"/>
  <path class="cls-2" d="M592.47,321.43c-.16,3.75-7.22,4.16-9.99,4.98,2.06-3.77,5.72-5.57,9.99-4.98Z"/>
  <path d="M598.44,174.56l-.9,4.53c-9.55,2.26-7-7.13.9-4.53Z"/>
  <path d="M606.47,144.56c2.13,5.9-10.07,3.95-9.97,2.49,2.55-3.02,6.39-2.61,9.97-2.49Z"/>
  <polygon points="476.25 234.73 477.48 240.48 468.63 240.34 467.49 233.49 476.25 234.73"/>
  <path d="M473.24,242.71c5.56,4.82-11.31,4.16-11.79,2.13l.04-3.36c3.17.27,9.33-.88,11.76,1.22Z"/>
</svg>