<?xml version="1.0" encoding="UTF-8"?>
<svg id="Ebene_1" data-name="Ebene 1" xmlns="http://www.w3.org/2000/svg" viewBox="0 0 194.19 77.74">
  <defs>
    <style>
      .cls-1 {
        fill: #fff;
        stroke: #000;
        stroke-width: .5px;
      }
    </style>
  </defs>
  <g id="gridCanvas">
    <rect class="cls-1" x="1.67" y="18.58" width="8.99" height="13.34" rx="4.5" ry="4.5" transform="translate(27.34 40.34) rotate(139.21)"/>
    <rect class="cls-1" x="99.45" y="46.39" width="8.99" height="13.34" rx="4.5" ry="4.5"/>
    <rect class="cls-1" x="51.27" y="3.05" width="8.99" height="13.34" rx="4.5" ry="4.5"/>
    <rect class="cls-1" x="56.64" y="1.36" width="8.99" height="13.34" rx="4.5" ry="4.5"/>
    <rect class="cls-1" x="7.56" y="-1.93" width="8.99" height="13.34" rx="4.5" ry="4.5" transform="translate(16.81 -7.31) rotate(90)"/>
    <rect class="cls-1" x="1.85" y="3.63" width="8.99" height="13.34" rx="4.5" ry="4.5"/>
    <rect class="cls-1" x="12.84" y="16.39" width="8.99" height="13.34" rx="4.5" ry="4.5"/>
    <rect class="cls-1" x="14.39" y=".36" width="8.99" height="13.34" rx="4.5" ry="4.5"/>
    <rect class="cls-1" x="28.74" y="8.48" width="8.99" height="13.34" rx="4.5" ry="4.5"/>
    <rect class="cls-1" x="26.16" y="1.81" width="8.99" height="13.34" rx="4.5" ry="4.5"/>
    <rect class="cls-1" x="54.56" y="18.57" width="8.99" height="13.34" rx="4.5" ry="4.5"/>
    <rect class="cls-1" x="39.15" y="3.05" width="8.99" height="13.34" rx="4.5" ry="4.5"/>
    <rect class="cls-1" x="7.34" y="20.64" width="8.99" height="13.34" rx="4.5" ry="4.5" transform="translate(39.15 15.47) rotate(90)"/>
    <rect class="cls-1" x="61.14" y="20.64" width="8.99" height="13.34" rx="4.5" ry="4.5" transform="translate(89.51 -39.65) rotate(87.04)"/>
    <rect class="cls-1" x="51.27" y="13.43" width="8.99" height="13.34" rx="4.5" ry="4.5"/>
    <rect class="cls-1" x="6.34" y="9.3" width="8.99" height="13.34" rx="4.5" ry="4.5" transform="translate(-8.31 13.5) rotate(-48.48)"/>
    <rect class="cls-1" x="32.25" y="18" width="8.99" height="13.34" rx="4.5" ry="4.5"/>
    <rect class="cls-1" x="36.74" y="11.33" width="8.99" height="13.34" rx="4.5" ry="4.5"/>
    <rect class="cls-1" x="64.18" y="-.81" width="8.99" height="13.34" rx="4.5" ry="4.5" transform="translate(74.53 -62.82) rotate(90)"/>
    <rect class="cls-1" x="67.81" y="9.72" width="8.99" height="13.34" rx="4.5" ry="4.5" transform="translate(55.91 88.7) rotate(-90)"/>
    <rect class="cls-1" x="69.98" y="18.57" width="8.99" height="13.34" rx="4.5" ry="4.5"/>
    <rect class="cls-1" x=".48" y="52.74" width="8.99" height="13.34" rx="4.5" ry="4.5"/>
    <rect class="cls-1" x=".48" y="59.41" width="8.99" height="13.34" rx="4.5" ry="4.5"/>
    <rect class="cls-1" x="11.65" y="45.4" width="8.99" height="13.34" rx="4.5" ry="4.5"/>
    <rect class="cls-1" x="4.98" y="40.84" width="8.99" height="13.34" rx="4.5" ry="4.5"/>
    <rect class="cls-1" x=".48" y="44.69" width="8.99" height="13.34" rx="4.5" ry="4.5"/>
    <rect class="cls-1" x="7.16" y="53.33" width="8.99" height="13.34" rx="4.5" ry="4.5" transform="translate(71.66 48.35) rotate(90)"/>
    <rect class="cls-1" x=".48" y="63.91" width="8.99" height="13.34" rx="4.5" ry="4.5"/>
    <rect class="cls-1" x="23.56" y="51.7" width="8.99" height="13.34" rx="4.5" ry="4.5"/>
    <rect class="cls-1" x="23.56" y="59.37" width="8.99" height="13.34" rx="4.5" ry="4.5"/>
    <rect class="cls-1" x="30.23" y="64.76" width="8.99" height="13.34" rx="4.5" ry="4.5" transform="translate(106.16 36.71) rotate(90)"/>
    <rect class="cls-1" x="30.23" y="41.42" width="8.99" height="13.34" rx="4.5" ry="4.5" transform="translate(82.82 13.37) rotate(90)"/>
    <rect class="cls-1" x="23.56" y="43.64" width="8.99" height="13.34" rx="4.5" ry="4.5"/>
    <rect class="cls-1" x="30.23" y="52.29" width="8.99" height="13.34" rx="4.5" ry="4.5" transform="translate(93.68 24.24) rotate(90)"/>
    <rect class="cls-1" x="23.56" y="63.87" width="8.99" height="13.34" rx="4.5" ry="4.5"/>
    <rect class="cls-1" x="43.94" y="46.23" width="8.99" height="13.34" rx="4.5" ry="4.5"/>
    <rect class="cls-1" x="50.6" y="41.42" width="8.99" height="13.34" rx="4.5" ry="4.5" transform="translate(100.28 -9.42) rotate(87.04)"/>
    <rect class="cls-1" x="47.23" y="62.75" width="8.99" height="13.34" rx="4.5" ry="4.5"/>
    <rect class="cls-1" x="53.8" y="64.82" width="8.99" height="13.34" rx="4.5" ry="4.5" transform="translate(126.68 9.57) rotate(87.04)"/>
    <rect class="cls-1" x="43.94" y="57.61" width="8.99" height="13.34" rx="4.5" ry="4.5"/>
    <rect class="cls-1" x="56.35" y="42.37" width="8.99" height="13.34" rx="4.5" ry="4.5" transform="translate(109.88 -11.8) rotate(90)"/>
    <rect class="cls-1" x="58.48" y="52.9" width="8.99" height="13.34" rx="4.5" ry="4.5" transform="translate(3.4 122.54) rotate(-90)"/>
    <rect class="cls-1" x="59.87" y="60.41" width="8.99" height="13.34" rx="4.5" ry="4.5"/>
    <rect class="cls-1" x="124.54" y="59.06" width="8.99" height="13.34" rx="4.5" ry="4.5"/>
    <rect class="cls-1" x="87.37" y="58.68" width="8.99" height="13.34" rx="4.5" ry="4.5"/>
    <rect class="cls-1" x="138.63" y="63.46" width="8.99" height="13.34" rx="4.5" ry="4.5"/>
    <rect class="cls-1" x="138.63" y="55.67" width="8.99" height="13.34" rx="4.5" ry="4.5"/>
    <rect class="cls-1" x="85.19" y="44.62" width="8.99" height="13.34" rx="4.5" ry="4.5"/>
    <rect class="cls-1" x="131.21" y="41.16" width="8.99" height="13.34" rx="4.5" ry="4.5" transform="translate(183.54 -87.88) rotate(90)"/>
    <rect class="cls-1" x="124.54" y="64.15" width="8.99" height="13.34" rx="4.5" ry="4.5"/>
    <rect class="cls-1" x="137.78" y="46.65" width="8.99" height="13.34" rx="4.5" ry="4.5"/>
    <rect class="cls-1" x="124.54" y="46.83" width="8.99" height="13.34" rx="4.5" ry="4.5"/>
    <rect class="cls-1" x="130.73" y="54.67" width="8.99" height="13.34" rx="4.5" ry="4.5" transform="translate(196.56 -73.89) rotate(90)"/>
    <rect class="cls-1" x="74.03" y="51.3" width="8.99" height="13.34" rx="4.5" ry="4.5"/>
    <rect class="cls-1" x="74.03" y="58.97" width="8.99" height="13.34" rx="4.5" ry="4.5"/>
    <rect class="cls-1" x="80.7" y="64.36" width="8.99" height="13.34" rx="4.5" ry="4.5" transform="translate(156.22 -14.16) rotate(90)"/>
    <rect class="cls-1" x="80.7" y="41.02" width="8.99" height="13.34" rx="4.5" ry="4.5" transform="translate(132.89 -37.5) rotate(90)"/>
    <rect class="cls-1" x="74.03" y="43.24" width="8.99" height="13.34" rx="4.5" ry="4.5"/>
    <rect class="cls-1" x="80.7" y="51.89" width="8.99" height="13.34" rx="4.5" ry="4.5" transform="translate(143.75 -26.63) rotate(90)"/>
    <rect class="cls-1" x="74.03" y="63.47" width="8.99" height="13.34" rx="4.5" ry="4.5"/>
    <rect class="cls-1" x="160.14" y="63.76" width="8.99" height="13.34" rx="4.5" ry="4.5" transform="translate(-12.03 99.68) rotate(-32.56)"/>
    <rect class="cls-1" x="160.82" y="46.91" width="8.99" height="13.34" rx="4.5" ry="4.5"/>
    <rect class="cls-1" x="154.95" y="41.16" width="8.99" height="13.34" rx="4.5" ry="4.5" transform="translate(111.62 207.28) rotate(-90)"/>
    <rect class="cls-1" x="151.14" y="63.76" width="8.99" height="13.34" rx="4.5" ry="4.5"/>
    <rect class="cls-1" x="106.12" y="64.87" width="8.99" height="13.34" rx="4.5" ry="4.5" transform="translate(182.16 -39.08) rotate(90)"/>
    <rect class="cls-1" x="150.46" y="46.48" width="8.99" height="13.34" rx="4.5" ry="4.5"/>
    <rect class="cls-1" x="106.12" y="41.37" width="8.99" height="13.34" rx="4.5" ry="4.5" transform="translate(158.65 -62.58) rotate(90)"/>
    <rect class="cls-1" x="157.82" y="55.06" width="8.99" height="13.34" rx="4.5" ry="4.5" transform="translate(224.05 -100.58) rotate(90)"/>
    <rect class="cls-1" x="151.14" y="57.09" width="8.99" height="13.34" rx="4.5" ry="4.5"/>
    <rect class="cls-1" x="98.14" y="53.9" width="8.99" height="13.34" rx="4.5" ry="4.5"/>
    <rect class="cls-1" x="112.41" y="58.61" width="8.99" height="13.34" rx="4.5" ry="4.5"/>
    <rect class="cls-1" x="112.41" y="48.98" width="8.99" height="13.34" rx="4.5" ry="4.5" transform="translate(238.19 100.96) rotate(175.03)"/>
    <rect class="cls-1" x="99.45" y="60.86" width="8.99" height="13.34" rx="4.5" ry="4.5"/>
    <rect class="cls-1" x="183.24" y="46.96" width="8.99" height="13.34" rx="4.5" ry="4.5" transform="translate(-6.56 72.84) rotate(-21.59)"/>
    <rect class="cls-1" x="173.07" y="53.63" width="8.99" height="13.34" rx="4.5" ry="4.5"/>
    <rect class="cls-1" x="173.07" y="61.3" width="8.99" height="13.34" rx="4.5" ry="4.5"/>
    <rect class="cls-1" x="181.74" y="65.36" width="8.99" height="13.34" rx="4.5" ry="4.5" transform="translate(184.69 -127.65) rotate(68.41)"/>
    <rect class="cls-1" x="179.74" y="42.35" width="8.99" height="13.34" rx="4.5" ry="4.5" transform="translate(233.27 -135.21) rotate(90)"/>
    <rect class="cls-1" x="173.07" y="45.57" width="8.99" height="13.34" rx="4.5" ry="4.5"/>
    <rect class="cls-1" x="173.14" y="63.46" width="8.99" height="13.34" rx="4.5" ry="4.5"/>
    <rect class="cls-1" x="184.95" y="57.45" width="8.99" height="12.63" rx="4.5" ry="4.5"/>
  </g>
</svg>