<svg xmlns="http://www.w3.org/2000/svg" _ngcontent-ng-c2192321751="" id="drawingSVG-delaunay"><circle cx="251.25" cy="170.5" r="4" fill="var(--secondary-color)"/><circle cx="575.25" cy="203.5" r="4" fill="var(--secondary-color)"/><circle cx="414.25" cy="383.5" r="4" fill="var(--secondary-color)"/><circle cx="224.25" cy="403.5" r="4" fill="var(--secondary-color)"/><circle cx="744.25" cy="633.5" r="4" fill="var(--secondary-color)"/><circle cx="976.25" cy="316.5" r="4" fill="var(--secondary-color)"/><circle cx="668.25" cy="193.5" r="4" fill="var(--secondary-color)"/><circle cx="303.25" cy="308.5" r="4" fill="var(--secondary-color)"/><circle cx="215.25" cy="580.5" r="4" fill="var(--secondary-color)"/><circle cx="96.25" cy="242.5" r="4" fill="var(--secondary-color)"/><circle cx="588.25" cy="91.5" r="4" fill="var(--secondary-color)"/><circle cx="988.25" cy="159.5" r="4" fill="var(--secondary-color)"/><circle cx="693.25" cy="435.5" r="4" fill="var(--secondary-color)"/><circle cx="450.25" cy="435.5" r="4" fill="var(--secondary-color)"/><circle cx="431.25" cy="520.5" r="4" fill="var(--secondary-color)"/><circle cx="420.25" cy="568.5" r="4" fill="var(--secondary-color)"/><circle cx="730.25" cy="297.5" r="4" fill="var(--secondary-color)"/><circle cx="405.25" cy="314.5" r="4" fill="var(--secondary-color)"/><circle cx="328.25" cy="467.5" r="4" fill="var(--secondary-color)"/><circle cx="232.25" cy="358.5" r="4" fill="var(--secondary-color)"/><circle cx="179.25" cy="429.5" r="4" fill="var(--secondary-color)"/><circle cx="112.25" cy="503.5" r="4" fill="var(--secondary-color)"/><circle cx="742.25" cy="106.5" r="4" fill="var(--secondary-color)"/><circle cx="719.25" cy="300.5" r="4" fill="var(--secondary-color)"/><circle cx="529.25" cy="432.5" r="4" fill="var(--secondary-color)"/><circle cx="531.25" cy="547.5" r="4" fill="var(--secondary-color)"/><line x1="529.25" y1="432.5" x2="450.25" y2="435.5" stroke="var(--secondary-color)" stroke-width="40" stroke-dasharray="2,2"/><line x1="450.25" y1="435.5" x2="431.25" y2="520.5" stroke="var(--secondary-color)" stroke-width="40" stroke-dasharray="2,2"/><line x1="431.25" y1="520.5" x2="529.25" y2="432.5" stroke="var(--secondary-color)" stroke-width="40" stroke-dasharray="2,2"/><line x1="431.25" y1="520.5" x2="531.25" y2="547.5" stroke="var(--secondary-color)" stroke-width="40" stroke-dasharray="2,2"/><line x1="531.25" y1="547.5" x2="529.25" y2="432.5" stroke="var(--secondary-color)" stroke-width="40" stroke-dasharray="2,2"/><line x1="529.25" y1="432.5" x2="431.25" y2="520.5" stroke="var(--secondary-color)" stroke-width="40" stroke-dasharray="2,2"/><line x1="328.25" y1="467.5" x2="420.25" y2="568.5" stroke="var(--secondary-color)" stroke-width="40" stroke-dasharray="2,2"/><line x1="420.25" y1="568.5" x2="431.25" y2="520.5" stroke="var(--secondary-color)" stroke-width="40" stroke-dasharray="2,2"/><line x1="431.25" y1="520.5" x2="328.25" y2="467.5" stroke="var(--secondary-color)" stroke-width="40" stroke-dasharray="2,2"/><line x1="431.25" y1="520.5" x2="420.25" y2="568.5" stroke="var(--secondary-color)" stroke-width="40" stroke-dasharray="2,2"/><line x1="420.25" y1="568.5" x2="531.25" y2="547.5" stroke="var(--secondary-color)" stroke-width="40" stroke-dasharray="2,2"/><line x1="531.25" y1="547.5" x2="431.25" y2="520.5" stroke="var(--secondary-color)" stroke-width="40" stroke-dasharray="2,2"/><line x1="529.25" y1="432.5" x2="414.25" y2="383.5" stroke="var(--secondary-color)" stroke-width="40" stroke-dasharray="2,2"/><line x1="414.25" y1="383.5" x2="450.25" y2="435.5" stroke="var(--secondary-color)" stroke-width="40" stroke-dasharray="2,2"/><line x1="450.25" y1="435.5" x2="529.25" y2="432.5" stroke="var(--secondary-color)" stroke-width="40" stroke-dasharray="2,2"/><line x1="450.25" y1="435.5" x2="328.25" y2="467.5" stroke="var(--secondary-color)" stroke-width="40" stroke-dasharray="2,2"/><line x1="328.25" y1="467.5" x2="431.25" y2="520.5" stroke="var(--secondary-color)" stroke-width="40" stroke-dasharray="2,2"/><line x1="431.25" y1="520.5" x2="450.25" y2="435.5" stroke="var(--secondary-color)" stroke-width="40" stroke-dasharray="2,2"/><line x1="414.25" y1="383.5" x2="328.25" y2="467.5" stroke="var(--secondary-color)" stroke-width="40" stroke-dasharray="2,2"/><line x1="328.25" y1="467.5" x2="450.25" y2="435.5" stroke="var(--secondary-color)" stroke-width="40" stroke-dasharray="2,2"/><line x1="450.25" y1="435.5" x2="414.25" y2="383.5" stroke="var(--secondary-color)" stroke-width="40" stroke-dasharray="2,2"/><line x1="529.25" y1="432.5" x2="405.25" y2="314.5" stroke="var(--secondary-color)" stroke-width="40" stroke-dasharray="2,2"/><line x1="405.25" y1="314.5" x2="414.25" y2="383.5" stroke="var(--secondary-color)" stroke-width="40" stroke-dasharray="2,2"/><line x1="414.25" y1="383.5" x2="529.25" y2="432.5" stroke="var(--secondary-color)" stroke-width="40" stroke-dasharray="2,2"/><line x1="414.25" y1="383.5" x2="303.25" y2="308.5" stroke="var(--secondary-color)" stroke-width="40" stroke-dasharray="2,2"/><line x1="303.25" y1="308.5" x2="328.25" y2="467.5" stroke="var(--secondary-color)" stroke-width="40" stroke-dasharray="2,2"/><line x1="328.25" y1="467.5" x2="414.25" y2="383.5" stroke="var(--secondary-color)" stroke-width="40" stroke-dasharray="2,2"/><line x1="531.25" y1="547.5" x2="693.25" y2="435.5" stroke="var(--secondary-color)" stroke-width="40" stroke-dasharray="2,2"/><line x1="693.25" y1="435.5" x2="529.25" y2="432.5" stroke="var(--secondary-color)" stroke-width="40" stroke-dasharray="2,2"/><line x1="529.25" y1="432.5" x2="531.25" y2="547.5" stroke="var(--secondary-color)" stroke-width="40" stroke-dasharray="2,2"/><line x1="529.25" y1="432.5" x2="575.25" y2="203.5" stroke="var(--secondary-color)" stroke-width="40" stroke-dasharray="2,2"/><line x1="575.25" y1="203.5" x2="405.25" y2="314.5" stroke="var(--secondary-color)" stroke-width="40" stroke-dasharray="2,2"/><line x1="405.25" y1="314.5" x2="529.25" y2="432.5" stroke="var(--secondary-color)" stroke-width="40" stroke-dasharray="2,2"/><line x1="405.25" y1="314.5" x2="303.25" y2="308.5" stroke="var(--secondary-color)" stroke-width="40" stroke-dasharray="2,2"/><line x1="303.25" y1="308.5" x2="414.25" y2="383.5" stroke="var(--secondary-color)" stroke-width="40" stroke-dasharray="2,2"/><line x1="414.25" y1="383.5" x2="405.25" y2="314.5" stroke="var(--secondary-color)" stroke-width="40" stroke-dasharray="2,2"/><line x1="232.25" y1="358.5" x2="224.25" y2="403.5" stroke="var(--secondary-color)" stroke-width="40" stroke-dasharray="2,2"/><line x1="224.25" y1="403.5" x2="328.25" y2="467.5" stroke="var(--secondary-color)" stroke-width="40" stroke-dasharray="2,2"/><line x1="328.25" y1="467.5" x2="232.25" y2="358.5" stroke="var(--secondary-color)" stroke-width="40" stroke-dasharray="2,2"/><line x1="328.25" y1="467.5" x2="215.25" y2="580.5" stroke="var(--secondary-color)" stroke-width="40" stroke-dasharray="2,2"/><line x1="215.25" y1="580.5" x2="420.25" y2="568.5" stroke="var(--secondary-color)" stroke-width="40" stroke-dasharray="2,2"/><line x1="420.25" y1="568.5" x2="328.25" y2="467.5" stroke="var(--secondary-color)" stroke-width="40" stroke-dasharray="2,2"/><line x1="420.25" y1="568.5" x2="744.25" y2="633.5" stroke="var(--secondary-color)" stroke-width="40" stroke-dasharray="2,2"/><line x1="744.25" y1="633.5" x2="531.25" y2="547.5" stroke="var(--secondary-color)" stroke-width="40" stroke-dasharray="2,2"/><line x1="531.25" y1="547.5" x2="420.25" y2="568.5" stroke="var(--secondary-color)" stroke-width="40" stroke-dasharray="2,2"/><line x1="531.25" y1="547.5" x2="744.25" y2="633.5" stroke="var(--secondary-color)" stroke-width="40" stroke-dasharray="2,2"/><line x1="744.25" y1="633.5" x2="693.25" y2="435.5" stroke="var(--secondary-color)" stroke-width="40" stroke-dasharray="2,2"/><line x1="693.25" y1="435.5" x2="531.25" y2="547.5" stroke="var(--secondary-color)" stroke-width="40" stroke-dasharray="2,2"/><line x1="303.25" y1="308.5" x2="232.25" y2="358.5" stroke="var(--secondary-color)" stroke-width="40" stroke-dasharray="2,2"/><line x1="232.25" y1="358.5" x2="328.25" y2="467.5" stroke="var(--secondary-color)" stroke-width="40" stroke-dasharray="2,2"/><line x1="328.25" y1="467.5" x2="303.25" y2="308.5" stroke="var(--secondary-color)" stroke-width="40" stroke-dasharray="2,2"/><line x1="179.25" y1="429.5" x2="215.25" y2="580.5" stroke="var(--secondary-color)" stroke-width="40" stroke-dasharray="2,2"/><line x1="215.25" y1="580.5" x2="328.25" y2="467.5" stroke="var(--secondary-color)" stroke-width="40" stroke-dasharray="2,2"/><line x1="328.25" y1="467.5" x2="179.25" y2="429.5" stroke="var(--secondary-color)" stroke-width="40" stroke-dasharray="2,2"/><line x1="420.25" y1="568.5" x2="215.25" y2="580.5" stroke="var(--secondary-color)" stroke-width="40" stroke-dasharray="2,2"/><line x1="215.25" y1="580.5" x2="744.25" y2="633.5" stroke="var(--secondary-color)" stroke-width="40" stroke-dasharray="2,2"/><line x1="744.25" y1="633.5" x2="420.25" y2="568.5" stroke="var(--secondary-color)" stroke-width="40" stroke-dasharray="2,2"/><line x1="730.25" y1="297.5" x2="719.25" y2="300.5" stroke="var(--secondary-color)" stroke-width="40" stroke-dasharray="2,2"/><line x1="719.25" y1="300.5" x2="693.25" y2="435.5" stroke="var(--secondary-color)" stroke-width="40" stroke-dasharray="2,2"/><line x1="693.25" y1="435.5" x2="730.25" y2="297.5" stroke="var(--secondary-color)" stroke-width="40" stroke-dasharray="2,2"/><line x1="693.25" y1="435.5" x2="719.25" y2="300.5" stroke="var(--secondary-color)" stroke-width="40" stroke-dasharray="2,2"/><line x1="719.25" y1="300.5" x2="529.25" y2="432.5" stroke="var(--secondary-color)" stroke-width="40" stroke-dasharray="2,2"/><line x1="529.25" y1="432.5" x2="693.25" y2="435.5" stroke="var(--secondary-color)" stroke-width="40" stroke-dasharray="2,2"/><line x1="405.25" y1="314.5" x2="251.25" y2="170.5" stroke="var(--secondary-color)" stroke-width="40" stroke-dasharray="2,2"/><line x1="251.25" y1="170.5" x2="303.25" y2="308.5" stroke="var(--secondary-color)" stroke-width="40" stroke-dasharray="2,2"/><line x1="303.25" y1="308.5" x2="405.25" y2="314.5" stroke="var(--secondary-color)" stroke-width="40" stroke-dasharray="2,2"/><line x1="719.25" y1="300.5" x2="575.25" y2="203.5" stroke="var(--secondary-color)" stroke-width="40" stroke-dasharray="2,2"/><line x1="575.25" y1="203.5" x2="529.25" y2="432.5" stroke="var(--secondary-color)" stroke-width="40" stroke-dasharray="2,2"/><line x1="529.25" y1="432.5" x2="719.25" y2="300.5" stroke="var(--secondary-color)" stroke-width="40" stroke-dasharray="2,2"/><line x1="976.25" y1="316.5" x2="730.25" y2="297.5" stroke="var(--secondary-color)" stroke-width="40" stroke-dasharray="2,2"/><line x1="730.25" y1="297.5" x2="693.25" y2="435.5" stroke="var(--secondary-color)" stroke-width="40" stroke-dasharray="2,2"/><line x1="693.25" y1="435.5" x2="976.25" y2="316.5" stroke="var(--secondary-color)" stroke-width="40" stroke-dasharray="2,2"/><line x1="719.25" y1="300.5" x2="668.25" y2="193.5" stroke="var(--secondary-color)" stroke-width="40" stroke-dasharray="2,2"/><line x1="668.25" y1="193.5" x2="575.25" y2="203.5" stroke="var(--secondary-color)" stroke-width="40" stroke-dasharray="2,2"/><line x1="575.25" y1="203.5" x2="719.25" y2="300.5" stroke="var(--secondary-color)" stroke-width="40" stroke-dasharray="2,2"/><line x1="232.25" y1="358.5" x2="179.25" y2="429.5" stroke="var(--secondary-color)" stroke-width="40" stroke-dasharray="2,2"/><line x1="179.25" y1="429.5" x2="224.25" y2="403.5" stroke="var(--secondary-color)" stroke-width="40" stroke-dasharray="2,2"/><line x1="224.25" y1="403.5" x2="232.25" y2="358.5" stroke="var(--secondary-color)" stroke-width="40" stroke-dasharray="2,2"/><line x1="224.25" y1="403.5" x2="179.25" y2="429.5" stroke="var(--secondary-color)" stroke-width="40" stroke-dasharray="2,2"/><line x1="179.25" y1="429.5" x2="328.25" y2="467.5" stroke="var(--secondary-color)" stroke-width="40" stroke-dasharray="2,2"/><line x1="328.25" y1="467.5" x2="224.25" y2="403.5" stroke="var(--secondary-color)" stroke-width="40" stroke-dasharray="2,2"/><line x1="730.25" y1="297.5" x2="668.25" y2="193.5" stroke="var(--secondary-color)" stroke-width="40" stroke-dasharray="2,2"/><line x1="668.25" y1="193.5" x2="719.25" y2="300.5" stroke="var(--secondary-color)" stroke-width="40" stroke-dasharray="2,2"/><line x1="719.25" y1="300.5" x2="730.25" y2="297.5" stroke="var(--secondary-color)" stroke-width="40" stroke-dasharray="2,2"/><line x1="179.25" y1="429.5" x2="112.25" y2="503.5" stroke="var(--secondary-color)" stroke-width="40" stroke-dasharray="2,2"/><line x1="112.25" y1="503.5" x2="215.25" y2="580.5" stroke="var(--secondary-color)" stroke-width="40" stroke-dasharray="2,2"/><line x1="215.25" y1="580.5" x2="179.25" y2="429.5" stroke="var(--secondary-color)" stroke-width="40" stroke-dasharray="2,2"/><line x1="96.25" y1="242.5" x2="112.25" y2="503.5" stroke="var(--secondary-color)" stroke-width="40" stroke-dasharray="2,2"/><line x1="112.25" y1="503.5" x2="179.25" y2="429.5" stroke="var(--secondary-color)" stroke-width="40" stroke-dasharray="2,2"/><line x1="179.25" y1="429.5" x2="96.25" y2="242.5" stroke="var(--secondary-color)" stroke-width="40" stroke-dasharray="2,2"/><line x1="303.25" y1="308.5" x2="251.25" y2="170.5" stroke="var(--secondary-color)" stroke-width="40" stroke-dasharray="2,2"/><line x1="251.25" y1="170.5" x2="232.25" y2="358.5" stroke="var(--secondary-color)" stroke-width="40" stroke-dasharray="2,2"/><line x1="232.25" y1="358.5" x2="303.25" y2="308.5" stroke="var(--secondary-color)" stroke-width="40" stroke-dasharray="2,2"/><line x1="232.25" y1="358.5" x2="96.25" y2="242.5" stroke="var(--secondary-color)" stroke-width="40" stroke-dasharray="2,2"/><line x1="96.25" y1="242.5" x2="179.25" y2="429.5" stroke="var(--secondary-color)" stroke-width="40" stroke-dasharray="2,2"/><line x1="179.25" y1="429.5" x2="232.25" y2="358.5" stroke="var(--secondary-color)" stroke-width="40" stroke-dasharray="2,2"/><line x1="575.25" y1="203.5" x2="251.25" y2="170.5" stroke="var(--secondary-color)" stroke-width="40" stroke-dasharray="2,2"/><line x1="251.25" y1="170.5" x2="405.25" y2="314.5" stroke="var(--secondary-color)" stroke-width="40" stroke-dasharray="2,2"/><line x1="405.25" y1="314.5" x2="575.25" y2="203.5" stroke="var(--secondary-color)" stroke-width="40" stroke-dasharray="2,2"/><line x1="588.25" y1="91.5" x2="251.25" y2="170.5" stroke="var(--secondary-color)" stroke-width="40" stroke-dasharray="2,2"/><line x1="251.25" y1="170.5" x2="575.25" y2="203.5" stroke="var(--secondary-color)" stroke-width="40" stroke-dasharray="2,2"/><line x1="575.25" y1="203.5" x2="588.25" y2="91.5" stroke="var(--secondary-color)" stroke-width="40" stroke-dasharray="2,2"/><line x1="668.25" y1="193.5" x2="588.25" y2="91.5" stroke="var(--secondary-color)" stroke-width="40" stroke-dasharray="2,2"/><line x1="588.25" y1="91.5" x2="575.25" y2="203.5" stroke="var(--secondary-color)" stroke-width="40" stroke-dasharray="2,2"/><line x1="575.25" y1="203.5" x2="668.25" y2="193.5" stroke="var(--secondary-color)" stroke-width="40" stroke-dasharray="2,2"/><line x1="730.25" y1="297.5" x2="742.25" y2="106.5" stroke="var(--secondary-color)" stroke-width="40" stroke-dasharray="2,2"/><line x1="742.25" y1="106.5" x2="668.25" y2="193.5" stroke="var(--secondary-color)" stroke-width="40" stroke-dasharray="2,2"/><line x1="668.25" y1="193.5" x2="730.25" y2="297.5" stroke="var(--secondary-color)" stroke-width="40" stroke-dasharray="2,2"/><line x1="668.25" y1="193.5" x2="742.25" y2="106.5" stroke="var(--secondary-color)" stroke-width="40" stroke-dasharray="2,2"/><line x1="742.25" y1="106.5" x2="588.25" y2="91.5" stroke="var(--secondary-color)" stroke-width="40" stroke-dasharray="2,2"/><line x1="588.25" y1="91.5" x2="668.25" y2="193.5" stroke="var(--secondary-color)" stroke-width="40" stroke-dasharray="2,2"/><line x1="988.25" y1="159.5" x2="742.25" y2="106.5" stroke="var(--secondary-color)" stroke-width="40" stroke-dasharray="2,2"/><line x1="742.25" y1="106.5" x2="730.25" y2="297.5" stroke="var(--secondary-color)" stroke-width="40" stroke-dasharray="2,2"/><line x1="730.25" y1="297.5" x2="988.25" y2="159.5" stroke="var(--secondary-color)" stroke-width="40" stroke-dasharray="2,2"/><line x1="251.25" y1="170.5" x2="96.25" y2="242.5" stroke="var(--secondary-color)" stroke-width="40" stroke-dasharray="2,2"/><line x1="96.25" y1="242.5" x2="232.25" y2="358.5" stroke="var(--secondary-color)" stroke-width="40" stroke-dasharray="2,2"/><line x1="232.25" y1="358.5" x2="251.25" y2="170.5" stroke="var(--secondary-color)" stroke-width="40" stroke-dasharray="2,2"/><line x1="744.25" y1="633.5" x2="976.25" y2="316.5" stroke="var(--secondary-color)" stroke-width="40" stroke-dasharray="2,2"/><line x1="976.25" y1="316.5" x2="693.25" y2="435.5" stroke="var(--secondary-color)" stroke-width="40" stroke-dasharray="2,2"/><line x1="693.25" y1="435.5" x2="744.25" y2="633.5" stroke="var(--secondary-color)" stroke-width="40" stroke-dasharray="2,2"/><line x1="976.25" y1="316.5" x2="988.25" y2="159.5" stroke="var(--secondary-color)" stroke-width="40" stroke-dasharray="2,2"/><line x1="988.25" y1="159.5" x2="730.25" y2="297.5" stroke="var(--secondary-color)" stroke-width="40" stroke-dasharray="2,2"/><line x1="730.25" y1="297.5" x2="976.25" y2="316.5" stroke="var(--secondary-color)" stroke-width="40" stroke-dasharray="2,2"/></svg>